<?xml version="1.0" encoding="utf-8"?>
<!-- Generator: Adobe Illustrator 18.1.0, SVG Export Plug-In . SVG Version: 6.00 Build 0)  -->
<svg version="1.1" id="face" xmlns="http://www.w3.org/2000/svg" xmlns:xlink="http://www.w3.org/1999/xlink" x="0px" y="0px"
	 viewBox="0 0 800 600" enable-background="new 0 0 2800 1600" xml:space="preserve">
<g id="faceBody">
	<path fill="#A79493" d="M125.5,241c-7.6,8.1-5.8,20.5-4,32c0.8,5.2,6.1,38.9,28,63c4.1,4.5,9.5,9.5,12.5,18.5
		c2.9,8.8,0.6,12.4,4.5,19c3.7,6.2,6.5,4.3,16,13.5c9.6,9.3,12.8,17.1,13.5,19c0.5,1.3,0.9,2.6,0.9,2.6c1.2,3.9,1.5,6.9,1.6,7.4
		c0.6,4.8,11.2,33.8,16,44c9,19,45.1,59.8,105,97.5L508,558c0.7-1.8,1.7-4.2,3-7c0,0,3.2-7,7-13.5c8.1-14,62.1-58.5,87.5-83.5
		c14.7-14.5,22.1-21.7,26-29c5.1-9.5,17.6-37.3-14-168.5c-2.9-12.2-2.9-11.5-4.5-18.5c-14.3-63.8-5.2-78.8-18.5-96
		c-14.6-18.8-41.3-21-64.5-23c-32.1-2.7-35.5,7.6-74,9.5c-37.4,1.8-41.8-7.6-94-9c-38.1-1-57.1-1.5-66.5,7.5
		c-21.4,20.5-6.4,62.2-34,90c-1,1-4.3,4.1-11,10.5c-28.7,27.3-29.9,27.3-32.5,31.5c-13.7,21.8,0,47.9-6,50c-3.8,1.3-9.9-8.6-32-39.5
		c-18.2-25.5-25.5-34.8-36.5-35.5C136.8,233.6,129.9,236.3,125.5,241z"/>
	<path fill="#C69C6D" d="M125.5,241c-1.4,1.5-2.5,3.2-3.4,5.1c-0.8,1.9-1.4,3.8-1.7,5.9c-0.7,4-0.5,8.2-0.1,12.2
		c0.4,4.1,1.1,8.1,1.8,12.1c0.7,4,1.6,8,2.7,11.9c2.2,7.9,5,15.6,8.4,23c3.5,7.4,7.7,14.4,12.9,20.8c1.3,1.5,2.6,3.1,4,4.6
		c1.4,1.5,2.8,3,4.1,4.5c2.7,3.1,5,6.5,6.6,10.3c1.6,3.7,2.7,7.8,3,11.8c0.2,2,0.3,4.1,0.9,6c0.6,2,1.5,3.8,2.6,5.5
		c0.6,0.8,1.3,1.6,2,2.3c0.8,0.7,1.6,1.2,2.5,1.8c1.7,1.1,3.5,2.1,5.1,3.4c3.3,2.4,6.2,5.3,9,8.3c2.7,3,5.3,6.3,7.3,9.8
		c1,1.8,2,3.6,2.7,5.5c0.4,1,0.7,1.9,1,2.9c0.3,1,0.6,2,0.8,3c0.2,1,0.4,2,0.6,3l0.2,1.5c0.1,0.5,0.2,1,0.3,1.5
		c0.5,2,1.1,3.9,1.7,5.9c1.3,3.9,2.6,7.7,4,11.6c2.8,7.7,5.7,15.3,8.9,22.8c3.3,7.5,8.1,14.1,13.2,20.5c5.1,6.4,10.6,12.4,16.3,18.3
		l4.3,4.3c1.4,1.4,2.9,2.8,4.4,4.2c2.9,2.8,6,5.5,9,8.3c3,2.7,6.2,5.3,9.3,8c3.2,2.6,6.3,5.2,9.5,7.7c3.2,2.5,6.5,5,9.7,7.4
		c3.3,2.4,6.6,4.8,9.9,7.2c3.4,2.3,6.7,4.6,10.1,6.9l10.3,6.7l-0.1,0l188.5,0.4l-0.3,0.2c1.2-2.7,2.3-5.4,3.5-8
		c1.2-2.6,2.5-5.2,3.9-7.8c0.7-1.3,1.4-2.6,2.1-3.8l0.6-1l0.6-0.9l1.2-1.8c0.9-1.2,1.9-2.3,2.8-3.4c0.9-1.1,2-2.2,2.9-3.2
		c1-1.1,2-2.1,3-3.2l3.1-3.1c2.1-2,4.2-4.1,6.3-6.1c4.2-4,8.5-7.9,12.8-11.9c8.6-7.8,17.2-15.6,25.9-23.3
		c8.6-7.8,17.3-15.5,25.6-23.6c4.2-4,8.3-8.1,12.4-12.2c4.1-4.1,8.2-8.2,11.8-12.7c1.8-2.2,3.5-4.6,4.9-7.1c1.4-2.5,2.4-5.2,3.4-7.9
		c0.4-1.4,0.8-2.8,1.1-4.2l0.8-4.2c0.2-1.4,0.4-2.9,0.6-4.3l0.3-2.1l0.1-2.2c0.8-11.5,0.3-23.2-0.6-34.7
		c-1.1-11.5-2.6-23.1-4.5-34.5c-0.9-5.7-1.8-11.5-3-17.2l-1.6-8.6l-0.8-4.3l-0.9-4.3l-3.6-17l-3.9-17c-1.3-5.7-2.7-11.3-4.1-16.9
		c-1.5-5.6-2.6-11.3-3.8-17c-2.3-11.4-4.2-22.9-5.5-34.4c-0.7-5.8-1.2-11.6-1.7-17.3c-0.5-5.8-0.9-11.6-1.8-17.3
		c-0.9-5.7-3-11.2-6.3-15.9c-3.4-4.7-7.7-8.6-12.5-11.7c-4.9-3.1-10.3-5.3-15.8-6.9c-5.5-1.6-11.2-2.7-17-3.6
		c-5.7-0.8-11.5-1.4-17.3-1.9c-2.9-0.3-5.8-0.4-8.7-0.6l-4.3-0.1c-1.4,0-2.9,0.1-4.3,0.1c-1.4,0.1-2.9,0.2-4.3,0.3
		c-1.4,0.1-2.9,0.4-4.3,0.6c-1.4,0.3-2.8,0.5-4.3,0.8c-1.4,0.3-2.8,0.6-4.2,1c-5.6,1.4-11.2,2.9-16.9,4.1
		c-11.4,2.3-23.1,3.2-34.7,3.2c-2.9,0-5.8-0.1-8.7-0.3l-4.3-0.4c-1.4-0.1-2.9-0.3-4.3-0.5c-5.8-0.7-11.5-1.8-17.2-2.9
		c-11.4-2.2-22.9-3.8-34.5-4.5c-11.6-0.8-23.2-1-34.8-1.2c-5.8-0.1-11.6-0.1-17.4,0c-5.8,0.2-11.6,0.6-17.3,1.8
		c-2.8,0.7-5.6,1.5-8.1,3c-2.5,1.4-4.7,3.4-6.5,5.6c-1.9,2.2-3.4,4.7-4.7,7.2c-1.3,2.6-2.3,5.3-3.1,8.1c-1.6,5.6-2.6,11.3-3.4,17
		c-0.8,5.7-1.6,11.5-2.7,17.2c-1.1,5.7-2.4,11.4-4.5,16.8c-2,5.5-4.8,10.6-8.3,15.3c-3.5,4.7-8,8.5-12.1,12.5l-12.6,12l-12.7,11.9
		c-2.1,2-4.3,3.9-6.4,5.9c-1,1-2.1,2-3,3.1c-0.9,1.1-1.7,2.3-2.4,3.6c-2.9,5-4.6,10.7-5.2,16.5c-0.6,5.8-0.3,11.6,0.4,17.4
		c0.3,2.9,0.8,5.7,1.1,8.6c0.1,1.4,0.2,2.9-0.1,4.4c-0.2,0.7-0.6,1.4-1.3,1.7c-0.7,0.4-1.5,0.2-2.2-0.1c-1.3-0.7-2.3-1.7-3.3-2.8
		c-1-1.1-1.9-2.2-2.8-3.3c-1.8-2.3-3.5-4.6-5.2-7c-6.8-9.4-13.4-18.9-20.2-28.4c-3.4-4.7-6.8-9.4-10.3-14.1
		c-3.5-4.6-7.2-9.2-11.4-13.1c-2.1-2-4.5-3.7-7.2-4.8c-2.7-1.2-5.6-1.6-8.5-1.4C135.2,234.3,129.5,236.8,125.5,241z M125.5,241
		c4-4.2,9.7-6.7,15.5-7c2.9-0.1,5.8,0.3,8.5,1.4c2.7,1.1,5.1,2.9,7.2,4.8c4.3,3.9,7.9,8.5,11.5,13.1c3.5,4.6,6.9,9.3,10.3,14
		c6.8,9.4,13.4,18.9,20.2,28.4c1.7,2.3,3.4,4.7,5.2,7c0.9,1.1,1.8,2.3,2.8,3.3c1,1,2,2.1,3.3,2.8c0.6,0.3,1.4,0.5,2,0.1
		c0.6-0.3,1-1,1.2-1.6c0.3-1.4,0.2-2.9,0.1-4.3c-0.3-2.9-0.7-5.8-1.1-8.6c-0.7-5.8-1.1-11.6-0.5-17.4c0.6-5.8,2.3-11.5,5.2-16.5
		c0.7-1.3,1.5-2.5,2.4-3.6c0.9-1.1,2-2.1,3-3.1c2.1-2,4.2-4,6.4-6l12.7-11.9l12.6-12c4.1-4.1,8.6-7.8,12.1-12.5
		c3.5-4.6,6.3-9.8,8.3-15.2c2.1-5.4,3.4-11.1,4.5-16.8c1.1-5.7,1.8-11.5,2.6-17.2c0.8-5.7,1.8-11.5,3.4-17.1
		c0.8-2.8,1.8-5.5,3.1-8.2c1.3-2.6,2.8-5.1,4.7-7.3c1.9-2.2,4.1-4.3,6.6-5.7c2.6-1.4,5.4-2.3,8.2-3c5.7-1.3,11.5-1.7,17.3-1.9
		c5.8-0.2,11.6-0.2,17.4-0.1c11.6,0.3,23.2,0.4,34.8,1.2c11.6,0.7,23.1,2.3,34.6,4.5c5.7,1.1,11.4,2.2,17.2,2.9
		c1.4,0.2,2.9,0.4,4.3,0.5l4.3,0.3c2.9,0.1,5.8,0.3,8.7,0.2c11.6,0,23.2-0.9,34.6-3.2c5.7-1.1,11.3-2.7,16.9-4.1
		c1.4-0.4,2.8-0.7,4.3-1c1.4-0.3,2.9-0.6,4.3-0.8c1.4-0.2,2.9-0.4,4.3-0.6c1.5-0.1,2.9-0.3,4.4-0.3c1.5,0,2.9-0.1,4.4-0.1l4.4,0.1
		c2.9,0.2,5.8,0.3,8.7,0.6c5.8,0.5,11.6,1,17.3,1.8c5.8,0.8,11.5,1.9,17.1,3.6c5.6,1.7,11,3.9,16,7c5,3.1,9.4,7.1,12.8,11.9l1.3,1.8
		l1.1,1.9c0.8,1.3,1.3,2.6,1.9,4c0.3,0.7,0.5,1.4,0.7,2.1l0.6,2.1c0.3,1.4,0.7,2.9,0.9,4.3c1,5.8,1.4,11.6,1.9,17.3
		c0.5,5.8,1,11.6,1.7,17.3c1.3,11.5,3.2,23,5.5,34.3c1.2,5.7,2.3,11.4,3.8,17c1.4,5.6,2.8,11.3,4.1,16.9l3.9,17l3.6,17l0.9,4.3
		l0.8,4.3l1.6,8.6c1.1,5.7,2,11.4,3,17.2c1.9,11.5,3.3,23,4.5,34.6c0.9,11.6,1.5,23.2,0.6,34.9l-0.1,2.2l-0.3,2.2
		c-0.2,1.4-0.3,2.9-0.6,4.3l-0.8,4.3c-0.3,1.4-0.8,2.8-1.1,4.2c-0.9,2.8-2,5.5-3.4,8.1c-1.4,2.6-3.1,5-5,7.2
		c-3.7,4.5-7.8,8.6-11.9,12.7c-4.1,4.1-8.2,8.2-12.4,12.2c-8.4,8-17,15.8-25.7,23.6c-8.6,7.8-17.3,15.5-25.9,23.3
		c-4.3,3.9-8.6,7.8-12.8,11.8c-2.1,2-4.2,4-6.3,6l-3.1,3.1c-1,1-2,2.1-3,3.1c-1,1.1-2,2.1-2.9,3.2c-0.9,1.1-1.9,2.2-2.7,3.3
		l-1.2,1.8l-0.6,0.9l-0.5,0.9c-0.7,1.3-1.4,2.5-2.1,3.8c-1.4,2.6-2.7,5.1-3.9,7.8c-1.2,2.6-2.3,5.1-3.5,7.8l-0.1,0H508H319.5h-0.1
		l-0.1-0.2l-10.3-6.7c-3.4-2.3-6.7-4.7-10.1-7c-3.3-2.4-6.6-4.8-9.9-7.2c-3.3-2.4-6.5-5-9.7-7.5c-3.2-2.6-6.4-5.1-9.5-7.7
		c-3.1-2.7-6.2-5.3-9.3-8c-3-2.7-6.1-5.4-9-8.3c-1.5-1.4-3-2.8-4.4-4.2l-4.3-4.4c-5.7-5.9-11.2-11.9-16.3-18.3
		c-5-6.4-9.9-13.1-13.2-20.6c-3.3-7.5-6.1-15.1-8.9-22.8c-1.4-3.8-2.7-7.7-4-11.6c-0.6-2-1.2-3.9-1.7-5.9c-0.1-0.5-0.2-1-0.3-1.5
		l-0.2-1.5c-0.2-1-0.4-2-0.6-3c-1.7-8-6.4-15.1-11.8-21.1c-2.8-3-5.7-5.9-9-8.3c-1.6-1.2-3.4-2.3-5.1-3.4c-0.9-0.5-1.7-1.1-2.5-1.8
		c-0.8-0.7-1.4-1.5-2-2.3c-1.2-1.7-2.1-3.5-2.7-5.5c-0.6-2-0.7-4-0.9-6.1c-0.3-4.1-1.3-8.1-2.9-11.8c-1.6-3.7-3.9-7.2-6.6-10.2
		c-1.3-1.5-2.7-3-4.1-4.5c-1.4-1.5-2.7-3.1-4-4.7c-5.1-6.4-9.4-13.4-12.8-20.8c-3.5-7.4-6.3-15.1-8.4-23c-1.1-3.9-2-7.9-2.7-11.9
		c-0.7-4-1.3-8.1-1.8-12.1c-0.4-4.1-0.6-8.2,0.1-12.2c0.4-2,0.9-4,1.7-5.9C123,244.2,124.1,242.5,125.5,241z"/>
</g>
<g>
	<path fill="#754C24" d="M380.7,384.7c0,0-0.7,1.2-2,3.3c-1.3,2-3.2,5-5.6,8.5c-2.3,3.5-5.1,7.5-8.2,11.8c-1.5,2.1-3.1,4.3-4.8,6.5
		c-1.6,2.2-3.5,4.4-5.8,6.3c-2.2,1.8-4.8,3.4-7.3,4.5c-2.5,1.1-5,2.1-7.4,3.2c-2.4,1.1-4.7,2.1-6.7,3.3c-2,1.2-3.7,2.6-4.8,4.3
		c-1.1,1.6-1.6,3.5-1.8,5.1c-0.2,1.6-0.1,3.1,0,4.3c0.2,1.2,0.3,2.1,0.5,2.8c0.1,0.6,0.2,1,0.2,1s-0.1-0.3-0.3-1
		c-0.2-0.6-0.5-1.5-0.7-2.8c-0.2-1.2-0.5-2.7-0.4-4.5c0.1-1.7,0.5-3.8,1.6-5.7c0.6-0.9,1.3-1.9,2.1-2.7c0.9-0.8,1.8-1.5,2.8-2.2
		c2.1-1.4,4.3-2.5,6.7-3.6c2.4-1.1,4.9-2.2,7.4-3.3c2.5-1.1,4.7-2.5,6.8-4.2c2.1-1.7,3.8-3.7,5.5-5.9c1.7-2.2,3.3-4.3,4.9-6.4
		c3.2-4.2,6.1-8,8.7-11.4c2.6-3.3,4.7-6.1,6.2-8C379.8,385.8,380.7,384.7,380.7,384.7z"/>
</g>
<g>
	<path fill="#754C24" d="M381.7,388.7c0,0,0,0.3-0.1,1c0,0.6-0.1,1.6-0.1,2.8c0,2.4,0.3,6,1.5,10.4c0.7,2.2,1.5,4.6,2.7,7
		c1.2,2.4,3,4.9,5.7,6.5c1.3,0.8,2.9,1.3,4.5,1.5c1.6,0.2,3.4,0.2,5.2,0.2c3.5-0.1,7.3-0.3,11.2,0c1.9,0.1,4,0.4,6,0.9
		c2,0.5,4,1.2,5.9,2c1.9,0.9,3.8,1.8,5.8,2.6c2,0.8,4.1,1.5,6.2,2c8.7,2,18.2,2.7,27.8,1.5c2.4-0.3,4.8-0.7,7.2-1.2
		c2.4-0.5,4.8-1.2,7.1-2.1c2.3-0.9,4.6-2,7.1-2.8c2.4-0.8,5-1.3,7.6-1.6c2.5-0.3,5.2-0.5,7.8-0.4c2.6,0.1,5.2,0.4,7.8,0.6
		c5.1,0.5,10-2.1,13.6-5.6c3.7-3.5,6.3-8.3,6.6-13.4c0.2-2.5-0.4-5-1.4-7.4c-1-2.3-2.4-4.5-3.8-6.6c-1.5-2.1-3-4.1-4.5-6.2
		c-1.5-2-3.1-4-4.8-5.8c-1.7-1.9-3.5-3.6-5.3-5.3c-1.8-1.7-3.6-3.4-5.2-5.3c-1.6-1.9-3-3.8-4.3-5.9c-1.3-2.1-2.3-4.3-3.1-6.5
		c-1.6-4.4-3-8.8-4.6-13c-3.1-8.4-6.5-16.1-10.2-23c-1.8-3.5-3.6-6.7-5.1-10c-1.5-3.2-2.7-6.4-3.6-9.5c-1.9-6.1-2.9-11.5-3.6-16.1
		c-0.6-4.5-0.9-8.1-1-10.5c-0.1-1.2-0.1-2.2-0.1-2.8c0-0.6,0-1,0-1s0,0.3,0,1c0,0.6,0.1,1.6,0.1,2.8c0.2,2.4,0.4,6,1.1,10.5
		c0.7,4.5,1.8,9.9,3.8,16c1,3,2.2,6.2,3.7,9.4c1.5,3.2,3.3,6.5,5.2,9.9c3.7,6.9,7.1,14.7,10.3,23.1c1.6,4.2,3,8.6,4.6,13
		c0.8,2.2,1.8,4.3,3,6.4c1.2,2,2.7,4,4.3,5.8c1.6,1.8,3.3,3.5,5.2,5.2c1.8,1.7,3.6,3.4,5.3,5.3c1.7,1.9,3.3,3.9,4.8,5.9
		c1.5,2,3.1,4.1,4.6,6.2c1.5,2.1,2.9,4.3,3.9,6.7c1.1,2.4,1.6,5.1,1.5,7.8c-0.3,5.4-3,10.4-6.8,14c-1,0.9-2,1.8-3.1,2.5
		c-0.5,0.4-1.1,0.7-1.7,1.1c-0.6,0.3-1.1,0.6-1.8,0.9c-1.2,0.6-2.5,1-3.8,1.2c-1.3,0.2-2.7,0.2-4,0.2c-2.6-0.2-5.2-0.6-7.7-0.6
		c-2.6-0.1-5.1,0-7.6,0.4c-2.5,0.3-5,0.8-7.4,1.5c-2.4,0.7-4.7,1.9-7,2.8c-2.4,0.9-4.8,1.6-7.2,2.1c-2.4,0.5-4.9,0.9-7.3,1.2
		c-9.8,1.1-19.3,0.4-28.1-1.7c-2.2-0.5-4.3-1.3-6.3-2.1c-2-0.8-3.9-1.8-5.9-2.7c-1.9-0.9-3.8-1.6-5.8-2c-2-0.4-3.9-0.8-5.9-0.9
		c-3.9-0.4-7.6-0.1-11.2-0.1c-1.8,0-3.5,0-5.2-0.3c-1.7-0.3-3.3-0.8-4.7-1.7c-2.8-1.7-4.6-4.3-5.8-6.7c-1.2-2.5-2-4.9-2.6-7.1
		c-1.2-4.4-1.4-8-1.4-10.5c0-1.2,0.1-2.2,0.1-2.8C381.6,389,381.7,388.7,381.7,388.7z"/>
</g>
<g id="eyeLibCos">
	<path opacity="0.61" fill="#CCCCCC" d="M396.2,299.8c2.7,1.1,5.4-0.1,5.8-0.3c4.6-2.1,5.7-8.2,5.8-9.2c1.7-9.8-6.9-21.1-16.8-26.2
		c-1.9-0.9-4.6-2.1-16.3-3.5c-19.4-2.3-29.1-3.5-38.8-0.5c-10.5,3.2-8.9,7-23.3,15.5c-23.2,13.6-44.3,13.6-44.2,19.5
		c0,2.3,3.2,5.3,6.2,6.5c1.9,0.8,3.6,0.7,4.5,0.7c12.1-0.4,15.9,3.6,23.3,0.7c2.4-1,4-2.3,7.3-5c6.1-5,7.4-8.4,10.5-11.5
		c6.3-6.4,15.4-6.9,27.3-7.5c6.4-0.3,14-0.7,23.2,2.5c4.5,1.6,17.5,6.1,21.3,13.8C392.4,296.2,393.6,298.8,396.2,299.8z"/>
	<path opacity="0.61" fill="#CCCCCC" d="M486.7,298c-1.3-3.4,6.9-7.1,17.7-20.3c9.1-11.2,6.2-12.2,12-17.3c11.3-10,29.1-12.3,43-7.7
		c1.8,0.6,0.6,0.3,6.3,2.7c8.9,3.6,19.2,7.8,31.7,11c11.6,3,15.2,2.6,17,6c2.3,4.5-0.9,11.1-4.3,14.7c-5.1,5.2-12.9,6.3-18.7,4.7
		c-6.4-1.8-6.4-5.7-14-10c-7-3.9-13.6-4.3-20.3-4.7c-5.2-0.3-15.1-0.7-25.7,4c-6.9,3.1-12.9,7.8-15.3,9.7c-5.8,4.6-6.5,6.2-10.3,8
		C498.2,302.1,488,301.5,486.7,298z"/>
	<g id="mouth1" opacity="0.61">
		<path fill="#FF7BAC" d="M345,446.3c9-6.5,24.5,0.1,34.7,3.3c13,4.2,31.2,3.7,67.7,2.7c20.1-0.5,41.8-1.1,56-5.3
			c9.3-2.7,19.2-3.5,28.3-6.7c0.3-0.1,1.9-0.7,4-0.7c4.2,0,9.2,2.1,9.3,4.3c0.2,2.2-4.7,3.1-12.3,7.3c-11.7,6.4-19.1,14.5-22,17.7
			c-3.9,4.3-2.8,4-8,10c-6.6,7.6-10.8,12.3-17,14.7c-5.9,2.3-11.2,1.4-14.3,1c-32.8-4.4-44,7.9-66.7-2c-13.4-5.9-24.3-16-24.3-16
			c-8.5-7.9-9.3-11.9-16.3-14.3c-11.8-4.1-19.3-5.7-19.3-5.7c-1.7-0.4-4.4-0.9-5-2.7C338.7,451,344.6,446.6,345,446.3z"/>
		<path fill="#736357" d="M345,446.3c1.9-1.3,4-2.1,6.3-2.5c2.2-0.4,4.5-0.3,6.8-0.1c4.5,0.5,8.9,1.7,13.3,3.1c4.3,1.4,8.6,3,13,4
			c4.4,1,9,1.4,13.5,1.7c4.5,0.3,9.1,0.3,13.6,0.3c4.5,0,9.1-0.1,13.6-0.2c9.1-0.2,18.2-0.6,27.3-0.9c9.1-0.3,18.2-0.7,27.2-1.5
			c4.5-0.4,9-0.9,13.5-1.7c2.2-0.4,4.4-0.8,6.6-1.4c2.2-0.5,4.3-1.2,6.6-1.8c4.5-1.1,8.9-1.9,13.4-2.8c2.2-0.5,4.4-0.9,6.6-1.5
			c1.1-0.3,2.2-0.6,3.2-0.9l1.6-0.5c0.5-0.2,1.2-0.4,1.7-0.5c1.2-0.3,2.4-0.4,3.6-0.3c1.3,0.1,2.4,0.3,3.6,0.6
			c1.2,0.3,2.3,0.8,3.4,1.4c0.5,0.3,1.1,0.7,1.6,1.2c0.2,0.2,0.5,0.5,0.7,0.9c0.1,0.2,0.2,0.4,0.2,0.6l0.1,0.3l0,0.2
			c0-0.1,0,0.3,0,0.3l0,0.2c0,0.1,0,0.1,0,0.3c-0.1,0.2-0.2,0.6-0.3,0.7c-0.2,0.4-0.5,0.6-0.8,0.9c-0.5,0.4-1.1,0.8-1.6,1
			c-1.1,0.6-2.1,1-3.1,1.5c-2.1,0.9-4.1,1.9-6.1,3c-7.9,4.3-15.1,9.8-21.2,16.4c-1.5,1.7-3.1,3.3-4.3,5.1c-1.3,1.9-2.8,3.7-4.2,5.4
			c-3,3.4-6,6.9-9.3,10.1c-1.7,1.6-3.6,3-5.6,4.2c-1,0.6-2.1,1.1-3.2,1.5c-1.1,0.4-2.2,0.8-3.4,1c-2.3,0.5-4.7,0.6-7,0.5
			c-1.2-0.1-2.3-0.2-3.5-0.4c-0.6-0.1-1.1-0.2-1.7-0.2l-1.7-0.2l-3.4-0.4l-3.4-0.2c-2.2-0.2-4.5-0.1-6.8-0.2
			c-4.5,0.1-9,0.4-13.5,0.9c-4.5,0.5-9,1.2-13.6,1.6c-4.6,0.4-9.2,0.2-13.7-0.7c-4.5-0.9-8.8-2.5-12.9-4.6c-4.1-2.1-8-4.4-11.7-7.1
			c-3.7-2.6-7.3-5.5-10.6-8.6c-1.6-1.6-3.2-3.2-4.7-4.9c-1.5-1.7-3-3.5-4.6-5c-0.8-0.8-1.7-1.5-2.7-2c-1-0.6-2-1-3.1-1.4
			c-2.1-0.8-4.3-1.5-6.5-2.2c-4.3-1.4-8.7-2.6-13.1-3.7l0,0c-1.3-0.3-2.6-0.5-3.7-1.2c-0.6-0.3-1.1-0.8-1.3-1.5
			c-0.1-0.3-0.1-0.6-0.1-1c0-0.2,0-0.3,0.1-0.5c0-0.2,0.1-0.3,0.1-0.5c0.1-0.3,0.3-0.6,0.4-0.9c0.2-0.3,0.4-0.5,0.5-0.8
			c0.4-0.5,0.8-1,1.3-1.5C343,448,343.9,447.1,345,446.3z M345,446.3c-1,0.8-2,1.6-2.9,2.6c-0.5,0.5-0.9,1-1.3,1.5
			c-0.2,0.3-0.4,0.5-0.5,0.8c-0.2,0.3-0.3,0.6-0.4,0.9c-0.1,0.1-0.1,0.3-0.1,0.5c0,0.2-0.1,0.3-0.1,0.5c0,0.3,0,0.6,0.1,1
			c0.2,0.6,0.7,1.1,1.3,1.4c1.1,0.7,2.4,0.9,3.7,1.2l0,0c4.4,1,8.8,2.3,13.2,3.6c2.2,0.7,4.3,1.4,6.5,2.1c1.1,0.4,2.1,0.9,3.1,1.4
			c1,0.6,1.9,1.3,2.7,2.1c1.7,1.6,3.1,3.3,4.7,5c1.5,1.7,3.1,3.3,4.7,4.9c3.3,3.1,6.9,5.9,10.7,8.4c3.7,2.6,7.7,4.9,11.7,6.9
			c4.1,2,8.4,3.5,12.8,4.4c4.4,0.9,9,0.9,13.5,0.5c4.5-0.4,9-1.2,13.5-1.8c4.5-0.6,9.1-1,13.7-1.1c2.3,0,4.6-0.1,6.9,0.1l3.4,0.2
			l3.4,0.3l1.7,0.2c0.6,0,1.2,0.1,1.7,0.2c1.1,0.1,2.2,0.3,3.3,0.3c2.2,0.1,4.4-0.1,6.6-0.5c1.1-0.2,2.1-0.6,3.1-1
			c1-0.4,2-0.9,3-1.4c1.9-1.1,3.6-2.5,5.3-4c3.2-3.1,6.2-6.6,9.1-10c1.5-1.7,2.8-3.4,4.1-5.3c1.4-1.9,2.9-3.6,4.5-5.3
			c6.2-6.7,13.6-12.5,21.7-16.8c2-1.1,4.1-2,6.2-3c1-0.5,2.1-0.9,3-1.4c0.5-0.2,0.9-0.5,1.3-0.8c0.1-0.1,0.3-0.3,0.4-0.4
			c0.1-0.1,0,0,0,0c0,0,0-0.1,0-0.1l0-0.2c0-0.1,0,0.2,0,0.1l0,0c0,0,0-0.1,0-0.1c0-0.1-0.1-0.1-0.1-0.2c-0.1-0.2-0.2-0.3-0.4-0.5
			c-0.3-0.3-0.7-0.6-1.2-0.9c-0.9-0.5-1.9-0.9-2.9-1.2c-1-0.3-2.1-0.5-3.1-0.5c-1.1-0.1-2.1,0-3.2,0.2c-0.5,0.1-1,0.2-1.5,0.4
			l-1.6,0.5c-1.1,0.3-2.2,0.6-3.3,0.9c-2.2,0.6-4.5,1-6.7,1.5c-4.5,0.9-8.9,1.7-13.3,2.7c-2.2,0.5-4.4,1.2-6.6,1.7
			c-2.2,0.5-4.5,0.9-6.7,1.3c-4.5,0.7-9.1,1.2-13.6,1.5c-9.1,0.7-18.2,1-27.3,1.2c-9.1,0.2-18.2,0.4-27.3,0.5
			c-9.1,0.1-18.2,0.2-27.3-0.4c-4.5-0.3-9.1-0.8-13.5-1.8c-4.5-1-8.7-2.7-13-4.1c-4.3-1.4-8.7-2.7-13.2-3.2
			c-2.3-0.2-4.5-0.3-6.8,0.1C349,444.2,346.9,445,345,446.3z"/>
	</g>
</g>
<g>
	<path fill="#603813" d="M522,382l3.6,2.6l3.6,2.7l7.1,5.4l0.1,0.1l0,0.1c1,3.6,2.4,7.1,4.4,10.2c0.5,0.8,1,1.6,1.6,2.3
		c0.5,0.8,1.1,1.5,1.7,2.2c0.6,0.7,1.3,1.4,1.9,2.1c0.7,0.6,1.3,1.3,2,1.9c0.7,0.6,1.4,1.2,2.2,1.8l1.1,0.8l1.2,0.8
		c0.8,0.5,1.6,1,2.4,1.5c0.8,0.4,1.6,0.9,2.5,1.3c0.8,0.4,1.7,0.8,2.6,1.1c0.9,0.3,1.8,0.7,2.6,1c1.8,0.6,3.6,1.1,5.5,1.4
		c-1.9-0.2-3.7-0.6-5.6-1.1c-0.9-0.2-1.8-0.5-2.7-0.8c-0.9-0.3-1.8-0.7-2.7-1c-0.9-0.4-1.7-0.8-2.6-1.2c-0.8-0.5-1.7-0.9-2.5-1.4
		l-1.2-0.8l-1.2-0.8c-0.8-0.5-1.5-1.2-2.2-1.8c-0.7-0.6-1.4-1.3-2.1-2c-0.6-0.7-1.3-1.3-1.9-2.1c-0.6-0.7-1.2-1.5-1.8-2.3
		c-0.6-0.8-1.1-1.6-1.6-2.4c-2-3.3-3.4-6.8-4.4-10.5l0.1,0.2l-6.9-5.6l-3.4-2.8L522,382z"/>
</g>
<g>
	<path fill="#42210B" d="M624.3,369.7c0.4,5.3,0.4,10.6-0.1,15.9c-0.5,5.3-1.5,10.5-3,15.7c-0.7,2.6-1.6,5.1-2.6,7.6
		c-1,2.5-2.2,4.9-3.6,7.2c-2.6,4.7-5.7,9-9,13.2c-3.3,4.2-6.7,8.3-10.4,12.2c-1.8,2-3.7,3.8-5.5,5.7c-1.9,1.9-3.8,3.7-5.8,5.5
		c-4,3.6-8.2,6.9-12.5,10c-4.4,3.1-8.7,5.9-12.8,9.2c-4,3.3-7.8,6.9-11.3,10.8c-3.6,3.9-6.8,7.9-10,12.1
		c-6.3,8.4-12.3,17.1-18.4,25.8c-3.1,4.3-6,8.7-9.3,12.9c-3.3,4.2-6.8,8.2-10.9,11.8c-2,1.7-4.1,3.4-6.4,4.8c-0.6,0.4-1.1,0.7-1.7,1
		c-0.6,0.3-1.1,0.7-1.8,1c-1.2,0.6-2.4,1.2-3.6,1.7c-2.4,1.1-5,2-7.5,2.8c-2.6,0.8-5.1,1.4-7.8,1.9l0.1,0c-3.7,0.6-7.4,0.8-11.1,0.7
		c3.7-0.1,7.4-0.5,10.9-1.3l0.1,0c5-1.2,10.1-3,14.8-5.2c4.7-2.3,9-5.3,12.9-8.8c3.9-3.5,7.2-7.5,10.4-11.8c3.1-4.2,6-8.7,8.9-13
		l8.9-13.1c3-4.4,6-8.7,9.2-13c3.2-4.3,6.5-8.5,10.1-12.4c3.6-4,7.4-7.7,11.6-11.1c4.2-3.4,8.7-6.3,13-9.3c4.3-3,8.4-6.2,12.4-9.7
		c2-1.7,3.9-3.5,5.8-5.3c1.9-1.9,3.8-3.7,5.6-5.6c3.6-3.8,7.2-7.7,10.5-11.8c3.3-4.1,6.4-8.3,9.1-12.8c1.4-2.2,2.6-4.5,3.6-6.9
		c1-2.4,2-4.9,2.8-7.3c1.7-5,2.9-10.1,3.6-15.3C624.2,380.2,624.4,375,624.3,369.7z"/>
</g>
<path fill="none" stroke="#000000" stroke-miterlimit="10" d="M297.3,458.7c4.5,10.2,10,16.1,14.3,19.7c4.3,3.5,7.8,5.1,11.7,10.3
	c3.6,4.9,4.3,8.7,6,13.3c2.1,5.6,6.1,13.3,14.3,21.7"/>
<g>
	<path fill="#534741" d="M321,201.3c0,0,0.9-0.2,2.5-0.6c1.7-0.4,4.1-0.9,7.2-1.4c3.1-0.5,7-1.1,11.4-1.5c4.4-0.5,9.4-0.8,14.9-0.9
		c2.8,0,5.6,0,8.6,0.1c3,0.1,6,0.4,9.1,0.6c1.5,0.1,3.1,0.2,4.7,0.3c0.8,0,1.5,0,2.3,0.1c0.8,0,1.6,0,2.4,0c1.7,0,3.3,0,4.9-0.1
		c1.6,0,3.3-0.2,4.9-0.3c3.3-0.4,6.6-0.9,9.9-1.7c3.3-0.8,6.7-1.8,10.1-2.8c3.4-1,7-1.9,10.6-2.7c3.6-0.8,7.2-1.4,10.9-1.9l2.8-0.3
		l2.7-0.2c1.8-0.1,3.7-0.3,5.6-0.3c3.7-0.1,7.5,0.1,11.1,0.6c3.6,0.4,7.1,1,10.5,1.4c3.4,0.4,6.8,0.8,10.2,1.1
		c6.7,0.6,13.2,1,19.4,1.3c6.2,0.2,12.1,0.4,17.5,0.4c10.8,0,19.9-0.3,26.2-0.6c3.2-0.2,5.7-0.3,7.4-0.4c1.7-0.1,2.6-0.1,2.6-0.1
		s-0.9,0.1-2.6,0.4c-1.7,0.3-4.1,0.7-7.3,1.1c-3.1,0.4-7,0.9-11.4,1.3c-4.4,0.4-9.4,0.9-14.8,1.1c-5.4,0.3-11.4,0.5-17.6,0.5
		c-6.3,0-12.9-0.1-19.7-0.6c-6.8-0.4-13.9-1.3-20.9-2.1c-6.9-0.8-13.8-0.5-21,0.4c-7.1,0.8-14,2.3-20.8,4.3
		c-3.4,0.9-6.9,1.9-10.4,2.6c-3.5,0.7-7,1.3-10.5,1.6c-1.7,0.1-3.5,0.2-5.2,0.2c-0.9,0-1.7,0-2.6,0c-0.9,0-1.7-0.1-2.5-0.1
		c-0.8,0-1.6-0.1-2.4-0.1c-0.9-0.1-1.7-0.1-2.5-0.2c-1.6-0.1-3.2-0.3-4.8-0.5c-6.2-0.7-12-1.4-17.3-1.6c-5.4-0.2-10.4-0.2-14.7-0.1
		c-4.4,0.1-8.2,0.4-11.4,0.6c-3.2,0.3-5.6,0.5-7.3,0.7C321.9,201.2,321,201.3,321,201.3z"/>
</g>
<g>
	<path fill="#C7B299" d="M212,373c0,0,0.7,3.3,2.2,8.9c1.5,5.6,3.9,13.6,7.4,22.9c0.9,2.3,1.9,4.7,2.9,7.2c1.1,2.5,2.1,5,3.3,7.6
		c2.4,5.2,5.2,10.5,8.2,15.9c3,5.4,6.5,10.8,10.1,16.2c3.7,5.4,7.6,10.7,11.8,15.8c4.1,5.2,8.4,10.3,12.7,15.2
		c4.3,4.9,8.7,9.6,13,14c4.4,4.4,8.7,8.5,13,12.4c2.1,1.9,4.2,3.7,6.2,5.5c1,0.9,2,1.7,3,2.6c1,0.8,2,1.6,2.9,2.4
		c3.9,3.2,7.5,6,10.7,8.4c3.2,2.4,6.1,4.5,8.5,6.2c2.4,1.7,4.2,3,5.5,3.9c1.3,0.9,2,1.4,2,1.4s-0.7-0.4-2.1-1.2
		c-1.4-0.8-3.4-1.9-5.9-3.4c-2.5-1.5-5.5-3.4-8.9-5.6c-1.7-1.1-3.5-2.4-5.4-3.6c-1.9-1.3-3.8-2.7-5.8-4.2c-4.1-3-8.3-6.4-12.7-10
		c-4.4-3.7-8.9-7.8-13.5-12.1c-4.5-4.4-9.1-9-13.5-14c-4.4-4.9-8.7-10.1-12.9-15.3c-4.2-5.3-8.2-10.7-11.8-16.2
		c-3.7-5.5-7-11.1-10-16.6c-3-5.6-5.6-11.1-7.8-16.4c-0.6-1.3-1.1-2.7-1.6-4c-0.5-1.3-1-2.6-1.5-3.9c-0.9-2.6-1.8-5-2.6-7.4
		c-3.1-9.6-4.9-17.8-6-23.5c-0.6-2.9-0.9-5.1-1.1-6.7C212.1,373.8,212,373,212,373z"/>
</g>
<g>
	<path fill="#736357" d="M148,252c0,0-0.3,0.5-0.8,1.5c-0.5,1-1.1,2.5-1.9,4.4c-0.8,1.9-1.6,4.3-2.3,7c-0.7,2.8-1.3,5.9-1.6,9.4
		c-0.3,3.5-0.4,7.3-0.1,11.2c0.3,4,1,8.1,2.1,12.3c0.5,2.1,1.3,4.2,2.1,6.2c0.4,1,0.9,2.1,1.3,3c0.5,1,1,2.1,1.6,3.1
		c2.2,3.9,4.8,7.8,7.7,11.4c2.8,3.7,6,7.1,9.2,10.4c3.3,3.2,6.5,6.4,9.9,9.2c0.8,0.7,1.7,1.4,2.5,2.1c0.8,0.7,1.7,1.3,2.5,1.9
		c1.7,1.3,3.4,2.5,5,3.9c1.6,1.4,3.1,2.9,4,4.9c0.2,0.5,0.4,1,0.5,1.5c0.1,0.3,0.1,0.5,0.1,0.8l0,0.4l0,0.2l0,0.1l0,0
		c0,0,0,0.2,0,0.1c0,0.5-0.1,0.9-0.1,1.4c-0.1,0.5-0.2,1-0.4,1.5c-0.7,1.8-1.8,3.3-3,4.5c-1.2,1.2-2.4,2.2-3.6,3
		c-2.4,1.7-4.6,2.9-6.4,3.9c-1.8,1-3.3,1.6-4.4,2c-1,0.4-1.6,0.7-1.6,0.7s0.5-0.3,1.5-0.8c1-0.5,2.4-1.3,4.1-2.4
		c1.8-1.1,3.9-2.4,6-4.2c1.1-0.9,2.2-1.9,3.2-3.1c1-1.2,1.9-2.5,2.4-4.1c0.1-0.4,0.2-0.7,0.2-1.1c0-0.4,0-0.9,0.1-1.3
		c0-0.1,0,0.1,0,0l0,0l0-0.1l0-0.1l0-0.3c0-0.2-0.1-0.4-0.1-0.6c-0.1-0.4-0.3-0.8-0.4-1.1c-0.7-1.5-2.1-2.8-3.6-4
		c-1.5-1.2-3.2-2.4-5-3.6c-1.8-1.2-3.6-2.6-5.3-3.9c-3.5-2.8-7-5.8-10.3-9.1c-3.3-3.3-6.6-6.8-9.5-10.6c-2.9-3.8-5.6-7.8-7.9-12
		c-0.5-1-1-2.1-1.5-3.1c-0.5-1.2-0.9-2.2-1.4-3.3c-0.8-2.2-1.5-4.4-2.1-6.6c-1.1-4.4-1.6-8.7-1.8-12.8c-0.2-4.1,0.1-8,0.6-11.6
		c0.5-3.5,1.3-6.8,2.2-9.5c0.9-2.8,1.9-5.1,2.8-6.9c0.9-1.9,1.7-3.3,2.3-4.2C147.7,252.5,148,252,148,252z"/>
</g>
<g>
	<path fill="#42210B" d="M589.5,297c0,0,0.2,0,0.7,0c0.4,0,1.1,0,1.9,0c1.7,0.1,4.1,0.3,6.9,0.9c1.4,0.3,2.9,0.7,4.5,1.3
		c1.6,0.5,3.2,1.2,4.9,2c0.9,0.5,1.6,0.9,2.4,1.3c0.4,0.2,0.8,0.4,1.2,0.7c0.4,0.3,0.8,0.5,1.2,0.8c1.7,1.1,3.2,2.3,4.7,3.5
		c0.7,0.7,1.4,1.3,2.1,2c0.7,0.7,1.3,1.4,2,2.1c1.3,1.4,2.4,2.9,3.4,4.4c0.5,0.7,1,1.5,1.5,2.2c0.5,0.7,0.9,1.5,1.3,2.2
		c0.8,1.4,1.5,2.9,2,4.2c1.1,2.7,1.8,5,2.2,6.6c0.2,0.8,0.3,1.5,0.4,1.9c0.1,0.4,0.1,0.7,0.1,0.7s-0.4-0.9-1.1-2.4
		c-0.4-0.7-0.8-1.6-1.3-2.7c-0.5-1-1.2-2.1-1.9-3.4c-0.3-0.6-0.7-1.2-1.1-1.9c-0.4-0.6-0.8-1.3-1.3-2c-0.4-0.7-0.9-1.3-1.4-2
		c-0.5-0.7-1-1.4-1.5-2c-1-1.4-2.3-2.7-3.5-4.1c-0.6-0.6-1.3-1.3-1.9-2c-0.7-0.6-1.4-1.2-2-1.9c-1.4-1.2-2.8-2.4-4.3-3.4
		c-1.4-1-3.1-2-4.5-2.9c-1.5-0.8-3-1.6-4.4-2.3c-1.5-0.6-2.9-1.2-4.2-1.7c-2.6-0.9-4.9-1.6-6.5-2C590.4,297.2,589.5,297,589.5,297z"
		/>
</g>
<g>
	<path fill="#998675" d="M297.5,308c0,0-1.4,0.7-3.9,1.9c-1.3,0.6-2.7,1.4-4.4,2.3c-0.8,0.4-1.7,1-2.7,1.5c-0.5,0.3-1,0.5-1.4,0.8
		c-0.5,0.3-1,0.6-1.5,0.9c-1,0.6-2.1,1.2-3.1,1.9c-1.1,0.7-2.2,1.4-3.3,2.2c-1.1,0.8-2.2,1.6-3.3,2.5c-1.1,0.8-2.2,1.8-3.3,2.7
		c-2.2,1.9-4.3,4-6.3,6.4c-2,2.3-3.8,4.9-5.3,7.6l-1.1,2l-1,2.1c-0.7,1.4-1.4,2.9-2.6,4.2c-0.3,0.3-0.7,0.7-1.3,0.9
		c-0.2,0-0.3,0.1-0.5,0.1l-0.3,0l-0.1,0c0.1,0-0.2,0-0.2,0l0,0l-0.3-0.1c-0.1-0.1-0.3-0.2-0.5-0.3c-0.6-0.4-0.8-0.8-1-1.2
		c-0.2-0.4-0.4-0.8-0.5-1.2c-0.5-1.6-0.8-3.1-1-4.6c-0.4-3-0.6-5.9-0.7-8.6c-0.1-2.7-0.1-5.3-0.1-7.7c0-4.8,0.2-8.7,0.3-11.5
		c0.1-2.8,0.2-4.3,0.2-4.3s0.1,1.6,0.2,4.3c0.1,2.8,0.3,6.7,0.5,11.4c0.1,2.4,0.3,4.9,0.5,7.6c0.2,2.7,0.5,5.5,1,8.4
		c0.2,1.4,0.6,2.9,1,4.2c0.1,0.3,0.3,0.6,0.4,0.9c0.1,0.1,0.2,0.2,0.2,0.4l0.1,0.1c0,0,0.1,0.1,0.1,0.1c0,0,0,0,0,0l0.3,0.1l0,0
		c0,0-0.3-0.1-0.1,0l0,0c0,0,0,0,0,0c0,0,0,0,0.1,0c0.1,0,0.3-0.2,0.6-0.4c0.9-0.9,1.6-2.4,2.2-3.7l1-2.1c0.4-0.7,0.7-1.4,1.1-2.2
		c1.6-2.8,3.5-5.5,5.5-7.9c2.1-2.4,4.4-4.5,6.7-6.4c1.2-0.9,2.3-1.9,3.5-2.7c1.2-0.9,2.3-1.6,3.5-2.4c2.3-1.5,4.5-2.8,6.7-3.9
		c1-0.6,2.1-1.1,3.1-1.5c1-0.5,1.9-0.9,2.8-1.3c1.8-0.8,3.3-1.4,4.6-1.9C296,308.5,297.5,308,297.5,308z"/>
</g>
<g id="eyebro">

		<path fill="#333333" d="M404.4,244.8c-0.3-0.1-0.7-0.2-1-0.2c-0.1,0-0.2,0.1-0.3,0.1c-10.8,2.9-21.8,4.8-32.9,5.6
			c-0.2,0.1-0.4,0.2-0.7,0.3c-6.7,0.7-13.3,0.3-20-1c-0.2,0-0.4-0.1-0.6-0.3c-5.2,1.3-8.1,5.4-13,7.9c-3.3,1.6-6.8,1.9-10.4,1.3
			c-8.6,0.6-17.1,0.1-25.6-1.3c-1.4-0.2-1.3-1.8-0.5-2.5c0.2-0.3,0.4-0.6,0.8-0.8c2.1-0.8,3.6-2.7,4.2-4.8c0.2-0.7,0.7-1,1.3-1.1
			c0.1-0.3,0.3-0.6,0.6-0.8c11.1-7.3,22.4-14.3,34-20.8c0.7-0.4,1.4-0.2,1.8,0.3c0,0,0,0,0.1,0.1c8.7,5.6,18.4,8.6,28.7,9
			c0.4-0.2,0.9-0.3,1.4,0c6.6,3.2,13.6,4.3,20.8,3.1c0.6-0.1,1,0.1,1.3,0.4c0.4-0.2,0.9-0.3,1.4-0.1c3,1.3,6.1,2.3,9.3,2.9
			C407.1,242.3,406.3,245.2,404.4,244.8z"/>
		<path fill="#534741" d="M404.4,245l-1,0h0c-0.7,0-1.4,0.2-2,0.4l-2,0.4l-4.1,0.9c-2.7,0.6-5.5,1.2-8.3,1.7c-2.8,0.5-5.5,1-8.3,1.4
			c-1.4,0.2-2.8,0.4-4.2,0.5l-4.2,0.5l0.2-0.1c-0.2,0.2-0.5,0.3-0.8,0.3l-0.7,0.1c-0.4,0.1-0.9,0.1-1.3,0.2
			c-0.9,0.1-1.8,0.2-2.7,0.2c-1.8,0.1-3.6,0.1-5.4,0.1c-1.8,0-3.6-0.1-5.4-0.3c-0.9-0.1-1.8-0.2-2.7-0.3l-1.4-0.2l-0.7-0.1
			c-0.4-0.1-0.8-0.2-1.1-0.5l1,0.2c-0.5,0.2-0.9,0.3-1.4,0.5c-0.5,0.2-0.9,0.4-1.3,0.7c-0.9,0.5-1.7,1.1-2.5,1.7
			c-1.7,1.3-3.3,2.7-5.2,4c-0.5,0.3-1,0.6-1.5,0.9c-0.3,0.1-0.5,0.3-0.8,0.4c-0.3,0.1-0.5,0.2-0.8,0.4c-0.6,0.3-1.1,0.5-1.7,0.7
			c-0.6,0.2-1.2,0.4-1.7,0.5c-2.4,0.5-4.8,0.5-7.1,0.2l0.5,0c-4.9,0.5-9.8,0.5-14.8,0.3c-2.5-0.1-4.9-0.3-7.4-0.6
			c-1.2-0.1-2.4-0.3-3.7-0.5l-0.2,0l-0.1,0l-0.3-0.1l-0.1,0l-0.1,0l-0.2-0.1c-0.2-0.1-0.5-0.2-0.7-0.3c-0.8-0.4-1.5-1.3-1.7-2.2
			c-0.2-0.9-0.1-1.6,0.1-2.3c0.2-0.7,0.6-1.3,1.2-1.8l-0.6,0.7c0.2-0.4,0.5-0.9,0.9-1.2c0.2-0.2,0.4-0.3,0.6-0.5
			c0.1-0.1,0.2-0.1,0.3-0.2l0.2-0.1c0.2-0.1,0.4-0.2,0.4-0.2c0.1,0,0.2-0.1,0.3-0.2c0.4-0.3,0.8-0.6,1.1-1c0.3-0.4,0.6-0.9,0.8-1.4
			c0-0.1,0-0.1,0.1-0.2l0.1-0.3l0.1-0.2c0.1-0.1,0.1-0.3,0.2-0.4c0.1-0.2,0.3-0.5,0.4-0.7c0.3-0.4,0.8-0.8,1.3-1.1
			c0.5-0.3,1-0.4,1.5-0.4l-2.3,1.8c0.2-0.6,0.5-1.2,0.9-1.6c0.2-0.2,0.4-0.4,0.6-0.5l0.4-0.2l1.1-0.7l2.3-1.5l4.6-2.9
			c3-1.9,6.1-3.7,9.2-5.6c3.1-1.8,6.2-3.6,9.4-5.3l4.7-2.6l2.4-1.3l0.7-0.3c0,0,0.4-0.2,0.6-0.2c0.2-0.1,0.5-0.1,0.7-0.1
			c1.1,0,2,0.5,2.5,1.2l-0.1-0.1c-0.1-0.1-0.2-0.2-0.2-0.2l0.1,0.1l0.2,0.1l0.4,0.3l0.8,0.5l1.6,1c1.1,0.6,2.1,1.2,3.2,1.8
			c1.1,0.6,2.2,1.1,3.4,1.6c1.1,0.5,2.3,0.9,3.5,1.4c1.2,0.4,2.4,0.8,3.6,1.1l1.8,0.5l1.8,0.4c1.2,0.2,2.5,0.5,3.7,0.6l1.9,0.2
			l1.9,0.2l-0.3,0.1c0.6-0.4,1.5-0.3,2,0c0.5,0.2,0.9,0.5,1.4,0.7c0.5,0.2,0.9,0.4,1.4,0.6c0.5,0.2,0.9,0.4,1.4,0.6
			c0.9,0.4,1.9,0.7,2.9,0.9c1,0.3,1.9,0.5,2.9,0.6c1,0.2,2,0.3,3,0.4c1,0.1,2,0.1,3,0.1c1,0,2-0.1,3-0.2c0.5,0,1-0.1,1.5-0.2
			c0.5-0.1,1.1,0,1.5,0.4l-0.1,0c0.3-0.2,0.7-0.2,1-0.2c0.4,0,0.6,0.2,0.9,0.4c0.6,0.3,1.2,0.5,1.8,0.8c1.2,0.5,2.5,0.9,3.8,1.2
			c0.6,0.2,1.3,0.3,1.9,0.5l1,0.2c0.3,0.1,0.7,0.1,0.9,0.4c0.3,0.2,0.4,0.5,0.4,0.9c0,0.3-0.1,0.7-0.2,1c-0.2,0.3-0.4,0.7-0.7,0.8
			C405.1,244.9,404.7,245.1,404.4,245z M404.4,245c0.3,0.1,0.7-0.1,1-0.2c0.3-0.1,0.5-0.5,0.7-0.7c0.2-0.3,0.2-0.6,0.2-1
			c0-0.3-0.2-0.7-0.4-0.9c-0.3-0.2-0.6-0.3-0.9-0.3l-1-0.2c-0.6-0.1-1.3-0.3-1.9-0.5c-1.3-0.3-2.5-0.7-3.8-1.2
			c-0.6-0.2-1.2-0.5-1.8-0.7c-0.3-0.1-0.6-0.3-0.9-0.3c-0.3,0-0.6,0-0.9,0.2l-0.1,0l-0.1-0.1c-0.4-0.3-0.8-0.4-1.3-0.3
			c-0.5,0.1-1,0.2-1.5,0.2c-1,0.1-2,0.2-3,0.3c-1,0.1-2,0.1-3.1,0c-1,0-2-0.1-3.1-0.2c-2-0.3-4-0.7-6-1.3c-0.5-0.1-1-0.3-1.5-0.5
			c-0.5-0.2-1-0.4-1.5-0.5c-0.5-0.2-0.9-0.4-1.4-0.6c-0.4-0.2-0.6-0.1-0.9,0l-0.1,0.1l-0.2,0l-1.9,0l-1.9-0.1l-1.9-0.2l-1.9-0.2
			l-1.9-0.3l-1.9-0.4c-1.3-0.3-2.5-0.6-3.8-0.9c-1.3-0.4-2.5-0.7-3.7-1.2c-1.2-0.4-2.4-0.9-3.6-1.4c-1.2-0.5-2.4-1.1-3.5-1.7
			l-1.7-0.9l-0.8-0.5l-0.4-0.2l-0.2-0.1l-0.1-0.1c-0.1-0.1-0.3-0.2-0.4-0.3l-0.1-0.1c0,0,0,0.1,0.2,0.1c0,0,0.1,0,0.1,0
			c0,0,0.2-0.1,0,0l-0.5,0.3l-2.3,1.4l-4.5,2.8l-9,5.7l-9,5.8l-4.5,2.9l-2.2,1.5L308,249l-0.1,0.1c-0.1,0-0.1,0.1-0.1,0
			c0,0,0.1,0,0.1-0.1c0.1-0.1,0.2-0.3,0.3-0.4l-2.3,1.8c0.1,0,0.2,0,0.4-0.1c0.2-0.1,0.3-0.2,0.4-0.3c0.1-0.1,0.1-0.1,0.1-0.2
			c0,0,0-0.1,0.1-0.1c0-0.1,0,0.1,0,0.1l-0.1,0.3c0,0.1-0.1,0.3-0.1,0.4c-0.4,1-0.9,1.9-1.5,2.8c-0.7,0.8-1.5,1.6-2.4,2.2
			c-0.2,0.1-0.4,0.3-0.7,0.4c-0.3,0.2-0.5,0.2-0.7,0.3l0,0l0,0l-0.1,0h0l0,0l0,0l0.1,0c0.1,0,0.1-0.1,0.2-0.1
			c0.1-0.1,0.2-0.2,0.2-0.3l-0.6,0.7c0.1-0.1,0.2-0.2,0.2-0.3c0-0.1,0.1-0.3,0-0.5c-0.1-0.3-0.3-0.7-0.6-0.8c-0.1,0-0.2-0.1-0.3-0.1
			l-0.1,0c0,0,0,0,0,0l0.1,0l0.1,0l0,0c0,0-0.3-0.1-0.2,0l0,0l0,0l0.1,0l0.2,0c1.2,0.2,2.3,0.4,3.5,0.6c2.3,0.3,4.7,0.6,7,0.8
			c4.7,0.4,9.4,0.5,14.2,0.3l0.3,0l0.2,0c1.9,0.4,3.9,0.5,5.8,0.2c0.5-0.1,0.9-0.2,1.4-0.3c0.5-0.1,0.9-0.3,1.3-0.4
			c0.2-0.1,0.5-0.2,0.7-0.3l0.6-0.3c0.4-0.2,0.9-0.5,1.3-0.7c1.8-1,3.4-2.3,5.3-3.6c0.9-0.6,1.9-1.2,3-1.7c0.5-0.3,1.1-0.5,1.6-0.7
			c0.6-0.2,1.1-0.3,1.7-0.5l0.6-0.2l0.4,0.4c0,0,0.1,0.1,0.1,0.1l0.6,0.2l1.3,0.3c0.9,0.2,1.7,0.4,2.6,0.5c1.7,0.3,3.5,0.5,5.3,0.7
			c1.8,0.1,3.5,0.2,5.3,0.2c0.9,0,1.8,0,2.7-0.1c0.4,0,0.9,0,1.3-0.1l0.6,0c0.2,0,0.3-0.1,0.4-0.2l0.1-0.1l0.1,0
			c2.8-0.1,5.6-0.3,8.4-0.6c2.8-0.3,5.6-0.6,8.4-1.1c2.8-0.4,5.5-1,8.3-1.5c1.4-0.3,2.7-0.6,4.1-0.9l2-0.3c0.7-0.2,1.4-0.4,2-0.4h0
			L404.4,245z"/>
		<path fill="#333333" d="M504,237c0.5-2.5,13.9-2.6,33.5-5c1-0.1,2.8-0.3,5-1c6.9-2,8.7-5.4,12-6.5c5.6-1.8,10.8,4.3,24.5,15
			c14.5,11.3,21.2,14.4,20.5,16c-1,2.2-13.4-4.8-34.5-7c-18.2-1.9-24.5,1.8-41.5-2.5C513.4,243.5,503.6,239.2,504,237z"/>
		<path fill="#534741" d="M504,237c0,0,0-0.2,0.3-0.5c0.3-0.3,0.8-0.5,1.5-0.8c1.5-0.5,3.7-0.8,6.5-1.2c2.8-0.3,6.3-0.7,10.2-1.2
			c3.9-0.5,8.4-1,13.2-1.7c2.4-0.3,4.9-0.7,7.3-1.7c2.4-0.9,4.6-2.2,6.8-3.9c1.1-0.8,2.2-1.9,3.7-2.6l0.3-0.1l0.1-0.1l0.1,0
			c0.1,0-0.1,0,0.2-0.1l0.5-0.1l0.5-0.1l0.7-0.1c0.2,0,0.5-0.1,0.7-0.1l0.7,0c0.4,0,0.9,0.1,1.3,0.2c1.7,0.4,3.1,1.1,4.5,1.9
			c1.4,0.8,2.7,1.7,3.9,2.6c5,3.7,9.9,7.6,15,11.4c2.6,1.9,5.2,3.7,7.8,5.6c2.7,1.8,5.3,3.7,8,5.6c0.7,0.5,1.4,1,2.1,1.6
			c0.4,0.3,0.7,0.6,1.2,1.1c0.1,0.2,0.2,0.3,0.4,0.5l0.2,0.3c0.1,0.1,0.1,0.3,0.2,0.4c0.1,0.1,0.1,0.3,0.2,0.5
			c0,0.2,0.1,0.4,0.1,0.7c0,0.3,0,0.5-0.1,0.8c0,0.1-0.1,0.3-0.1,0.4c0,0.1-0.5,1-0.3,0.6l-0.1,0.1c0,0-0.1,0.1-0.2,0.3
			c-0.1,0.1-0.2,0.2-0.4,0.3c-0.1,0.1-0.3,0.2-0.4,0.3c-0.2,0.1-0.3,0.1-0.3,0.2c-0.2,0.1-0.3,0.1-0.5,0.2l-0.2,0.1l-0.2,0l-0.3,0
			c-0.2,0-0.4,0-0.6,0c-0.7,0-1.1-0.1-1.6-0.2c-0.9-0.2-1.7-0.4-2.5-0.7c-3.1-1-6.2-1.9-9.2-2.9c-3-0.9-6-1.7-9.1-2.4
			c-3-0.7-6-1.3-9-1.8c-0.7-0.1-1.5-0.2-2.2-0.3c-0.8-0.1-1.5-0.2-2.2-0.3c-1.5-0.2-2.9-0.3-4.4-0.4c-2.9-0.2-5.7-0.3-8.5-0.4
			c-5.6-0.1-10.9,0-15.8-0.7c-4.9-0.7-9.3-1.7-13.1-2.9c-3.8-1.2-7-2.4-9.7-3.5c-2.6-1.1-4.6-2.2-5.8-3.1c-0.6-0.5-1-0.9-1.2-1.3
			C503.9,237.2,504,237,504,237z M504,237c0,0-0.1,0.2,0.1,0.6c0.2,0.4,0.6,0.8,1.2,1.3c1.2,0.9,3.2,2,5.8,3.1
			c2.6,1.1,5.9,2.2,9.7,3.2c3.8,1,8.2,1.9,13,2.2c2.4,0.2,4.9,0.2,7.5,0.1c2.6-0.1,5.3-0.3,8.1-0.5c5.6-0.4,11.6-0.4,17.8,0.1
			c3.1,0.3,6.2,0.7,9.4,1.2c3.1,0.5,6.3,1.2,9.5,2c3.1,0.8,6.3,1.7,9.3,2.6c0.8,0.2,1.5,0.4,2.2,0.5c0.3,0.1,0.6,0.1,0.8,0.1
			c0,0,0.1,0,0,0c0,0,0,0,0,0l0,0l-0.1,0c-0.1,0-0.1,0-0.2,0.1c0,0,0,0-0.2,0.1c-0.1,0.1-0.2,0.1-0.3,0.2c-0.1,0.1-0.2,0.2-0.2,0.3
			c-0.1,0.1-0.1,0.2-0.1,0.2l0.1-0.1c0.2-0.4-0.3,0.5-0.3,0.5c0,0.1-0.1,0.2-0.1,0.2c0,0.2-0.1,0.3-0.1,0.5c0,0.2,0,0.3,0,0.4
			c0,0.1,0.1,0.2,0.1,0.2c0,0,0,0.1,0.1,0.1c0,0,0,0,0,0c0,0,0,0,0,0c-0.1-0.1-0.3-0.3-0.6-0.5c-0.5-0.4-1.2-0.9-1.8-1.4
			c-5.2-3.7-10.7-7.5-15.7-11.6c-2.5-2-5-4.1-7.3-6.1c-2.4-2.1-4.7-4.1-7-6.1c-2.3-1.9-4.6-3.8-7-4.5c-0.3-0.1-0.6-0.2-0.9-0.2
			l-0.4-0.1c-0.1,0-0.2,0-0.4,0l-0.4,0l-0.5,0.1l-0.5,0.1c0.2-0.1,0,0,0,0l-0.1,0l-0.1,0l-0.2,0.1c-1.1,0.4-2.2,1.2-3.4,2
			c-1.2,0.8-2.4,1.6-3.7,2.2c-1.3,0.6-2.6,1.1-3.9,1.5c-2.6,0.8-5.2,1.1-7.6,1.2c-4.9,0.4-9.3,0.7-13.3,1c-4,0.3-7.4,0.6-10.2,0.9
			c-2.8,0.3-5,0.7-6.5,1.1c-0.7,0.2-1.3,0.5-1.5,0.8C504,236.8,504,237,504,237z"/>
	<g>
		<path fill="#534741" d="M503.3,301.8c0,0,1-1.1,2.7-2.9c0.9-0.9,2-2,3.2-3.3c1.3-1.3,2.7-2.7,4.3-4.1c1.6-1.5,3.3-3.2,5.5-4.7
			c2.1-1.5,4.4-3,6.7-4.4c1.2-0.7,2.3-1.4,3.6-2.1c0.6-0.3,1.2-0.7,1.8-1l0.9-0.5l0.5-0.3l0.2-0.1l0.1-0.1l0.2-0.1l1-0.5l1.1-0.5
			c0.8-0.3,1.5-0.5,2.2-0.8c1.5-0.4,3-0.8,4.5-1c3.1-0.5,6.1-0.6,9-0.5c2.9,0,5.8,0.3,8.5,0.5c2.7,0.2,5.4,0.5,7.9,0.9
			c2.6,0.4,5.1,1.1,7.1,2.2c2.1,1.1,3.7,2.4,5.1,3.6c1.4,1.2,2.4,2.5,3.2,3.5c0.8,1,1.3,1.9,1.7,2.5c0.3,0.6,0.5,0.9,0.5,0.9
			s-0.3-0.3-0.7-0.8c-0.5-0.5-1.2-1.2-2.1-2c-0.9-0.8-2.2-1.7-3.6-2.7c-1.4-0.9-3.2-1.8-5.1-2.5c-1.9-0.7-4-1-6.4-1.1
			c-2.4-0.1-5-0.2-7.7-0.2c-2.7,0-5.5-0.1-8.3-0.1c-2.8,0-5.6,0.2-8.2,0.6c-1.3,0.2-2.7,0.5-3.9,0.8c-0.6,0.2-1.3,0.4-1.9,0.6
			l-0.9,0.3l-1,0.4l-0.4,0.2l-0.5,0.2l-0.9,0.5c-0.6,0.3-1.3,0.6-1.9,0.9c-1.2,0.6-2.4,1.2-3.6,1.8c-2.4,1.2-4.7,2.4-6.8,3.6
			c-2,1.2-3.9,2.6-5.7,3.8c-3.5,2.5-6.6,4.6-8.7,6C504.5,301,503.3,301.8,503.3,301.8z"/>
	</g>
	<g>
		<path fill="#534741" d="M585.5,290c-1-0.5-2-1.1-3.1-1.6c-1-0.5-2-1-3.1-1.5c-1-0.5-2.1-0.9-3.1-1.4c-1-0.4-2.1-0.8-3.1-1.2
			c-0.5-0.2-1.1-0.3-1.6-0.4c-0.5-0.1-1.1-0.2-1.6-0.3c-1-0.2-2.1-0.2-3.1-0.1c-0.3,0-0.5,0.1-0.8,0.1c-0.2,0-0.8,0.1-1.1,0.1
			c-0.5,0-1,0-1.6,0l-0.8,0.1c-0.3,0-0.7,0-0.6,0.1l-0.8,0.2c-0.2,0-0.4,0.1-0.9,0.1c-0.1,0-0.2,0-0.3,0c-0.1,0-0.1,0-0.3-0.1
			c-0.2-0.1-0.3-0.1-0.4-0.2c-0.1-0.1-0.3-0.3-0.5-0.4c-0.1-0.1-0.1-0.2-0.2-0.3c0-0.1-0.1-0.2-0.1-0.2c-0.1-0.2-0.1-0.4-0.1-0.5
			c0-0.2,0-0.4,0-0.6l1.5,2.1l-0.6-0.1l0.2,0l-1.6-0.1c-0.4,0-0.9-0.1-1.3-0.1c-0.9,0-1.7-0.1-2.6-0.1c-1.8,0-3.5,0-5.3,0
			c-1.8,0-3.5,0.2-5.3,0.3c-0.9,0.1-1.7,0.2-2.6,0.3l-1.3,0.2l-0.6,0.1l-0.3,0c-0.1,0-0.3,0.1-0.1,0l-0.2,0c-0.2,0-0.6,0.1-1,0.2
			l-1.1,0.3l-2.3,0.6l-4.7,1.3l-4.7,1.3c-0.8,0.2-1.5,0.4-2.2,0.6c-0.3,0.1-0.7,0.2-1,0.3c-0.3,0.1-0.6,0.3-0.5,0.2c0,0,0,0,0.1,0
			l0,0c0,0,0.1,0,0.1-0.1c0.1-0.1,0.1-0.1,0.1-0.2c0.1-0.1,0.2-0.3,0.2-0.4c0.1-0.2,0.1-0.4,0.1-0.6c0-0.3,0.1,0.4-0.1-0.6l0,0l0,0
			l0,0.1l0,0c0,0,0-0.1,0-0.2c0-0.2-0.1-0.3-0.2-0.4c-0.1-0.1-0.2-0.3-0.3-0.4l-0.1-0.1c-0.1,0-0.1-0.1-0.2-0.1c0,0,0,0,0,0
			c0,0,0,0,0,0c0.1,0,0.2,0.1,0.4,0.1c0.7,0.2,1.5,0.5,2.3,0.7c1.7,0.6,3.4,1.3,4.9,2.4c0.8,0.6,1.6,1.2,2.3,1.9
			c0.7,0.7,1.2,1.4,1.7,2c0.5,0.6,0.9,1.1,1.4,1.6c0.1,0.1,0.2,0.2,0.4,0.3l0.2,0.2l0.1,0.1l0,0l0,0c-0.1-0.1,0,0,0,0l0,0
			c0.3,0.2,0.7,0.5,0.9,0.7c1,0.7,2.4,1.3,3.8,1.7c1.4,0.4,2.8,0.7,4.3,0.7c1.5,0.1,2.9-0.1,4.4-0.3c1.5-0.3,2.9-0.8,4.3-1.4
			c2.7-1.2,5.2-3.2,6.6-5.8c0.4-0.7,0.5-1.3,0.7-2.1c0.1-0.8,0.2-1.6,0.3-2.4c0.2-1.6,0.3-3.2,0.5-4.8c0.2,1.6,0.3,3.2,0.4,4.9
			c0,0.8,0.1,1.6,0,2.5c0,0.8-0.1,1.9-0.5,2.6c-0.6,1.6-1.5,3.1-2.7,4.4c-1.2,1.3-2.6,2.4-4.1,3.2c-1.5,0.9-3.1,1.6-4.8,2.1
			c-1.7,0.5-3.4,0.8-5.2,0.8c-1.8,0-3.5-0.1-5.3-0.5c-1.8-0.4-3.4-1-5.1-2c-0.4-0.3-0.7-0.5-1.1-0.7l-0.6-0.5
			c-0.2-0.1-0.4-0.3-0.6-0.5c-0.7-0.6-1.4-1.3-1.9-2c-1.1-1.3-1.8-2.1-3-2.8c-1.2-0.8-2.5-1.3-3.8-1.7c-0.7-0.2-1.4-0.4-2.3-0.7
			c-0.2-0.1-0.4-0.1-0.8-0.3c-0.1-0.1-0.3-0.1-0.5-0.2l-0.3-0.2c-0.1-0.1-0.3-0.2-0.4-0.3c-0.1-0.1-0.1-0.1-0.2-0.2
			c-0.1-0.1-0.3-0.3-0.4-0.5c-0.1-0.2-0.2-0.4-0.3-0.6c0-0.1-0.1-0.2-0.1-0.3l0,0l0-0.1l0,0l0,0c-0.1-1,0-0.4-0.1-0.6
			c0-0.3,0.1-0.7,0.2-0.9c0.1-0.2,0.2-0.5,0.3-0.7c0.1-0.2,0.2-0.3,0.3-0.4l0.2-0.2l0.1-0.1l0.3-0.2c0.7-0.5,1.1-0.6,1.6-0.8
			c0.5-0.2,0.9-0.3,1.3-0.5c0.8-0.3,1.6-0.5,2.4-0.7l4.7-1.3l4.7-1.2l2.4-0.6l1.2-0.3c0.4-0.1,0.8-0.2,1.4-0.3l-0.2,0
			c0.4-0.1,0.4-0.1,0.6-0.1l0.4,0l0.7-0.1l1.4-0.1c0.9-0.1,1.9-0.1,2.8-0.2c1.8-0.1,3.7-0.1,5.5-0.1c1.8,0,3.7,0.1,5.5,0.3
			c0.9,0.1,1.9,0.2,2.8,0.3c0.5,0.1,0.9,0.1,1.4,0.2l0.7,0.1l0.3,0.1l0.2,0c0,0,0,0,0,0l0.2,0l0.7,0.1l1.5,2.1c0-0.1,0-0.3,0-0.4
			c0-0.1,0-0.3-0.1-0.4c0-0.1-0.1-0.1-0.1-0.2c0-0.1-0.1-0.2-0.2-0.2c-0.1-0.1-0.3-0.3-0.4-0.4c-0.1-0.1-0.2-0.1-0.3-0.2
			c-0.1,0-0.2,0-0.2-0.1c-0.1,0-0.1,0-0.2,0c-0.2,0-0.1,0-0.1,0l0.9-0.2c0.7-0.1,0.8,0,1.2-0.1l0.9,0c0.6,0,1.3,0.1,1.9,0.1
			c0.3,0,0.3,0,0.6,0c0.3,0,0.6,0,0.9,0c1.3,0,2.6,0.2,3.8,0.5c0.6,0.2,1.2,0.3,1.7,0.6c0.6,0.2,1.1,0.5,1.7,0.7
			c1.1,0.5,2.1,1.1,3.1,1.7c1,0.6,2,1.2,2.9,1.9c0.9,0.7,1.9,1.3,2.8,2C583.7,288.5,584.6,289.3,585.5,290z"/>
	</g>
	<g>
		<path fill="#534741" d="M397,306.7c-0.2,0-0.4-0.1-0.5-0.3c-0.1-0.2-0.2-0.3-0.2-0.5c-0.1-0.4-0.1-0.8-0.1-1.1l0,0
			c-0.3-0.1-0.5-0.2-0.8-0.4c-0.2-0.2-0.5-0.4-0.7-0.5c-0.4-0.4-0.8-0.8-1.2-1.3c-0.7-0.9-1.3-2-1.6-3.1l0,0c0,0-0.1,0,0,0l0,0
			c-0.3-0.1-0.5-0.3-0.8-0.6l-0.7-0.7c-0.2-0.2-0.5-0.4-0.7-0.6c-0.2-0.2-0.4-0.5-0.4-0.8c-0.1-0.3-0.4-0.4-0.6-0.6l-0.8-0.6
			c-0.5-0.4-1-0.7-1.5-1.1c-1-0.7-2.1-1.4-3.2-2c-0.5-0.3-1.1-0.6-1.6-0.9c-0.3-0.2-0.6-0.3-0.8-0.5c-0.3-0.2-0.4-0.5-0.5-0.8
			l0.1,0.1c-0.3,0.1-0.7,0-1-0.2l-0.8-0.6c-0.5-0.4-1-0.7-1.6-1.1c-1.1-0.7-2.1-1.3-3.3-1.9c-2.2-1.1-4.6-2-7-2.7
			c-2.4-0.6-4.9-1-7.4-1.2c-0.3,0-0.7-0.1-0.9-0.1l-0.9,0l-1.9,0l-3.8,0.1l-7.6,0.1l-1.9,0l-0.5,0c-0.1,0-0.4,0-0.4-0.1
			c-0.1,0-0.2,0,0,0c0.1,0,0.2,0,0.3-0.1c0,0,0.1-0.1,0,0l-0.1,0.1c-0.1,0.1-0.2,0.2-0.4,0.3c-0.2,0.1-0.5,0.2-0.7,0.2
			c-1.3,0.1-2.4,0.4-3.5,0.8c-1.1,0.4-2.2,1-3.3,1.6c-1.1,0.6-2.1,1.3-3.2,2c-2.1,1.4-4.1,2.9-6.4,4.1l-0.7-1.8c-0.1,0,0,0,0,0
			c0.1-0.1,0.1-0.1,0.2-0.2c0.2-0.2,0.3-0.3,0.5-0.5c0.3-0.4,0.6-0.8,1-1.2c0.3-0.4,0.7-0.9,1.1-1.3c0.2-0.2,0.4-0.4,0.7-0.7
			c0.1-0.1,0.3-0.2,0.5-0.3c0.2-0.1,0.4-0.2,0.8-0.3l-0.1,0c0.1,0,0.2,0,0.3,0l-0.9,0.4c0.2-0.3,0.6-0.6,0.9-0.8
			c0.2-0.1,0.4-0.2,0.6-0.2c0.1,0,0.2,0,0.3,0l0.1,0l0.1,0l0,0c-0.1,0,0.9,0.2,0.5,0.1c0.1,0,0.4,0.3,0.5,0.5
			c0.1,0.2,0.1,0.2,0.1,0.3l0,0.1l0,0.1c0,0,0,0,0,0l0-0.1c0,0,0-0.1-0.1-0.2c0.1,0.1-0.3-0.5-0.9-0.5c0.9,0.2,0.2,0,0.7,0.3
			c0.2,0.1,0.4,0.5,0.3,0.4l0,0.1l0,0.1l0.1,0.2c0,0,0,0,0-0.1l0-0.1c-0.1-0.1,0,0-0.3-0.3c-0.6-0.4-0.9-0.2-0.7-0.3l0,0l0,0l0.7,0
			l0.7,0l0,0l0,0c0.2,0-0.3,0-0.2,0c0,0,0.1,0-0.1,0c-0.1,0-0.2,0.1-0.3,0.2c-0.2,0.2-0.2,0.2-0.3,0.2l0,0.1c0,0,0,0,0.1-0.2
			c0,0,0.1-0.1,0.2-0.2c0.1-0.1,0.1-0.1,0.4-0.3l0.2-0.1l0.1,0l0.2-0.1l1.3-0.4c0.9-0.3,1.8-0.5,2.7-0.8c0.9-0.3,1.8-0.4,2.7-0.7
			c0.9-0.2,1.8-0.4,2.7-0.6c0.9-0.2,1.8-0.3,2.8-0.4c0.9-0.1,1.9-0.2,2.8-0.3c0.9,0,1.9-0.1,2.8-0.1c0.9,0,1.9,0,2.8,0
			c0.9,0,1.9,0.1,2.8,0.2l1.4,0.1l1.4,0.2c0.9,0.1,1.9,0.3,2.8,0.5c0.9,0.2,1.8,0.5,2.8,0.7c0.9,0.2,1.8,0.6,2.7,0.9
			c0.9,0.3,1.8,0.7,2.7,1.1l2.6,1.2l-1.4-0.2c0.2-0.1,0.6-0.1,0.9-0.1c0.4,0,0.8,0.1,1.2,0.3l-1.2-0.1c0.5-0.1,1.2-0.1,1.8,0.2
			c0.6,0.3,1.1,0.7,1.4,1.2c0.1,0.1,0.1,0.2,0.2,0.4l0.1,0.2l0.1,0.1l0-0.1c-0.1-0.2-0.2-0.4-0.4-0.5l0.6,0.4l2.3,1.7
			c1.5,1.1,3,2.3,4.5,3.5c1.5,1.2,2.9,2.5,4.3,3.8c0.7,0.7,1.4,1.3,2.1,2l1,1l0.3,0.3l0.1,0.1l0.1,0.1l0.1,0.2l0.1,0.1l0.1,0.1
			c0.1,0.1,0.2,0.3,0.3,0.4c0.1,0.3,0.3,0.5,0.4,0.8c0.4,1.2,0,2.5-0.7,3.4c-0.7,0.8-1.7,1.5-3,1.5c-0.7,0-1.3-0.2-1.8-0.5
			c-0.3-0.2-0.5-0.3-0.7-0.5l-0.3-0.3l-1-1c-1.3-1.3-2.6-2.5-4-3.7c-2.7-2.5-5.6-4.8-8.6-6.9l1,0.4c-0.4-0.1-0.8-0.2-1.1-0.4
			l-0.5-0.3l2.7-0.1c-0.5,0.3-1,1-1.5,1.8c-0.5,0.8-1,1.8-1.6,2.8c-0.3,0.5-0.7,1.1-1.1,1.6c-0.5,0.6-0.9,1-1.4,1.5
			c-1,0.9-2.1,1.6-3.2,2.2c-0.6,0.3-1.1,0.6-1.7,0.8l-0.4,0.2l-0.5,0.2c-0.3,0.1-0.5,0.2-0.8,0.3c-1.3,0.4-2.4,0.7-3.6,0.9
			c-2.4,0.4-4.8,0.6-7.2,0.5c-1.2-0.1-2.4-0.2-3.6-0.4c-0.6-0.1-1.2-0.2-1.8-0.4l-0.4-0.1l-0.3-0.1l-0.2-0.1
			c-0.3-0.1-0.5-0.1-0.8-0.2c-1.3-0.4-2.4-0.9-3.5-1.5c-1.1-0.6-2.2-1.4-3.1-2.3c-1-0.9-1.8-1.9-2.5-3.1c-0.7-1.2-1.2-2.3-1.5-3.8
			c-0.2-1.2-0.4-2.2-0.6-2.6c-0.1-0.1,0-0.1-0.2-0.3c-0.1-0.1-0.2-0.2-0.2-0.3c-0.2-0.1-0.3-0.2-0.6-0.3l1,0
			c-0.5,0.1-1.1,0.1-1.7-0.1l-0.2-0.1l-0.1,0c-0.1,0,0.1,0,0.1,0l0,0l0,0l0.1,0c0.1,0,0.2,0.1,0.3,0.1c0,0,0.2,0,0.1,0l-0.1,0
			l-0.1,0c-0.2,0-0.5,0-0.8,0.1c-0.6,0.1-1.2,0.3-1.9,0.5l-1,0.4c-0.4,0.1-0.7,0.3-1,0.4c-0.6,0.3-1.3,0.6-1.9,0.9
			c-1.3,0.7-2.5,1.5-3.7,2.3c-0.6,0.4-1.2,0.9-1.7,1.4l-0.8,0.7l-0.2,0.2l-0.2,0.2c-0.1,0.1-0.2,0.1-0.3,0.2
			c-0.4,0.3-0.8,0.4-1.3,0.5l-0.1,0c0.1,0,0.5-0.1,0.7-0.3l-0.3,0.3c-0.2,0.2-0.5,0.5-0.8,0.7c-0.5,0.4-1.1,0.9-1.6,1.2
			c-1.1,0.8-2.3,1.4-3.6,1.9c-1.2,0.5-2.5,0.9-3.8,1.2c-0.6,0.1-1.3,0.2-1.9,0.3c-0.2,0-0.4,0-0.6,0.1c-0.2,0-0.4,0-0.9,0
			c-0.1,0-0.2,0-0.3-0.1c-0.1,0-0.1,0-0.3-0.1c-0.1-0.1-0.2-0.1-0.5-0.3c-0.1-0.1-0.2-0.2-0.3-0.4c-0.1-0.2-0.2-0.4-0.2-0.6
			c0-0.1,0-0.2,0-0.3c0-0.1,0-0.2,0-0.2c0-0.2,0.1-0.3,0.2-0.5c0.1-0.2,0.2-0.3,0.3-0.4c0.1-0.1,0.1-0.1,0.2-0.2
			c0.4-0.3,0.5-0.3,0.6-0.4c0.3-0.1,0.5-0.2,0.6-0.2c0.4-0.1,0.7-0.2,1.1-0.2c0.2,0,0.6-0.1,0.8-0.1c0.3-0.1,0.5-0.1,0.7-0.2
			c0.2-0.1,0.5-0.2,0.7-0.3c0.5-0.2,0.9-0.4,1.4-0.7c0.4-0.3,0.9-0.6,1.3-1c1.6-1.4,2.9-3.4,4-5.5l0.5,1.9c-0.1-0.1-0.3-0.2-0.5-0.4
			c-0.2-0.2-0.4-0.8-0.3-1.2c0.1-0.5,0.3-0.7,0.4-0.8c0.1-0.2,0.2-0.2,0.3-0.3c0.3-0.3,0.6-0.4,0.8-0.5c0.4-0.2,0.8-0.4,0.9-0.6
			l2.1-1.9c1.4-1.2,2.9-2.5,4.5-3.6c3.1-2.3,6.6-4.2,10.4-5.2c0.9-0.3,1.9-0.5,2.8-0.7l0.7-0.1l0.4-0.1l0.1,0l0,0c0.1,0,0.1,0,0.2,0
			c0.1,0,0.1,0,0.2,0c0.2,0.1,0.3,0.1,0.2,0.1c0,0-0.2-0.1-0.5,0c-0.1,0-0.2,0.1-0.3,0.2c-0.1,0.1,0,0,0,0l0,0c0,0,0.1-0.1,0.2-0.2
			c0.3-0.2,0.4-0.2,0.5-0.3c0.3-0.1,0.6-0.2,0.8-0.3c0.5-0.1,1-0.2,1.5-0.2c0.5,0,1,0,1.5,0l2.8,0.1l11.3,0.2l5.6,0.1l1.4,0
			c0.1,0,0.3,0,0.4,0c0.1,0,0.2,0.1,0.3,0.1c0.1,0,0.2,0.2,0.1,0.1c-0.1,0-0.1,0-0.1,0c0,0,0.2,0,0.3,0l0.3,0.1
			c0.9,0.1,1.9,0.3,2.8,0.5c3.7,0.8,7.3,2.1,10.6,4c1.7,0.9,3.2,1.9,4.8,3.1c0.4,0.3,0.8,0.5,1.1,0.9c0.2,0.2,0.2,0.4,0.4,0.5
			c0.1,0.1,0.2,0.1,0.3,0.1c0.1,0,0.3,0,0.4,0.1c0.9,0.4,1.7,0.9,2.5,1.4c1.6,1,3.2,2,4.7,3.1c0.8,0.6,1.5,1.1,2.3,1.7l1.1,0.9
			c0.4,0.3,0.7,0.8,0.5,1.3l0-0.1c0.1,0.1,0.3,0.2,0.4,0.4c0.1,0.1,0.2,0.3,0.2,0.5l0,0c0.4,0.1,0.6,0.4,0.8,0.7
			c0.1,0.3,0.2,0.7,0.2,1.1c0,0.4-0.1,0.7-0.2,1.1c-0.1,0.3,0,0.7,0.4,0.9c0.2,0.1,0.3,0.1,0.5,0.1c0.2,0,0.4,0,0.5,0.1
			c0.4,0.1,0.7,0.2,1,0.4c0.3,0.2,0.5,0.5,0.6,0.9c0.1,0.4,0,0.7-0.1,1.1l0,0c0.1,0.1,0.3,0.2,0.4,0.3c0.1,0.1,0.2,0.3,0.3,0.4
			c0.1,0.3,0.1,0.7,0.1,1c-0.1,0.3-0.3,0.6-0.5,0.8c-0.1,0.1-0.3,0.2-0.4,0.2C397.3,306.7,397.2,306.7,397,306.7z M397,306.7
			c0.2,0,0.3,0,0.5-0.1c0.2,0,0.3-0.1,0.4-0.2c0.3-0.2,0.4-0.5,0.5-0.8c0.1-0.3,0.1-0.7-0.1-1c-0.1-0.2-0.1-0.3-0.3-0.4
			c-0.1-0.1-0.2-0.2-0.4-0.3l0,0l0,0c0.1-0.3,0.2-0.7,0.1-1c-0.1-0.4-0.3-0.7-0.6-0.9c-0.3-0.2-0.6-0.3-1-0.4
			c-0.2,0-0.4-0.1-0.5-0.1c-0.2,0-0.4,0-0.5-0.1c-0.2-0.1-0.3-0.2-0.4-0.4c-0.1-0.2-0.1-0.4,0-0.6c0.1-0.3,0.2-0.7,0.2-1.1
			c0-0.4,0-0.7-0.2-1c-0.1-0.3-0.4-0.6-0.7-0.7l0,0l0,0c0-0.2-0.1-0.3-0.2-0.4c-0.1-0.1-0.2-0.2-0.4-0.4l0,0l0,0
			c0.1-0.5-0.1-0.9-0.5-1.2l-1.1-0.9c-0.7-0.6-1.5-1.1-2.3-1.7c-1.5-1.1-3.1-2.1-4.7-3.1c-0.8-0.5-1.6-1-2.5-1.3c-0.1,0-0.2,0-0.3,0
			c-0.1,0-0.3,0-0.4-0.1c-0.2-0.1-0.4-0.4-0.5-0.6c-0.3-0.3-0.7-0.6-1.1-0.8c-1.5-1.1-3.1-2.1-4.8-2.9c-3.3-1.7-6.9-3-10.6-3.7
			c-0.9-0.2-1.8-0.3-2.8-0.4l-0.4,0c-0.1,0,0,0-0.1,0c0,0-0.2,0-0.4,0c-0.2-0.1-0.1-0.1-0.2-0.1c0,0,0,0-0.1,0c-0.1,0-0.1,0-0.3,0
			l-1.4,0l-5.6,0.1l-11.3,0.2l-2.8,0.1c-0.5,0-0.9,0-1.3,0.1c-0.4,0.1-0.9,0.1-1.3,0.2c-0.2,0.1-0.4,0.1-0.5,0.2
			c-0.1,0-0.2,0.1-0.1,0c0-0.1,0,0-0.1,0.1l0,0c0,0,0.1-0.1,0,0c-0.1,0.1-0.2,0.2-0.4,0.3c-0.3,0.1-0.6,0-0.7,0
			c-0.2-0.1-0.2-0.1-0.1,0c0,0,0.1,0,0.1,0c0,0,0.1,0,0.1,0c0,0,0,0,0,0c0.1,0,0,0,0,0l-0.3,0.1l-0.7,0.1c-0.9,0.2-1.8,0.5-2.6,0.8
			c-3.5,1.2-6.6,3-9.5,5.3c-1.4,1.1-2.8,2.4-4.2,3.6l-2,1.9c-0.5,0.5-1,0.7-1.4,1c-0.2,0.1-0.4,0.2-0.4,0.3c0,0,0,0,0.1-0.1
			c0-0.1,0.2-0.2,0.2-0.5c0.1-0.4-0.1-0.8-0.2-0.9c-0.1-0.2-0.2-0.2-0.2-0.2l0.5,1.9c-0.6,1.1-1.2,2.2-1.9,3.3
			c-0.7,1.1-1.5,2.1-2.5,3.1c-0.5,0.5-1,0.9-1.6,1.3c-0.6,0.4-1.2,0.8-1.8,1.1c-0.3,0.1-0.6,0.3-1,0.4c-0.4,0.1-0.8,0.2-1.1,0.3
			c-0.3,0.1-0.5,0.1-1,0.2c-0.3,0-0.5,0.1-0.7,0.2c-0.1,0-0.2,0.1-0.2,0.1c0,0,0,0.1,0.2-0.2c0.1,0,0.1-0.1,0.1-0.1
			c0.1-0.1,0.2-0.2,0.2-0.4c0.1-0.1,0.1-0.3,0.2-0.4c0-0.1,0-0.2,0-0.2c0-0.1,0-0.2,0-0.3c0-0.2-0.1-0.5-0.2-0.6
			c-0.1-0.1-0.2-0.2-0.3-0.3c-0.3-0.2-0.3-0.2-0.4-0.3c-0.1-0.1-0.2-0.1-0.2-0.1c-0.1,0-0.2,0-0.2-0.1c-0.2,0,0,0,0,0l0.3,0
			c0.6-0.1,1.1-0.2,1.7-0.4c1.1-0.3,2.1-0.6,3.1-1.1c1-0.5,1.9-1,2.8-1.7c0.4-0.3,0.9-0.7,1.2-1c0.2-0.2,0.4-0.3,0.6-0.6l0.4-0.4
			c0.5-0.4,1.1-0.6,1.5-0.7l-0.1,0c-0.1,0-0.1,0-0.2,0.1l0,0l0,0c0,0,0.1-0.1,0,0l0.2-0.2l0.9-0.8c0.6-0.6,1.2-1.1,1.9-1.6
			c1.3-1,2.7-2,4.2-2.8c0.7-0.4,1.5-0.8,2.3-1.1c0.4-0.2,0.8-0.3,1.1-0.5l1.2-0.5c0.8-0.3,1.6-0.6,2.6-0.8c0.5-0.1,1-0.2,1.6-0.2
			l0.1,0l0.1,0c0,0,0.2,0,0.3,0c0.2,0,0.4,0.1,0.6,0.1l0.1,0l0.1,0l0,0l-0.1,0c-0.3-0.1-0.4-0.1-0.5,0l1,0c0.8,0.2,1.7,0.6,2.4,1.1
			c0.4,0.3,0.6,0.5,0.9,0.9c0.2,0.2,0.6,0.7,0.8,1.1c0.8,1.6,0.9,2.8,1.1,3.7c0.1,0.7,0.6,1.6,1,2.3c0.5,0.7,1,1.4,1.7,2
			c0.7,0.6,1.4,1.1,2.2,1.6c0.8,0.4,1.7,0.8,2.5,1.1c0.2,0.1,0.5,0.1,0.8,0.2l0.2,0.1c0,0,0.1,0,0.1,0l0.4,0.1
			c0.5,0.1,1,0.2,1.5,0.3c1,0.2,2,0.2,3,0.3c2,0.1,4-0.1,6-0.5c1-0.2,2-0.5,2.8-0.7c0.2-0.1,0.5-0.2,0.7-0.3l0.3-0.1l0.3-0.1
			c0.4-0.2,0.9-0.4,1.3-0.6c0.8-0.4,1.6-1,2.2-1.5c0.7-0.6,1.1-1.1,1.6-2c0.5-0.8,1-1.8,1.7-2.9c0.7-1,1.5-2.2,2.8-3.2l1.3-0.9
			l1.4,0.8l0.2,0.1l0.1,0.1c0.1,0,0,0,0,0l0,0c-0.1,0-0.2-0.1-0.3-0.1l1,0.4c3.1,2.3,6,4.7,8.9,7.3c1.4,1.3,2.8,2.6,4.1,4l1,1
			l0.1,0.1c0,0,0.1,0.1,0.1,0.1c0,0-0.1-0.1-0.1-0.1c-0.1-0.1-0.3-0.1-0.5-0.1c-0.4,0-0.5,0.2-0.6,0.3c-0.1,0.1-0.2,0.4-0.1,0.7
			c0,0.1,0.1,0.1,0.1,0.2c0,0,0.1,0.1,0.1,0.1c0,0,0,0,0,0l-0.1-0.1l-0.4-0.4l-1-1c-0.6-0.7-1.3-1.3-1.9-1.9
			c-1.3-1.3-2.7-2.5-4.1-3.7c-1.4-1.2-2.8-2.4-4.2-3.6l-2.2-1.7l-0.6-0.4c-0.4-0.3-0.7-0.7-0.8-1.1l-0.1-0.2l0,0c0,0,0-0.1,0,0.1
			l0,0l0,0c0,0,0,0,0,0c0,0.1,0.2,0.2,0.3,0.3c0.2,0.1,0.4,0.1,0.4,0l-1.2-0.1c0.1,0.1,0.3,0.1,0.4,0.1c0.1,0,0.1,0,0.1,0l-0.8,0.2
			l-0.6-0.3l-2.3-1.2c-0.8-0.4-1.6-0.7-2.4-1.1c-0.8-0.3-1.6-0.7-2.5-0.9c-0.8-0.3-1.7-0.6-2.5-0.8c-0.8-0.2-1.7-0.5-2.6-0.6
			l-1.3-0.3l-1.3-0.2c-0.9-0.1-1.8-0.2-2.6-0.3c-0.9-0.1-1.8-0.1-2.7-0.1c-0.9,0-1.8,0-2.7,0l-2.7,0.2c-0.9,0.1-1.8,0.2-2.7,0.3
			c-0.9,0.1-1.8,0.2-2.7,0.4c-0.9,0.2-1.8,0.3-2.6,0.5c-0.9,0.2-1.7,0.4-2.6,0.6l-1.3,0.4l-0.2,0l-0.1,0l0,0c-0.1,0,0,0,0.2-0.1
			c0.1,0,0.2-0.1,0.2-0.1c0,0,0.1-0.1,0.1-0.1c0.1-0.1,0.1-0.1,0.1-0.2c0-0.1,0,0-0.1,0.1l-0.1,0.1c-0.1,0.1-0.1,0.1-0.3,0.3
			c-0.1,0.1-0.2,0.1-0.4,0.2l-0.1,0l-0.2,0l0,0l0,0l-0.7,0l-0.7,0l0,0l0,0c0.2,0-0.1,0.1-0.7-0.3c-0.3-0.3-0.2-0.2-0.3-0.4
			c0-0.1,0-0.1-0.1-0.1c-0.1-0.2-0.1-0.2-0.1-0.2c0-0.1,0-0.1,0-0.1l0,0l0,0.1c0-0.1,0.1,0.3,0.3,0.4c0.5,0.2-0.2,0,0.7,0.2
			c-0.6,0-1-0.6-0.9-0.5c-0.1-0.1-0.1-0.2-0.1-0.2l0-0.1c0-0.1,0-0.2,0-0.2l0-0.1c0,0,0,0,0,0c0,0,0,0,0.1,0.2
			c0.1,0.2,0.4,0.5,0.5,0.5c-0.4-0.1,0.5,0.1,0.4,0.1l0,0l0,0l0,0c0,0,0,0-0.1,0c0,0-0.1,0-0.1,0c0,0-0.1,0-0.1,0.1l-0.9,0.4
			c0,0,0.1,0,0.1,0l-0.1,0c0.1,0,0.1,0,0.1,0c0,0-0.1,0.1-0.2,0.1c-0.1,0.1-0.3,0.3-0.5,0.5c-0.3,0.4-0.7,0.8-1,1.2
			c-0.3,0.4-0.7,0.9-1.1,1.3c-0.2,0.2-0.4,0.4-0.6,0.7c-0.1,0.1-0.3,0.2-0.4,0.3c-0.2,0.1-0.3,0.2-0.7,0.3l-0.7-1.8
			c2.2-1.1,4.3-2.5,6.4-3.8c1.1-0.7,2.2-1.3,3.3-1.9c1.1-0.6,2.3-1.2,3.6-1.6c1.2-0.4,2.7-0.7,3.9-0.7c0.1,0,0.2,0,0.2,0
			c0,0,0,0,0,0c0,0,0,0,0,0c0,0,0.1-0.1,0.1-0.1c0.2-0.1,0.4-0.2,0.5-0.2c0.3,0,0.4,0.1,0.4,0.1c0.1,0-0.1,0,0,0l0.5,0l1.9,0
			l7.6,0.1l3.8,0.1l1.9,0l1,0c0.4,0.1,0.6,0.1,0.9,0.1c2.5,0.2,5,0.6,7.5,1.3c2.4,0.7,4.8,1.6,7,2.8c1.1,0.6,2.2,1.3,3.2,2
			c0.5,0.4,1,0.7,1.5,1.1c0.5,0.3,1,0.9,1.6,0.7l0.1,0l0,0.1c0,0.3,0.2,0.5,0.4,0.7c0.2,0.2,0.5,0.3,0.8,0.5
			c0.5,0.3,1.1,0.6,1.6,0.9c1.1,0.6,2.1,1.3,3.2,2c0.5,0.4,1,0.7,1.5,1.1l0.8,0.6c0.2,0.2,0.6,0.3,0.7,0.7c0.1,0.3,0.2,0.6,0.4,0.8
			c0.2,0.2,0.5,0.4,0.7,0.6l0.7,0.7c0.2,0.2,0.4,0.4,0.7,0.6l0,0c0,0,0,0,0,0l0,0c0.3,1.1,0.8,2.2,1.5,3.1c0.4,0.5,0.8,0.9,1.2,1.3
			c0.2,0.2,0.4,0.4,0.7,0.5c0.2,0.2,0.5,0.3,0.8,0.4l0,0l0,0c0,0.4,0,0.8,0,1.1c0,0.2,0.1,0.4,0.2,0.5
			C396.6,306.5,396.8,306.7,397,306.7z"/>
	</g>
	<g>
		<path fill="#534741" d="M385,303c0,0-1.1,0.5-3,1.1c-1.9,0.7-4.7,1.5-8.1,2.2c-3.4,0.7-7.4,1.4-11.7,1.8c-2.2,0.2-4.4,0.3-6.7,0.3
			l-0.9,0l-0.9,0l-1.7,0c-1.1,0-2.3-0.1-3.5-0.1c-2.3-0.1-4.6-0.3-6.9-0.6c-2.3-0.3-4.5-0.6-6.6-1.1c-2.1-0.4-4.2-0.9-6.1-1.4
			c-1.9-0.5-3.7-1.1-5.4-1.6c-1.6-0.6-3.1-1.1-4.4-1.7c-1.3-0.5-2.4-1-3.3-1.5c-0.9-0.4-1.6-0.8-2.1-1c-0.5-0.3-0.7-0.4-0.7-0.4
			s1.2,0.2,3.1,0.5c2,0.3,4.8,0.8,8.2,1.3c1.7,0.2,3.5,0.5,5.4,0.8c1.9,0.3,3.9,0.5,6,0.7c2.1,0.2,4.3,0.4,6.5,0.6
			c2.2,0.2,4.4,0.4,6.7,0.5c1.1,0.1,2.2,0.1,3.3,0.2l1.7,0.1l0.8,0l0.8,0c2.2,0.1,4.4,0.1,6.5,0.1c4.2,0,8.2-0.1,11.6-0.2
			c1.7-0.1,3.3-0.1,4.6-0.2c1.4-0.1,2.6-0.1,3.6-0.2c1-0.1,1.8-0.1,2.3-0.1C384.7,303,385,303,385,303z"/>
	</g>
	<g>
		<path fill="#534741" d="M503.5,303c0,0,1.1-0.3,3.2-0.6c2-0.4,4.9-0.8,8.4-1.2c0.9-0.1,1.7-0.2,2.7-0.3c0.9-0.1,1.9-0.3,2.9-0.4
			c2-0.3,4-0.6,6.3-0.8c2.2-0.2,4.6-0.3,7-0.1c0.6,0,1.2,0.1,1.8,0.1c0.6,0,1.2,0.1,1.8,0.2c1.2,0.1,2.6,0.5,3.4,0.6
			c0.8,0.1,2,0.1,3,0c1-0.1,2-0.2,3.1-0.4c2.1-0.4,4.2-1,6.3-1.5c2.1-0.5,4.1-1,6-1.5c1.9-0.5,3.8-0.9,5.1-1.5
			c0.3-0.1,0.6-0.3,0.9-0.5c0.3-0.2,0.7-0.5,0.9-0.7c0.5-0.4,1-1,1.4-1.5c0.8-1,1.4-2.1,1.9-2.9c0.4-0.9,0.7-1.6,0.9-2.1
			c0.2-0.5,0.3-0.8,0.3-0.8s0,0.3,0,0.8c0,0.6-0.1,1.4-0.3,2.4c-0.2,1-0.5,2.3-1.2,3.7c-0.3,0.7-0.7,1.4-1.3,2.1
			c-0.3,0.4-0.5,0.6-0.9,1c-0.3,0.3-0.8,0.7-1.2,1c-1.7,1.1-3.5,1.8-5.4,2.6c-1.9,0.7-3.8,1.5-5.9,2.2c-2.1,0.7-4.2,1.5-6.6,2
			c-1.2,0.3-2.4,0.5-3.7,0.6c-0.3,0-0.7,0.1-1,0.1l-0.4,0l-0.5,0c-0.6,0-1.3,0-2-0.1c-1.5-0.2-2.4-0.5-3.5-0.6l-1.6-0.2
			c-0.6-0.1-1.1-0.1-1.7-0.2c-2.2-0.2-4.3-0.3-6.4-0.3c-2.2,0-4.2,0.1-6.2,0.1c-1,0-2,0-2.9,0c-1,0-1.9-0.1-2.8-0.1
			c-3.5-0.2-6.4-0.4-8.4-0.6C504.7,303.2,503.5,303,503.5,303z"/>
	</g>
</g>
<path id="hairBody" fill="#D7F400" d="M644.2,14.4c6.3,0,11.6,4.5,12.7,10.7c0.3,1.7,0.6,3.6,0.8,5.6c0.5,4.1,0.4,4.9,0.7,7
	c1.9,15.1,11.9,20.5,15.7,37.3c0.5,2.3,0.8,4.3,0.9,5.6c0.1,0.5,0.1,1,0.3,1.5c3.4,14.7,7,34.7,7.8,58.5c1.1,32.1,1.7,48.2-5.3,67
	c-12.7,34-39.1,50.6-42.3,80c-0.3,2.3-0.8,8.2-3,8.7c-4.4,0.9-12.9-20-17.7-35.7c-10.7-35.5-7.6-62.4-18-111c-0.9-4-0.6-8.3-4-11.7
	c-18-18-36.3-16.7-66.7-20c-2.8-0.3-10.8,0.1-12,0.3c-31.7,7-86.3,15.3-152.7,8.7c-17.3-1.7-42.3-8.6-64.7,4.7
	c-0.8,0.5-1.5,0.9-2.2,1.4c-3.1,2-5.2,5.3-5.6,9c-1.5,11.4-6.2,39.7-17.6,69.9c-2.4,6.4-2.1,11.5-5.1,12.4
	c-24.4,7.7-46.4,28.3-47.1,46.7c-0.3,7.4-1.3,16.8-4.2,31.3c-1.8,8.8-11.8,12.9-19.4,8.2c0,0-0.1,0-0.1-0.1
	c-5.4-3.2-6.9-7.7-16.1-24.8c-4.4-8.2-6.6-12.3-8-14.6c-10.2-16.3-24.4-21.8-35.6-36.4c-0.8-1.1-2.3-3.1-3.9-6
	c-1.9-3.5-5-9.2-5.1-16.8c-0.1-3.5,0.5-6.6,1.2-9.2c0.9-3.3,0.6-6.8-1-9.7c-12.9-23.7-14.1-27.1-14.1-27.1c-2.8-8.1-3.1-20.7-3.6-46
	c-0.4-17.1,0.3-27.4,6.6-32.1c1.4-1,4-2.5,5.8-5.8c2.8-4.9,0.8-9.9,1.5-13.1c0.7-3.3,2.7-11.7,10.9-25.5c3.7-6.3,9.3-14.5,17.2-23.4
	c2.4-2.7,5.9-4.3,9.5-4.3L644.2,14.4z"/>
<g>
	<path fill="#8C6239" d="M342.7,452.7c0,0,0.8,0,2.3,0.1c1.5,0.1,3.8,0.2,6.6,0.5c2.8,0.3,6.3,0.9,10.2,1.8
		c3.9,0.9,8.2,2.1,12.9,3.6c4.7,1.5,9.7,3.3,14.9,5.4c2.6,1,5.3,2.2,8,3.3c1.4,0.6,2.7,1.2,4.1,1.6c1.4,0.4,2.9,0.6,4.4,0.6
		c1.5,0,3-0.2,4.5-0.6c0.8-0.2,1.4-0.4,2.2-0.7c0.7-0.2,1.6-0.4,2.4-0.5c3.2-0.4,6.4-0.1,9.6,0.1c6.4,0.6,12.9,1.4,19.4,1.9
		c6.5,0.6,13,0.9,19.4,0.6c6.4-0.3,12.7-1.1,18.5-2.9c2.9-0.9,5.6-2.3,8.2-3.6c2.6-1.4,5.2-2.7,7.7-3.9c5.1-2.4,10.1-4.3,14.7-5.9
		c4.6-1.6,8.9-3,12.7-4.2c3.8-1.2,7.2-2.1,9.9-2.8c5.5-1.5,8.7-2.2,8.7-2.2s-3.2,0.8-8.7,2.4c-2.7,0.8-6.1,1.8-9.9,3
		c-3.8,1.2-8,2.7-12.6,4.4c-4.6,1.7-9.5,3.7-14.6,6.1c-2.5,1.2-5.1,2.6-7.7,4c-2.6,1.4-5.3,2.8-8.3,3.7c-5.9,1.9-12.3,2.7-18.7,3
		c-6.5,0.3-13,0-19.5-0.5c-6.5-0.6-13-1.4-19.4-2c-3.2-0.3-6.4-0.5-9.4-0.1c-0.8,0.1-1.5,0.2-2.2,0.5c-0.7,0.2-1.5,0.5-2.2,0.7
		c-1.5,0.4-3.1,0.6-4.7,0.6c-1.6,0-3.1-0.2-4.6-0.6c-1.5-0.4-2.9-1.1-4.2-1.7c-2.7-1.2-5.3-2.3-7.9-3.4c-5.2-2.1-10.2-4-14.8-5.5
		c-4.6-1.5-9-2.8-12.8-3.8c-3.9-0.9-7.3-1.6-10.1-1.9c-2.8-0.4-5.1-0.5-6.6-0.6C343.5,452.7,342.7,452.7,342.7,452.7z"/>
</g>
<g id="hair">
	<g>
		<path fill="#D7F400" d="M288.8,142.1c0,0-2.3,6.4-13.8,21.9s-14.5,0-26,36s-10.5,2-32,32s-40,33-44,36"/>
		<path fill="#4D4D4D" d="M288.8,142.1c0,0-0.2,0.7-0.8,1.9c-0.5,1.2-1.4,2.9-2.6,5c-1.2,2.1-2.8,4.7-4.6,7.5c-1.9,2.9-4,6-6.6,9.4
			c-1.3,1.7-2.9,3.3-4.7,4.7c-1.8,1.5-4.1,2.4-6.1,3.6c-4,2.3-6.3,7-8.4,11.7c-2.1,4.8-3.8,9.9-5.4,15.1c-0.8,2.6-1.7,5.3-2.7,7.9
			c-1.1,2.6-2.1,5.2-3.9,7.7c-0.5,0.6-1,1.2-1.7,1.7c-0.7,0.5-1.5,0.8-2.3,1c-1.7,0.2-3.1-0.1-4.3-0.1c-2.6-0.1-5,1-7.1,2.6
			c-2.1,1.6-4,3.5-5.7,5.5c-1.7,2-3.3,4.1-4.8,6.2c-3.1,4.2-6.4,8.2-9.7,11.7c-3.3,3.5-6.7,6.6-10,9.3c-6.6,5.3-12.9,8.6-17.3,10.5
			c-2.2,1-4,1.6-5.2,2.2c-1.2,0.5-1.8,0.9-1.8,0.9s0.5-0.5,1.7-1c1.2-0.6,2.9-1.4,5.1-2.4c2.2-1.1,4.8-2.4,7.7-4.3
			c1.4-0.9,2.9-1.9,4.4-3.1c1.5-1.1,3.1-2.3,4.7-3.7c3.2-2.7,6.4-5.8,9.6-9.4c3.2-3.5,6.3-7.5,9.4-11.7c1.5-2.1,3.1-4.3,4.9-6.4
			c1.8-2.1,3.7-4.1,6-5.8c1.1-0.9,2.4-1.6,3.8-2.2c1.4-0.6,2.9-0.9,4.4-0.8c1.5,0,2.9,0.3,4,0.1c1.1-0.2,2-0.9,2.8-1.9
			c1.6-2,2.7-4.6,3.7-7.2c1-2.6,1.9-5.2,2.8-7.8c1.7-5.2,3.5-10.4,5.6-15.2c1.1-2.4,2.2-4.8,3.7-6.9c1.4-2.1,3.3-4.1,5.5-5.3
			c2.2-1.2,4.3-2,6-3.4c1.8-1.3,3.3-2.8,4.6-4.4c2.6-3.3,4.9-6.4,6.8-9.1c2-2.8,3.6-5.2,4.9-7.3c1.3-2.1,2.2-3.7,2.8-4.9
			C288.5,142.7,288.8,142.1,288.8,142.1z"/>
	</g>
	<g>
		<path fill="#D7F400" d="M492,29c0,0,3.2,9.4-5,21s-6.7,2.2-14.9,29.1c-8.2,26.9-7.5,1.5-22.8,23.9S420.8,127.8,418,130"/>
		<path fill="#4D4D4D" d="M492,29c0,0,0.2,0.5,0.4,1.4c0.2,1,0.4,2.4,0.4,4.2c0,1.8-0.3,4.1-1,6.5c-0.7,2.5-1.8,5.2-3.5,7.9
			c-0.4,0.7-0.9,1.4-1.4,2c-0.5,0.7-0.9,1.3-1.5,2c-1,1.4-2.2,2.7-3.5,4c-1.2,1.3-2.2,2.6-2.9,4.3c-0.7,1.7-1.4,3.5-2,5.3
			c-1.2,3.7-2.4,7.5-3.6,11.5c-0.6,2-1.2,4-1.9,5.9c-0.7,2-1.4,4-2.4,5.9c-0.5,1-1.1,1.9-2.1,2.8c-0.5,0.4-1.1,0.8-1.8,0.9
			c-0.7,0.1-1.3,0.1-1.8,0.1c-1.1-0.1-2-0.2-2.8,0c-0.9,0.2-1.7,0.6-2.5,1.1c-1.6,1-3,2.4-4.3,3.9c-1.3,1.5-2.5,3-3.6,4.6
			c-2.2,3.2-4.6,6.2-7,8.9c-2.4,2.7-4.8,5.1-7.2,7.1c-2.4,2-4.8,3.7-6.9,5.1c-2.2,1.3-4.2,2.3-5.8,3.1c-1.7,0.8-3,1.3-3.9,1.7
			c-0.9,0.4-1.3,0.7-1.3,0.7s0.4-0.4,1.3-0.8c0.9-0.5,2.2-1.1,3.8-1.9c1.6-0.8,3.5-1.9,5.6-3.4c2.1-1.4,4.3-3.2,6.6-5.3
			c2.3-2.1,4.6-4.5,6.9-7.3c2.3-2.7,4.5-5.7,6.7-9c1.1-1.6,2.3-3.3,3.6-4.8c1.3-1.6,2.8-3.1,4.7-4.3c0.9-0.6,2-1.1,3.1-1.3
			c1.2-0.3,2.4-0.2,3.4-0.1c1,0.1,1.6,0,2.2-0.5c0.6-0.5,1.1-1.3,1.6-2.2c0.9-1.7,1.7-3.7,2.3-5.6c0.7-1.9,1.3-3.9,1.9-5.9
			c1.2-3.9,2.5-7.8,3.8-11.5c0.7-1.9,1.4-3.7,2.2-5.4c0.2-0.4,0.5-0.9,0.7-1.3c0.3-0.4,0.5-0.8,0.8-1.2c0.6-0.8,1.2-1.5,1.9-2.1
			c1.3-1.3,2.5-2.5,3.5-3.8c0.5-0.6,1-1.3,1.5-1.9c0.5-0.6,0.9-1.3,1.4-1.9c1.7-2.5,3-5.1,3.8-7.5c0.8-2.4,1.2-4.6,1.3-6.4
			c0.1-1.8,0-3.2-0.1-4.2C492.2,29.5,492,29,492,29z"/>
	</g>
	<g>
		<path fill="#4D4D4D" d="M515.1,35c0,0,0.2,0.6,0.2,1.7c0,1.1-0.1,2.7-0.7,4.7c-0.5,2-1.5,4.3-2.8,6.8c-0.7,1.2-1.4,2.6-2.3,3.9
			c-0.9,1.3-1.8,2.7-2.7,4.2c-0.4,0.7-0.9,1.6-0.7,2c0.1,0.3,0.3,0.7,0.5,1.2c0.2,0.5,0.3,1,0.4,1.5c0.3,2,0,4-0.3,6
			c-0.6,4-1.8,8.1-3,12.3c-0.6,2.1-1.3,4.2-2.2,6.3c-0.9,2.1-1.8,4.2-3.3,6.2c-0.7,1-1.7,1.9-2.8,2.5c-1.1,0.7-2.3,1-3.4,1.3
			c-1.1,0.3-2.1,0.6-3.1,1.1c-1,0.5-1.9,1-2.8,1.7c-1.8,1.3-3.3,3-4.8,4.7c-0.7,0.9-1.4,1.8-2.1,2.6c-0.7,0.9-1.3,1.9-2,2.8
			c-2.8,3.8-6.2,6.9-9.9,9.3c-3.7,2.4-7.6,4.2-11.4,5.5c-3.8,1.3-7.5,2.2-10.9,2.9c-6.9,1.3-12.7,1.7-16.7,2c-2,0.2-3.6,0.3-4.7,0.5
			c-0.5,0.1-0.9,0.2-1.2,0.3c-0.3,0.1-0.4,0.2-0.4,0.2s0.1-0.1,0.4-0.2c0.3-0.1,0.7-0.2,1.2-0.3c1.1-0.2,2.6-0.4,4.7-0.7
			c4-0.5,9.8-1.1,16.5-2.7c3.4-0.8,7-1.8,10.7-3.2c3.7-1.4,7.4-3.2,11-5.6c3.5-2.4,6.8-5.4,9.4-9c2.5-3.7,5.3-7.7,9.2-10.6
			c1-0.7,2-1.4,3.1-1.9c1.1-0.5,2.3-0.9,3.4-1.2c1.1-0.3,2.1-0.6,3-1.1c0.9-0.5,1.6-1.2,2.2-2c1.3-1.7,2.2-3.7,3-5.7
			c0.8-2.1,1.5-4.1,2.2-6.2c1.3-4.1,2.5-8.1,3.2-12c0.3-1.9,0.6-3.8,0.4-5.5c0-0.4-0.1-0.8-0.3-1.2c-0.1-0.4-0.3-0.7-0.5-1.3
			c-0.1-0.3-0.1-0.7,0-0.9c0.1-0.3,0.2-0.5,0.3-0.8c0.2-0.4,0.4-0.8,0.7-1.2c1.9-3,3.9-5.4,5.4-7.8c1.5-2.4,2.5-4.6,3.2-6.5
			c0.6-1.9,0.9-3.5,1-4.5C515.2,35.6,515.1,35,515.1,35z"/>
	</g>
	<g>
		<path fill="#4D4D4D" d="M510,23c0,0-0.3,2.3-1.2,6.3c-0.4,2-1,4.4-1.9,7.1c-0.8,2.7-1.9,5.8-3.3,9c-0.7,1.6-1.5,3.3-2.5,4.9
			c-0.9,1.7-2.1,3.3-3.2,4.9c-0.6,0.8-1.2,1.6-1.9,2.5c-0.3,0.4-0.7,0.9-0.9,1.1c-0.1,0.2-0.2,0.8-0.2,1.3c-0.3,2.1-0.8,4.2-1.3,6.4
			c-1,4.3-2.3,8.6-3.6,13c-0.7,2.2-1.5,4.4-2.5,6.6c-1,2.1-2.1,4.4-4.2,6.1c-1,0.8-2.3,1.4-3.4,1.7c-1.2,0.3-2.2,0.6-3.3,1
			c-2,0.8-3.9,2-5.5,3.6c-1.6,1.5-3.1,3.2-4.5,5c-1.4,1.7-2.6,3.6-4,5.4c-2.7,3.5-5.9,6.5-9.2,8.9c-3.3,2.4-6.7,4.2-10,5.6
			c-3.3,1.4-6.4,2.3-9.2,2.9c-2.8,0.6-5.2,1-7.3,1.3c-2,0.3-3.6,0.5-4.7,0.7c-0.5,0.1-0.9,0.2-1.2,0.3c-0.3,0.1-0.4,0.2-0.4,0.2
			s0.1-0.1,0.4-0.2c0.3-0.1,0.7-0.3,1.2-0.4c1.1-0.3,2.6-0.6,4.6-1c4-0.8,9.7-2,16.1-4.9c3.2-1.4,6.4-3.3,9.6-5.7
			c3.1-2.4,6.1-5.4,8.7-8.8c1.3-1.7,2.5-3.6,3.9-5.4c1.4-1.8,2.9-3.6,4.6-5.3c0.9-0.8,1.8-1.6,2.8-2.3c1-0.7,2.1-1.3,3.3-1.7
			c1.1-0.5,2.3-0.8,3.4-1.1c1.1-0.3,2-0.7,2.8-1.4c1.6-1.3,2.7-3.3,3.6-5.4c0.9-2.1,1.7-4.2,2.5-6.4c1.4-4.4,2.7-8.7,3.9-12.9
			c0.6-2.1,1.1-4.2,1.4-6.2l0.1-0.8c0-0.3,0.1-0.6,0.3-1c0.4-0.6,0.7-0.9,1.1-1.3c0.7-0.8,1.3-1.5,1.9-2.3c2.5-3.1,4.4-6.4,5.9-9.5
			c3-6.3,4.6-11.9,5.6-15.9C509.6,25.3,510,23,510,23z"/>
	</g>
	<g>
		<path fill="#D7F400" d="M288,137c-45.8,31.1-32,32.1-46,55"/>
		<path fill="#4D4D4D" d="M288,137c0,0-0.9,0.7-2.5,2c-1.6,1.2-3.9,3-6.6,5.1c-1.4,1.1-2.8,2.2-4.4,3.4c-1.6,1.2-3.1,2.6-4.8,3.9
			c-1.7,1.3-3.3,2.9-5,4.3c-0.9,0.7-1.6,1.5-2.5,2.3c-0.8,0.8-1.7,1.5-2.4,2.4c-0.8,0.8-1.6,1.6-2.3,2.5c-0.7,0.9-1.4,1.8-2.1,2.6
			c-0.6,0.9-1.2,1.8-1.8,2.8c-0.5,1-1.1,1.9-1.5,2.8c-0.9,1.9-1.6,3.8-2.4,5.7c-0.7,1.8-1.4,3.6-2.2,5.2c-0.4,0.8-0.7,1.5-1.1,2.3
			c-0.4,0.7-0.7,1.4-1.1,2c-0.3,0.6-0.7,1.2-1,1.7c-0.3,0.5-0.6,1-0.9,1.4c-1.1,1.7-1.7,2.6-1.7,2.6s0.5-1,1.4-2.8
			c0.2-0.4,0.5-0.9,0.7-1.5c0.2-0.6,0.5-1.2,0.8-1.8c0.6-1.3,1.1-2.7,1.8-4.3c0.3-0.8,0.6-1.6,0.9-2.5c0.3-0.9,0.6-1.8,0.9-2.7
			c0.6-1.9,1.3-3.9,2.2-5.9c0.4-1,1-2,1.5-3c0.5-1,1.2-2,1.8-2.9c0.7-0.9,1.4-1.8,2.1-2.8c0.7-0.9,1.6-1.7,2.3-2.6
			c0.8-0.9,1.7-1.6,2.5-2.5c0.9-0.8,1.7-1.6,2.5-2.3c0.9-0.7,1.7-1.5,2.6-2.2c0.9-0.7,1.7-1.4,2.6-2.1c1.7-1.3,3.4-2.6,5-3.7
			c1.6-1.1,3.2-2.2,4.6-3.2c1.4-1,2.8-1.8,4-2.6c1.2-0.7,2.2-1.4,3.1-1.9C287,137.6,288,137,288,137z"/>
	</g>
	<g>
		<path fill="#D7F400" d="M284,177c-16.8,4.8-15.8,28.5-36,45"/>
		<path fill="#4D4D4D" d="M284,177c0,0-0.2,0.1-0.6,0.3c-0.4,0.2-1,0.4-1.7,0.8c-0.4,0.2-0.7,0.4-1.1,0.6c-0.4,0.2-0.8,0.5-1.3,0.9
			c-0.9,0.6-1.8,1.5-2.8,2.4c-0.9,1-1.8,2.1-2.7,3.4c-0.9,1.3-1.7,2.7-2.5,4.2c-0.8,1.5-1.6,3.1-2.4,4.7c-0.8,1.6-1.6,3.3-2.5,4.9
			c-0.8,1.6-1.7,3.3-2.6,4.9c-0.9,1.6-1.9,3.1-2.8,4.6c-1,1.5-2,2.8-3,4.1c-0.5,0.6-1,1.2-1.5,1.8c-0.5,0.6-1,1.1-1.5,1.6
			c-0.5,0.5-1,1-1.4,1.4c-0.5,0.4-0.9,0.8-1.3,1.2c-0.8,0.8-1.6,1.4-2.2,1.9c-1.3,1-2.1,1.5-2.1,1.5s0.6-0.7,1.8-1.8
			c0.5-0.6,1.2-1.3,2-2.1c0.7-0.8,1.5-1.8,2.4-2.9c0.8-1.1,1.7-2.3,2.6-3.5c0.9-1.3,1.8-2.7,2.7-4.1c0.9-1.4,1.7-3,2.6-4.6
			c0.9-1.6,1.7-3.2,2.5-4.8c0.8-1.6,1.7-3.3,2.5-4.9c0.8-1.6,1.7-3.2,2.6-4.7c0.9-1.5,1.9-2.9,2.9-4.2c1-1.3,2.1-2.4,3.1-3.3
			c1.1-0.9,2.1-1.7,3.1-2.2c0.5-0.3,1-0.5,1.4-0.7c0.4-0.2,0.9-0.4,1.3-0.5c0.8-0.3,1.4-0.4,1.8-0.5C283.8,177.1,284,177,284,177z"
			/>
	</g>
</g>
<circle fill="#534741" cx="542" cy="290" r="11"/>
<circle fill="#534741" cx="353" cy="293" r="11"/>
<g id="mouth2" opacity="0">
	<path fill="#FF7BAC" stroke="#736357" stroke-miterlimit="10" d="M426.5,433.5c-25.4,3.4-37.9,19.3-43.5,26.3
		c-13.7,17.3-29.5,56.4,10.5,76.1c30.5,15,78.7,11.7,105-5.3c37.4-24.2,15.7-66.9-17.2-85.2C476,442.5,453.2,429.9,426.5,433.5z"/>
	<path fill="#FFFFFF" stroke="#736357" stroke-miterlimit="10" d="M440,443.9c-2.1-0.2-3.9,1-5.9,0.8c-10.8-1.1-4,1.2-5,0.4
		c-2-1.6-26.7,5.4-42,18.7c-3.5,3-25.8,23.3-11.2,45.5c11.3,17.1,39.1,27,66,26.8c32.9-0.2,63.2-15.3,69.7-35.4
		c8.6-26.5-27.8-55.2-61.1-56.1C444.5,444.3,453.1,445.2,440,443.9z"/>
	<path fill="none" stroke="#736357" stroke-miterlimit="10" d="M413.3,449.3c-0.1,3.1,1.6,5.7,4,6.7c3,1.1,5.7-0.9,6.3-1.3
		c1.4-1.1,2-2.4,2.3-3c1.3-2.9,0.7-5.6,0.4-6.6"/>
	<path fill="none" stroke="#736357" stroke-miterlimit="10" d="M426.3,449.3c-0.1,3.1,1.6,5.7,4,6.7c3,1.1,5.7-0.9,6.3-1.3
		c1.4-1.1,2-2.4,2.3-3c1.3-2.9,0.7-5.6,0.4-6.6"/>
	<path fill="none" stroke="#736357" stroke-miterlimit="10" d="M451.3,451.3c-0.1,3.1,1.6,5.7,4,6.7c3,1.1,5.7-0.9,6.3-1.3
		c1.4-1.1,2-2.4,2.3-3c1.3-2.9,0.7-5.6,0.4-6.6"/>
	<path fill="none" stroke="#736357" stroke-miterlimit="10" d="M439.3,449.3c-0.1,3.1,1.6,5.7,4,6.7c3,1.1,5.7-0.9,6.3-1.3
		c1.4-1.1,2-2.4,2.3-3c1.3-2.9,0.7-5.6,0.4-6.6"/>
	<path fill="none" stroke="#736357" stroke-miterlimit="10" d="M462.3,453.3c-0.1,3.1,1.6,5.7,4,6.7c3,1.1,5.7-0.9,6.3-1.3
		c1.4-1.1,2-2.4,2.3-3c1.3-2.9,0.7-5.6,0.4-6.6"/>
	<path fill="none" stroke="#736357" stroke-miterlimit="10" d="M473.3,459.3c-0.1,3.1,1.6,5.7,4,6.7c3,1.1,5.7-0.9,6.3-1.3
		c1.4-1.1,2-2.4,2.3-3c1.3-2.9,0.7-5.6,0.4-6.6"/>
	<path fill="none" stroke="#736357" stroke-miterlimit="10" d="M400.3,455.3c-0.1,3.1,1.6,5.7,4,6.7c3,1.1,5.7-0.9,6.3-1.3
		c1.4-1.1,2-2.4,2.3-3c1.3-2.9,0.7-5.6,0.4-6.6"/>
	<path fill="none" stroke="#736357" stroke-miterlimit="10" d="M398.9,526.9c1.5-2.7,0.7-13.9-1-15.8c-2.2-2.4-5.5-1.8-6.3-1.6
		c-1.7,0.4-2.9,1.3-3.4,1.7c-2.4,2-3.1,4.7-3.3,5.8"/>
	<path fill="none" stroke="#736357" stroke-miterlimit="10" d="M412.4,528.9c1.5-2.7,1.2-5.8-0.6-7.8c-2.2-2.4-5.5-1.8-6.3-1.6
		c-1.7,0.4-2.9,1.3-3.4,1.7c-2.4,2-3.1,4.7-3.3,5.8"/>
	<path fill="none" stroke="#736357" stroke-miterlimit="10" d="M426.4,533.9c1.5-2.7,1.2-5.8-0.6-7.8c-2.2-2.4-5.5-1.8-6.3-1.6
		c-1.7,0.4-2.9,1.3-3.4,1.7c-2.4,2-3.1,4.7-3.3,5.8"/>
	<path fill="none" stroke="#736357" stroke-miterlimit="10" d="M439.4,535.9c1.5-2.7,1.2-5.8-0.6-7.8c-2.2-2.4-5.5-1.8-6.3-1.6
		c-1.7,0.4-2.9,1.3-3.4,1.7c-2.4,2-3.1,4.7-3.3,5.8"/>
	<path fill="none" stroke="#736357" stroke-miterlimit="10" d="M455.4,533.9c1.5-2.7,1.2-5.8-0.6-7.8c-2.2-2.4-5.5-1.8-6.3-1.6
		c-1.7,0.4-2.9,1.3-3.4,1.7c-2.4,2-3.1,4.7-3.3,5.8"/>
	<path fill="none" stroke="#736357" stroke-miterlimit="10" d="M471.4,530.9c1.5-2.7,1.2-5.8-0.6-7.8c-2.2-2.4-5.5-1.8-6.3-1.6
		c-1.7,0.4-2.9,1.3-3.4,1.7c-2.4,2-3.1,4.7-3.3,5.8"/>
	<path fill="none" stroke="#736357" stroke-miterlimit="10" d="M486.4,523.9c1.5-2.7,1.2-5.8-0.6-7.8c-2.2-2.4-5.5-1.8-6.3-1.6
		c-1.7,0.4-3.1,1.1-3.4,1.7c-0.7,1.5-2.8,13.2-4.7,14.7"/>
</g>
</svg>
