<?xml version="1.0" encoding="iso-8859-1"?>
<!-- Generator: Adobe Illustrator 16.0.0, SVG Export Plug-In . SVG Version: 6.00 Build 0)  -->
<!DOCTYPE svg PUBLIC "-//W3C//DTD SVG 1.1//EN" "http://www.w3.org/Graphics/SVG/1.1/DTD/svg11.dtd">
<svg version="1.1" id="Capa_1" xmlns="http://www.w3.org/2000/svg" xmlns:xlink="http://www.w3.org/1999/xlink" x="0px" y="0px"
	 width="612px" height="612px" viewBox="0 0 612 612" style="enable-background:new 0 0 612 612;" xml:space="preserve">
<g>
	<g id="tick">
		<g>
			<path d="M436.7,196.701L258.188,375.213l-82.869-82.887c-7.287-7.287-19.125-7.287-26.412,0s-7.287,19.125,0,26.412
				l93.808,93.808c0.631,0.899,1.014,1.932,1.817,2.735c3.768,3.768,8.721,5.508,13.655,5.374c4.934,0.115,9.907-1.606,13.674-5.374
				c0.803-0.804,1.186-1.836,1.817-2.735l189.434-189.433c7.286-7.287,7.286-19.125,0-26.412
				C455.806,189.414,443.987,189.414,436.7,196.701z M306,0C136.992,0,0,136.992,0,306s136.992,306,306,306
				c168.988,0,306-136.992,306-306S475.008,0,306,0z M306,573.75C158.125,573.75,38.25,453.875,38.25,306
				C38.25,158.125,158.125,38.25,306,38.25c147.875,0,267.75,119.875,267.75,267.75C573.75,453.875,453.875,573.75,306,573.75z"/>
		</g>
	</g>
</g>
<g>
</g>
<g>
</g>
<g>
</g>
<g>
</g>
<g>
</g>
<g>
</g>
<g>
</g>
<g>
</g>
<g>
</g>
<g>
</g>
<g>
</g>
<g>
</g>
<g>
</g>
<g>
</g>
<g>
</g>
</svg>
