
<svg xmlns="http://www.w3.org/2000/svg" xmlns:xlink="http://www.w3.org/1999/xlink" version="1.1" id="icons" x="0px" y="0px" viewBox="0 0 64 64" enable-background="new 0 0 64 64" xml:space="preserve">
<title property="dc:title">to build</title><desc property="dc:description">An icon for "build" from the Fandom series on to [icon]. Downloaded from http://www.toicon.com/icons/fandom_build by 66.102.6.168 on 2015-04-06. Licensed CC-BY, see http://toicon.com/license/ for details.</desc><g>
	<g>
		<path fill="#FFC865" d="M32,7C18.19287,7,7,18.19287,7,32h50C57,18.19287,45.80713,7,32,7z"/>
		<path fill="#BE9148" d="M32,57c13.80713,0,25-11.19287,25-25H7C7,45.80713,18.19287,57,32,57z"/>
	</g>
	<g>
		<g>
			<path fill="#01826E" d="M18.80785,39.68425c1.22559-0.17225,2.22491,0.75913,2.22243,2.0906     c-0.00246,1.32282-1.00577,2.54428-2.23136,2.71653c-1.23361,0.17337-2.22489-0.76777-2.22243-2.09058     C16.57896,41.06932,17.57424,39.85762,18.80785,39.68425z"/>
		</g>
		<g>
			<path fill="#01826E" d="M18.82034,32.95775c1.22559-0.17225,2.22489,0.76777,2.22243,2.09059     c-0.00246,1.32283-1.00577,2.54429-2.23136,2.71654c-1.23361,0.17337-2.22489-0.76777-2.22243-2.0906     C16.59144,34.35146,17.58674,33.13112,18.82034,32.95775z"/>
		</g>
		<g>
			<path fill="#01826E" d="M12.57574,40.56011c1.23361-0.17337,2.22491,0.75913,2.22243,2.0906     c-0.00246,1.32282-0.99775,2.54316-2.23136,2.71653c-1.22559,0.17225-2.22489-0.76777-2.22243-2.09058     C10.34685,41.94518,11.35015,40.73236,12.57574,40.56011z"/>
		</g>
		<g>
			<path fill="#00B3A5" d="M9,32.4696l14-2.00166v15.36374L9,47.83333V32.4696z M18.8114,37.76485     c1.2256-0.17225,2.2289-1.39371,2.23136-2.71653c0.00246-1.32282-0.99684-2.26283-2.22243-2.09059     c-1.2336,0.17337-2.2289,1.39371-2.23136,2.71653S17.5778,37.93822,18.8114,37.76485z M12.57929,38.64072     c1.23361-0.17337,2.2289-1.39371,2.23136-2.71653c0.00246-1.32282-0.98883-2.26396-2.22243-2.09059     c-1.22559,0.17225-2.2289,1.39371-2.23136,2.71653C10.3544,37.87295,11.35369,38.81297,12.57929,38.64072z M18.79891,44.49135     c1.22559-0.17225,2.2289-1.39371,2.23136-2.71653c0.00247-1.33147-0.99684-2.26283-2.22243-2.09059     c-1.2336,0.17337-2.22889,1.38506-2.23136,2.71653C16.57401,43.72359,17.5653,44.66472,18.79891,44.49135z M12.5668,45.36722     c1.23361-0.17337,2.2289-1.39371,2.23136-2.71653c0.00247-1.33147-0.98883-2.26396-2.22243-2.09059     c-1.22559,0.17225-2.22889,1.38506-2.23136,2.71653C10.34191,44.59945,11.3412,45.53946,12.5668,45.36722z"/>
		</g>
		<g>
			<path fill="#01826E" d="M12.58823,33.83361c1.23361-0.17337,2.22489,0.76777,2.22243,2.09059     c-0.00246,1.32283-0.99775,2.54317-2.23136,2.71654c-1.22559,0.17225-2.22489-0.76777-2.22243-2.0906     C10.35933,35.22732,11.36264,34.00586,12.58823,33.83361z"/>
		</g>
		<g>
			<polygon fill="#00B3A5" points="9.03125,32.53646 4.01993,29.98973 18.26246,27.98808 23,30.46794    "/>
		</g>
		<g>
			<polygon fill="#01826E" points="9,47.83333 4,45.35347 4.00861,29.98973 9,32.4696    "/>
		</g>
	</g>
	<g>
		<polygon fill="#66C0D2" points="37.03125,43 34,44.78125 43,45.85034 43,60.78125 45,58.78125 45,43.78125   "/>
		<g>
			<path fill="#66C0D2" d="M38.61261,58.65625c1.17999,0,2.1366-1.03455,2.1366-2.31073c0-1.27612-1.07623-2.59552-2.62726-2.59552     c-1.17999,0-2.2157,0.9079-2.2157,2.18408C35.90625,57.21021,37.09326,58.65625,38.61261,58.65625z"/>
			<path fill="#66C0D2" d="M38.13611,47.07812c-1.18756,0-2.22986,0.9137-2.22986,2.198c0,1.28424,1.19458,2.7395,2.72357,2.7395     c1.18756,0,2.15021-1.04114,2.15021-2.32544C40.78003,48.40594,39.69696,47.07812,38.13611,47.07812z"/>
		</g>
		<path fill="#4B889B" d="M34,44.78125v15l9,1V45.85034L34,44.78125z M38.61261,58.65625    c-1.51935,0-2.70636-1.44604-2.70636-2.72217c0-1.27618,1.03571-2.18408,2.2157-2.18408c1.55103,0,2.62726,1.3194,2.62726,2.59552    C40.74921,57.6217,39.7926,58.65625,38.61261,58.65625z M38.62982,52.01562c-1.52899,0-2.72357-1.45526-2.72357-2.7395    c0-1.2843,1.0423-2.198,2.22986-2.198c1.56085,0,2.64392,1.32782,2.64392,2.61206    C40.78003,50.97449,39.81738,52.01562,38.62982,52.01562z"/>
	</g>
	<g>
		<path fill="#FF786E" d="M60.99561,24.63318c0.16229-0.52643-0.77148-1.55579-2.16394-2.35974    c-1.47119-0.84937-2.88763-1.12665-3.17511-0.62872c-0.0094,0.01624-0.01721,0.03326-0.02393,0.05078l-2.14319-1.17395    c0.01642-0.01831,0.03149-0.0376,0.04376-0.05878c0.28741-0.49786-0.66992-1.59119-2.13214-2.43536    c-1.47119-0.84943-2.88763-1.12665-3.17511-0.62878c-0.03571,0.06189-0.05176,0.1333-0.04974,0.21246l-2.72266-1.49139    c0.12115-0.03931,0.21124-0.10291,0.263-0.1925c0.28748-0.49786-0.66986-1.59113-2.13208-2.43536    c-1.47119-0.84937-2.88763-1.12659-3.17511-0.62872c-0.07587,0.13141-0.06262,0.30591,0.02454,0.50696l-2.65179-1.45258    c0.24512-0.01801,0.42218-0.09485,0.50391-0.23633c0.28741-0.49786-0.66992-1.59119-2.13214-2.43536    c-1.47119-0.84943-2.88763-1.12665-3.17511-0.62878c-0.10608,0.18372-0.03949,0.45111,0.16241,0.75836l-1.31757-0.72174    l-5.25934,5.30756L57.5412,31.18671l-4.72858,8.42194L57.6377,34.323l4.4873-9.07117L60.99561,24.63318z"/>
		<polygon fill="#BE5652" points="22.36649,22.38317 26.5643,13.96123 57.54119,31.1867 52.81263,39.60864   "/>
		<path fill="#BE5652" d="M31.93042,14.2298c-1.47119-0.84943-2.41949-1.93744-2.13617-2.42822l-0.71295,1.23486    c-0.28333,0.49072,0.66498,1.5788,2.13617,2.42822c0.67226,0.38808,2.56957,1.25756,3.11462,0.70935l0.71295-1.23486    C34.49999,15.48736,32.60268,14.61788,31.93042,14.2298z"/>
		<path fill="#BE5652" d="M35.11499,11.04523c-1.47125-0.84937-2.41956-1.93744-2.13623-2.42822l-0.71289,1.23486    c-0.28339,0.49078,0.66498,1.57886,2.13617,2.42822c0.67082,0.38735,2.56838,1.25858,3.11462,0.70935l0.71289-1.23486    C37.68348,12.30399,35.78581,11.43257,35.11499,11.04523z"/>
		<path fill="#BE5652" d="M39.36102,18.47583c-1.47119-0.84937-2.41949-1.93744-2.13617-2.42822l-0.71295,1.23486    c-0.28333,0.49078,0.66498,1.57886,2.13617,2.42822c0.67088,0.38735,2.56843,1.25871,3.11462,0.70935l0.71295-1.23486    C41.92937,19.73445,40.03191,18.86318,39.36102,18.47583z"/>
		<path fill="#BE5652" d="M42.54559,15.29132c-1.47125-0.84943-2.41956-1.9375-2.13623-2.42822l-0.71295,1.23486    c-0.28333,0.49072,0.66498,1.5788,2.13623,2.42822c0.67082,0.38729,2.56843,1.25865,3.11456,0.70935l0.71295-1.23486    C45.11402,16.54997,43.21642,15.67861,42.54559,15.29132z"/>
		<path fill="#BE5652" d="M47.17761,23.01141c-1.47119-0.84943-2.41949-1.9375-2.13617-2.42822l-0.71295,1.23486    c-0.28333,0.49072,0.66498,1.5788,2.13617,2.42822c0.67226,0.38808,2.56957,1.25756,3.11462,0.70935l0.71295-1.23486    C49.74718,24.26898,47.84987,23.39949,47.17761,23.01141z"/>
		<path fill="#BE5652" d="M50.36218,19.82684c-1.47125-0.84937-2.41956-1.93744-2.13623-2.42822l-0.71289,1.23486    c-0.28339,0.49078,0.66498,1.57886,2.13617,2.42822c0.67082,0.38735,2.56838,1.25858,3.11462,0.70935l0.71289-1.23486    C52.93059,21.08552,51.033,20.21419,50.36218,19.82684z"/>
		<path fill="#BE5652" d="M54.60822,27.25745c-1.47119-0.84937-2.41949-1.93744-2.13617-2.42822l-0.71295,1.23486    c-0.28333,0.49078,0.66498,1.5788,2.13617,2.42822c0.67088,0.38735,2.56843,1.25871,3.11462,0.70935l0.71295-1.23486    C57.17656,28.51607,55.2791,27.64479,54.60822,27.25745z"/>
		<path fill="#BE5652" d="M57.79279,24.07294c-1.47125-0.84943-2.41956-1.9375-2.13623-2.42822l-0.71295,1.23486    c-0.28333,0.49072,0.66498,1.5788,2.13623,2.42822c0.67082,0.38729,2.56843,1.25865,3.11456,0.70935l0.71295-1.23486    C60.36121,25.33159,58.46361,24.46022,57.79279,24.07294z"/>
	</g>
</g>
<metadata><work rdf:about=""><format>image/svg+xml</format><type rdf:resource="http://purl.org/dc/dcmitype/StillImage"/><license rdf:resource="http://creativecommons.org/licenses/by/4.0/"/><attributionname>Carol Liao</attributionname><attributionurl>http://www.toicon.com/icons/fandom_build</attributionurl></work></metadata></svg>
