<?xml version="1.0" encoding="iso-8859-1"?>
<!-- Generator: Adobe Illustrator 16.0.0, SVG Export Plug-In . SVG Version: 6.00 Build 0)  -->
<!DOCTYPE svg PUBLIC "-//W3C//DTD SVG 1.1//EN" "http://www.w3.org/Graphics/SVG/1.1/DTD/svg11.dtd">
<svg version="1.1" id="Layer_1" xmlns="http://www.w3.org/2000/svg" xmlns:xlink="http://www.w3.org/1999/xlink" x="0px" y="0px"
	 width="45px" height="45px" viewBox="0 0 45 45" style="enable-background:new 0 0 45 45;" xml:space="preserve">
<g>
	<path style="fill-rule:evenodd;clip-rule:evenodd;fill:#802D04;" d="M28.878,2.86c2.013,0.32,3.126,1.701,3.604,3.574
		c1.239,4.877-1.358,15.453-10.35,15.578c-4.638,0.065-7.979-1.114-9.193-4.867c-1.218-3.753-1.717-9.801,0.927-13.192
		C17.194-0.312,24.178-0.351,28.878,2.86z"/>
	<path style="fill-rule:evenodd;clip-rule:evenodd;fill:#FFD16E;" d="M18.242,27.72c-8.417,3.69-10.939,5.657-11.938,6.54
		C4.766,35.619,3.915,40.693,3.007,45h19.04h19.042c-0.908-4.307-1.757-9.381-3.295-10.74c-0.998-0.883-3.432-2.8-11.847-6.488
		L18.242,27.72z"/>
	<path style="fill-rule:evenodd;clip-rule:evenodd;fill:#FFDECC;" d="M26.134,20.365v9.332c-2.246,2.751-5.924,2.656-8.171,0v-9.332
		C17.963,15.329,26.134,15.329,26.134,20.365z"/>
	<path style="fill-rule:evenodd;clip-rule:evenodd;fill:#F7C5AA;" d="M26.134,20.365v6.246c-1.546,1.128-3.037,1.76-4.086,1.76
		c-1.048,0-2.539-0.632-4.084-1.76v-6.246C17.963,15.329,26.134,15.329,26.134,20.365z"/>
	<path style="fill-rule:evenodd;clip-rule:evenodd;fill:#FFDECC;" d="M22.047,3.618c-13.713,0-8.781,16.571-7.885,17.891
		c0.987,1.455,5.671,5.31,7.885,5.31c2.216,0,6.899-3.854,7.888-5.31C30.832,20.188,35.764,3.618,22.047,3.618z"/>
	<path style="fill-rule:evenodd;clip-rule:evenodd;fill:#F7C5AA;" d="M25.701,21.775c-3.215,0.149-6.395-1.035-8.34-2.79
		C17.483,21.645,23.608,23.718,25.701,21.775z"/>
	<path style="fill-rule:evenodd;clip-rule:evenodd;fill:#F7C5AA;" d="M18.207,18.754c-0.67,0.26-1.212,0.789-1.451,1.324
		C16.599,19.351,17.666,18.362,18.207,18.754z"/>
	
		<ellipse transform="matrix(-0.3128 -0.9498 0.9498 -0.3128 1.8866 31.2556)" style="fill-rule:evenodd;clip-rule:evenodd;fill:#FFDECC;" cx="12.25" cy="14.945" rx="2.373" ry="1.373"/>
	
		<ellipse transform="matrix(0.3126 -0.9499 0.9499 0.3126 7.6697 40.4888)" style="fill-rule:evenodd;clip-rule:evenodd;fill:#FFDECC;" cx="31.809" cy="14.945" rx="2.373" ry="1.372"/>
	<path style="fill-rule:evenodd;clip-rule:evenodd;fill:#802D04;" d="M28.771,7.739c-2.408,1.484-5.274,0.961-4.163-0.336
		c1.112-1.298-0.11-0.394-2.287,0.556c-2.176,0.949-4.678,0.792-3.194-0.012c1.797-0.974-5.224-1.612-6.508,8.415
		C10.561,9.09,14.036,3,21.889,2.655c8.384-0.37,11.782,6.268,9.463,13.491C31.504,12.233,30.559,9.673,28.771,7.739z"/>
	<path style="fill-rule:evenodd;clip-rule:evenodd;fill:#FFFFFF;" d="M17.574,27.62l-2.898,1.569l4.203,5.824l3.188-3.023
		L17.574,27.62z"/>
	<path style="fill-rule:evenodd;clip-rule:evenodd;fill:#FFFFFF;" d="M26.56,27.62l2.898,1.569l-4.202,5.824l-3.189-3.023
		L26.56,27.62z"/>
	<path style="fill-rule:evenodd;clip-rule:evenodd;fill:#FF386A;" d="M20.291,33.615l0.989,1.533c0.512,0,1.023,0,1.535,0
		l0.99-1.533l-1.738-1.669L20.291,33.615z"/>
	<polygon style="fill-rule:evenodd;clip-rule:evenodd;fill:#FF386A;" points="21.28,35.148 19.873,45 24.227,45 22.815,35.148 	"/>
	<g>
		<path style="fill-rule:evenodd;clip-rule:evenodd;fill:#BA8D3A;" d="M10.767,45h0.653c-0.029-2.898-0.029-4.99-0.029-4.99
			S11.101,42.183,10.767,45z"/>
		<path style="fill-rule:evenodd;clip-rule:evenodd;fill:#BA8D3A;" d="M33.329,45h-0.653c0.03-2.898,0.03-4.99,0.03-4.99
			S32.995,42.183,33.329,45z"/>
	</g>
</g>
<circle style="fill-rule:evenodd;clip-rule:evenodd;fill:#603813;" cx="18.511" cy="14.229" r="1.011"/>
<circle style="fill-rule:evenodd;clip-rule:evenodd;fill:#603813;" cx="26.511" cy="14.229" r="1.011"/>
</svg>
