<svg version="1.1" xmlns="http://www.w3.org/2000/svg" xmlns:xlink="http://www.w3.org/1999/xlink" x="0px" y="0px"
	 viewBox="0 0 45 45" enable-background="new 0 0 45 45" xml:space="preserve">
<g id="Back_Ground">
	<rect fill="#FFFFFF" width="45" height="45"/>
</g>
<g id="body3" display="none">
	<path display="inline" fill="#3953A4" d="M22.5,36.7h-4.2C16.1,36,16,35.2,16,35.2c-2-2.2,2.4-12.7,2.4-12.7s5.6-0.1,8.4,0
		c0,0,4.3,10.5,2.4,12.7c0,0-0.2,0.8-2.4,1.4H22.5"/>
</g>
<g id="body2" display="none">
	<path display="inline" fill="#3953A4" d="M22.5,36.7h-4.2C16.1,36,16,35.2,16,35.2c-2-2.2,2.4-12.7,2.4-12.7s5.6-0.1,8.4,0
		c0,0,4.3,10.5,2.4,12.7c0,0-0.2,0.8-2.4,1.4H22.5"/>
	<path display="inline" fill="#ED1F24" d="M17,26.1c0,0,5.2-3.5,11,0l-1.3-3.6h-8.4L17,26.1z"/>
	<polygon display="inline" fill="#ED1F24" points="22.5,31.2 27.1,27.6 25.4,26 22.5,26 22.5,26 19.6,26 17.9,27.6 22.5,31.2
		22.5,31.2 22.5,31.2 22.5,31.2 	"/>
	<polygon display="inline" fill="#FEDA00" points="22.5,30.4 26.1,27.5 24.8,26.2 22.5,26.2 22.5,26.2 20.2,26.2 18.9,27.5
		22.5,30.4 22.5,30.4 22.5,30.4 22.5,30.4 	"/>
	<path display="inline" fill="#ED1F24" d="M24.8,26.2v0.7H24c0,0-1.6-0.7-3.1,0c0,0-0.9,0.9,3,0.5c0,0,1.9-0.1,0.9,1.1
		c-0.6,0.8-1.2,1-1.2,1s-1,0.6-2.4,0c-1.3-0.6,0-0.8,0-0.8s0.8,0,0.7,0.4c0,0,1.4,0.9,2.4-0.7c0,0,0.2-0.2-0.3-0.1
		c0,0-1.6,0.7-4.4,0c0,0-1.4-0.7,1.3-2c0,0,2.8-0.4,3.1,0.3l0.2-0.3H24.8z"/>
</g>
<g id="body1">
	<path fill="#6FCCDD" d="M22.5,36.7h-4.2C16.1,36,16,35.2,16,35.2c-2-2.2,2.4-12.7,2.4-12.7s5.6-0.1,8.4,0c0,0,4.3,10.5,2.4,12.7
		c0,0-0.2,0.8-2.4,1.4H22.5"/>
	<polygon fill="#ED1F24" points="23.2,25.5 24.2,24.9 22.5,24.3 22.5,24.3 22.5,24.3 22.5,24.3 22.5,24.3 20.8,24.9 21.8,25.5
		20.9,30.8 22.5,32.2 22.5,32.3 22.5,32.3 22.5,32.3 22.5,32.2 24.1,30.8 	"/>
</g>
<g id="head">
	<path fill="#FFE8B0" d="M28.8,21.4v-6.9c-0.1-2.6-5.7-2.5-6.3-2.5c-0.6,0-6.2-0.1-6.3,2.5v6.9c0,0-0.1,2.5,5.8,2.7l0,0
		c0.2,0,0.3,0,0.5,0c0.2,0,0.3,0,0.5,0l0,0C28.9,24,28.8,21.4,28.8,21.4z"/>
</g>
<g id="face4" display="none">
	<path display="inline" fill="#422110" d="M23.7,16.5c0,0,2.2-2.5,2.8-0.2C26.5,16.3,25.6,15,23.7,16.5z"/>
	<path display="inline" fill="#422110" d="M20.9,16.5c0,0-1.1-3.1-2.5-1.3C18.5,15.2,19.8,14.4,20.9,16.5z"/>
	<circle display="inline" fill="#422110" cx="24.8" cy="17.2" r="0.4"/>
	<circle display="inline" fill="#422110" cx="19.7" cy="17.2" r="0.4"/>
	<path display="inline" fill="#422110" d="M20.4,21.7c0,0,2-2.4,4.4,0C24.8,21.7,22.7,20.3,20.4,21.7z"/>
</g>
<g id="face3" display="none">
	<path display="inline" fill="#422110" d="M23.6,16.2c0,0,1.6-1,2.7-0.2C26.3,16,24.9,14.5,23.6,16.2z"/>
	<path display="inline" fill="#422110" d="M20.9,16.1c0,0-1.6-1-2.7-0.2C18.2,15.9,19.6,14.4,20.9,16.1z"/>
	<circle display="inline" fill="#422110" cx="24.8" cy="17.2" r="0.4"/>
	<circle display="inline" fill="#422110" cx="19.7" cy="17.2" r="0.4"/>
	<g display="inline">
		<path fill="#422110" d="M25.1,19.5c-0.2,0.1-0.4,0.2-0.6,0.3c0,0,0,0,0,0c0,0,0,0.8-0.2,0.8c0,0-1.5,0.5-1.8,0.3
			c-0.4,0.2-1.8-0.3-1.8-0.3c-0.2,0-0.2-0.8-0.2-0.8c-0.4-0.1-0.6-0.3-0.6-0.3s0,1.5,0.9,2.4c0.4-0.2,1.9-0.7,3.4,0
			C25.1,21.1,25.1,19.5,25.1,19.5z"/>
		<path fill="#FFFFFF" d="M20.7,20.6c0,0,1.5,0.5,1.8,0.3c0.4,0.2,1.8-0.3,1.8-0.3c0.2,0,0.2-0.8,0.2-0.8c0,0,0,0,0,0
			c-1.6,0.7-3.2,0.3-4,0C20.5,19.8,20.5,20.6,20.7,20.6z"/>
		<path fill="#F05253" d="M20.8,22c0.4,0.4,0.9,0.6,1.7,0.6c0.8,0,1.3-0.3,1.7-0.6C22.7,21.3,21.2,21.8,20.8,22z"/>
	</g>
</g>
<g id="face2" display="none">
	<path display="inline" fill="#422110" d="M23.2,15.4l0.3,0.8c0,0,2.6-1.1,2.6-0.4c0,0,0.6-1.3-2.4-0.3
		C23.8,15.5,23.6,15.7,23.2,15.4z"/>
	<path display="inline" fill="#422110" d="M21.2,15.4l-0.3,0.8c0,0-2.6-1.1-2.6-0.4c0,0-0.6-1.3,2.4-0.3
		C20.6,15.5,20.9,15.7,21.2,15.4z"/>
	<path display="inline" fill="#422110" d="M23.9,17.4c0,0,1-0.3,1.9,0c0,0-0.4-0.3-0.6-0.3l-1,0C24.2,17.1,23.8,17.2,23.9,17.4z"/>
	<path display="inline" fill="#422110" d="M20.7,17.4c0,0-1-0.3-1.9,0c0,0,0.4-0.3,0.6-0.3l1,0C20.4,17.1,20.7,17.2,20.7,17.4z"/>
	<path display="inline" fill="#422110" d="M20.7,20.7c0,0,3-0.1,3.1-0.2c0,0,0.4-0.1,0.4-0.2c0,0-0.2,0.5-0.5,0.4
		C23.8,20.7,20.8,20.9,20.7,20.7z"/>
</g>
<g id="face1">
	<path fill="#422110" d="M24.7,15.8c0,0,1.4,0.1,1.5,0.8L24.7,15.8z"/>
	<path fill="#422110" d="M20.4,15.8c0,0-1.4,0-1.6,0.7L20.4,15.8z"/>
	<path fill="#422110" d="M20.7,20.3c0,0,3.1-0.3,3.5,0.8C24.3,21.1,21.5,20.4,20.7,20.3z"/>
	<path fill="#422110" d="M24.3,17.4c0,0,1.2,0.6,1.8,0.3C26.1,17.7,25.6,18.6,24.3,17.4z"/>
	<path fill="#422110" d="M20.6,17.4c0,0-1.2,0.6-1.8,0.3C18.8,17.7,19.3,18.6,20.6,17.4z"/>
</g>
<g id="hair3" display="none">
	<path display="inline" fill="#422110" d="M16.2,15.4l0-2.4c0,0-0.7-1.2-1.6-1.1c0,0,1.6-0.8,2.6,0c0,0-0.1-1.7-2.6-1.6
		c0,0,15.5-1.9,14,1.3l0.1,3.8C28.8,15.4,22.8,9.4,16.2,15.4z"/>
</g>
<g id="hair2" display="none">
	<path display="inline" fill="#422110" d="M28.7,13.2c0.7-2.8-1.5-2-1.5-2c-12.7-5.1-11,3.8-11,3.8c1-2.8,2-2.2,2-2.2
		c0.8,0.2,1.6,0.4,2.4,0.5c0.2,0,0.4,0,0.6,0.1c0,0.1-0.1,0.2-0.1,0.2c-1,0.1-0.3,0.8-0.3,0.8c0.3,0.3-0.5,0.7-0.5,0.7
		c1.3-0.6,0.9-0.9,0.9-0.9c-1,0.1,0.3-0.6,0.3-0.6c0.1-0.1,0.2-0.2,0.2-0.2c3.2,0.2,5.1-0.6,5.1-0.6c1.4-0.3,2.1,2.2,2.1,2.2
		C29.1,14.4,28.7,13.2,28.7,13.2z"/>
</g>
<g id="hair1">
	<path fill="#422110" d="M16.2,15.1c0,0-1.7-8.9,11-3.8c0,0,2.2-0.8,1.5,2c0,0,0.3,1.1,0,1.8c0,0-0.7-2.5-2.1-2.2c0,0-3.2,1.4-8.5,0
		C18.2,12.9,17.3,12.3,16.2,15.1z"/>
</g>
</svg>