<?xml version="1.0" encoding="UTF-8"?>
<!-- Generator: Adobe Illustrator 18.0.0, SVG Export Plug-In . SVG Version: 6.00 Build 0)  -->
<!DOCTYPE svg PUBLIC "-//W3C//DTD SVG 1.1//EN" "http://www.w3.org/Graphics/SVG/1.1/DTD/svg11.dtd">
<svg xmlns="http://www.w3.org/2000/svg" xmlns:xlink="http://www.w3.org/1999/xlink" xmlns:dc="http://purl.org/dc/elements/1.1/" xmlns:cc="http://creativecommons.org/ns#" xmlns:rdf="http://www.w3.org/1999/02/22-rdf-syntax-ns#" version="1.1" x="0px" y="0px" viewBox="0 0 32 32" enable-background="new 0 0 32 32" xml:space="preserve">
<title property="dc:title">to equal</title><desc property="dc:description">An icon for "equal" from the Pictogram series on to [icon]. Downloaded from http://www.toicon.com/icons/pictogram_equal by 64.233.172.227 on 2015-04-01. Licensed CC-BY, see http://toicon.com/license/ for details.</desc><g id="LABELS">
</g>
<g id="DESIGNS">
	<g>
		<path fill="#F8AD89" d="M4,16c0,6.627,5.373,12,12,12V4C9.373,4,4,9.373,4,16z"/>
		<path fill="#F4D6B0" d="M28,16c0-6.627-5.373-12-12-12v24C22.627,28,28,22.627,28,16z"/>
		<path fill="#01A59C" d="M16,0v4c6.627,0,12,5.373,12,12c0,6.627-5.373,12-12,12v4c8.837,0,16-7.163,16-16S24.837,0,16,0z"/>
		<path fill="#0C6667" d="M4,16C4,9.373,9.373,4,16,4V0C7.163,0,0,7.163,0,16s7.163,16,16,16v-4C9.373,28,4,22.627,4,16z"/>
		<path fill="#01A59C" d="M16,0v4c6.627,0,12,5.373,12,12c0,6.627-5.373,12-12,12v4c8.837,0,16-7.163,16-16S24.837,0,16,0z"/>
		<g>
			<g>
				<path fill="#0C6667" d="M22,14H10c-0.828,0-1.5-0.672-1.5-1.5S9.172,11,10,11h12c0.828,0,1.5,0.672,1.5,1.5S22.828,14,22,14z"/>
			</g>
		</g>
		<g>
			<g>
				<path fill="#0C6667" d="M22,21H10c-0.828,0-1.5-0.672-1.5-1.5S9.172,18,10,18h12c0.828,0,1.5,0.672,1.5,1.5S22.828,21,22,21z"/>
			</g>
		</g>
	</g>
</g>
<metadata><work rdf:about=""><format>image/svg+xml</format><type rdf:resource="http://purl.org/dc/dcmitype/StillImage"/><license rdf:resource="http://creativecommons.org/licenses/by/4.0/"/><attributionname>Jo Szczepanska</attributionname><attributionurl>http://www.toicon.com/icons/pictogram_equal</attributionurl></work></metadata></svg>
