<?xml version="1.0" encoding="UTF-8"?>
<!-- Generator: Adobe Illustrator 18.0.0, SVG Export Plug-In . SVG Version: 6.00 Build 0)  -->
<!DOCTYPE svg PUBLIC "-//W3C//DTD SVG 1.1//EN" "http://www.w3.org/Graphics/SVG/1.1/DTD/svg11.dtd">
<svg xmlns="http://www.w3.org/2000/svg" xmlns:xlink="http://www.w3.org/1999/xlink" xmlns:dc="http://purl.org/dc/elements/1.1/" xmlns:cc="http://creativecommons.org/ns#" xmlns:rdf="http://www.w3.org/1999/02/22-rdf-syntax-ns#" version="1.1" x="0px" y="0px" viewBox="0 0 32 32" enable-background="new 0 0 32 32" xml:space="preserve">
<title property="dc:title">to use</title><desc property="dc:description">An icon for "use" from the Pictogram series on to [icon]. Downloaded from http://www.toicon.com/icons/pictogram_use by 173.27.64.249 on 2015-04-03. Licensed CC-BY, see http://toicon.com/license/ for details.</desc><g id="LABELS">
</g>
<g id="DESIGNS">
	<g>
		<g>
			<path fill="#F8AD89" d="M7,15.809c-0.793,0.039-1.426,0.689-1.426,1.493S6.207,18.755,7,18.794v1.971     c0,3.956,2.507,7.312,6,8.559V32h6v-2.676c3.493-1.247,6-4.603,6-8.559V12H7V15.809z"/>
			<path fill="#F4D6B0" d="M25.873,9.125C25.15,4.443,21.017,0.85,16.01,0.85h-0.02c-4.962,0-9.066,3.529-9.843,8.15H4     c-0.829,0-1.5,0.672-1.5,1.5S3.171,12,4,12h21.276c0.829,0,1.5-0.672,1.5-1.5C26.776,9.884,26.404,9.356,25.873,9.125z"/>
		</g>
		<path fill="#F27261" d="M29,0H3C1.35,0,0,1.35,0,3v26c0,1.65,1.35,3,3,3h10v-2.676c-3.493-1.247-6-4.603-6-8.559v-1.971    c-0.793-0.039-1.426-0.689-1.426-1.493S6.207,15.848,7,15.809V12H4c-0.829,0-1.5-0.672-1.5-1.5S3.171,9,4,9h2.147    c0.776-4.621,4.88-8.15,9.843-8.15h0.02c5.007,0,9.14,3.593,9.863,8.275c0.531,0.231,0.903,0.759,0.903,1.375    c0,0.828-0.671,1.5-1.5,1.5H25v8.765c0,3.956-2.507,7.312-6,8.559V32h10c1.65,0,3-1.35,3-3V3C32,1.35,30.65,0,29,0z"/>
	</g>
</g>
<metadata><work rdf:about=""><format>image/svg+xml</format><type rdf:resource="http://purl.org/dc/dcmitype/StillImage"/><license rdf:resource="http://creativecommons.org/licenses/by/4.0/"/><attributionname>Jo Szczepanska</attributionname><attributionurl>http://www.toicon.com/icons/pictogram_use</attributionurl></work></metadata></svg>
