
<svg version="1.1" id="Layer_1" xmlns="http://www.w3.org/2000/svg" xmlns:xlink="http://www.w3.org/1999/xlink" x="0px" y="0px"
	 width="1000px" height="800px" viewBox="0 0 1000 800" style="enable-background:new 0 0 1000 800;" xml:space="preserve">
<g id="paper5">
	<g style="opacity:0.8;">
		<defs>
			<rect id="SVGID_1_" x="161.402" y="513.345" style="opacity:0.8;" width="241.536" height="58.79"/>
		</defs>
		<clipPath id="SVGID_2_">
			<use xlink:href="#SVGID_1_"  style="overflow:visible;"/>
		</clipPath>
		
			<radialGradient id="SVGID_3_" cx="322.811" cy="19957.6016" r="173.8381" gradientTransform="matrix(0.7416 0 0 0.289 45.8696 -5253.4243)" gradientUnits="userSpaceOnUse">
			<stop  offset="0" style="stop-color:#666666"/>
			<stop  offset="0.1923" style="stop-color:#7C7C7C;stop-opacity:0.8077"/>
			<stop  offset="0.5918" style="stop-color:#B3B3B3;stop-opacity:0.4082"/>
			<stop  offset="1" style="stop-color:#F2F2F2;stop-opacity:0"/>
		</radialGradient>
		<path style="clip-path:url(#SVGID_2_);fill:url(#SVGID_3_);" d="M414.159,514.32c0-27.747-57.708-50.246-128.893-50.246
			c-71.185,0-128.892,22.499-128.892,50.246c0,27.751,57.707,50.252,128.892,50.252C356.452,564.572,414.159,542.071,414.159,514.32
			z"/>
	</g>
	<g>
		<path style="fill:#F8E9B2;" d="M402.051,138.725c0,0,0.542,383.841,0,384.925s0,3.253-4.338,5.15
			c-4.337,1.897-3.795,12.47-9.488,9.216c-5.691-3.253-1.626,0.543-2.438,0.543c-0.814,0-1.627,0-6.506-1.355
			c-4.88-1.355-5.423-3.253-8.676-3.795c-3.252-0.543-8.403-0.271-14.096,2.169c-5.691,2.438-6.506,1.084-6.506,1.084
			c-14.366-5.964-30.631-6.777-30.631-6.777s-8.945,1.356-10.029,1.356c-1.084,0-4.337-1.628-4.337-1.628s-4.608,1.898-5.964,1.898
			c-1.354,0-15.181,0.271-15.181,0.271s-5.421,1.626-20.33,2.71c-14.909,1.085-30.361-5.42-31.716-7.048
			c-1.355-1.627-5.964-2.981-12.741-3.795c-6.776-0.813-6.776,0.271-10.301,0.271c-3.523,0-1.896-0.542-2.98-2.168
			c-1.085-1.627-2.17,2.168-5.693,2.711c-3.523,0.541-7.679-0.09-9.667,0.271c-1.99,0.363-2.891,1.447-5.782,1.808
			c-2.892,0.36-9.942-1.987-13.917-3.072c-3.975-1.083-8.856-0.903-8.856-0.903V138.725H402.051z"/>
		<linearGradient id="SVGID_4_" gradientUnits="userSpaceOnUse" x1="282.5073" y1="548.584" x2="281.4244" y2="115.2737">
			<stop  offset="0" style="stop-color:#2E9B88"/>
			<stop  offset="0.0154" style="stop-color:#30A18D"/>
			<stop  offset="0.0836" style="stop-color:#36B59F"/>
			<stop  offset="0.1611" style="stop-color:#3AC3AB"/>
			<stop  offset="0.2552" style="stop-color:#3CCBB3"/>
			<stop  offset="0.4116" style="stop-color:#3DCEB5"/>
			<stop  offset="0.966" style="stop-color:#3DCEB5"/>
		</linearGradient>
		<path style="fill:url(#SVGID_4_);" d="M402.051,132.652c0,0,0.542,383.625,0,384.709c-0.542,1.085,0,3.145-4.338,5.042
			c-4.337,1.898-3.795,12.415-9.488,9.163c-5.691-3.252-1.626,0.515-2.438,0.515c-0.814,0-1.627-0.016-6.506-1.369
			c-4.88-1.356-5.423-3.26-8.676-3.802c-3.252-0.541-8.403-0.273-14.096,2.167c-5.691,2.438-6.506,1.081-6.506,1.081
			c-14.366-5.965-30.631-6.778-30.631-6.778s-8.945,1.354-10.029,1.354c-1.084,0-4.337-1.627-4.337-1.627s-4.608,1.897-5.964,1.897
			c-1.354,0-15.181,0.273-15.181,0.273s-5.421,1.625-20.33,2.709c-14.909,1.086-30.361-5.421-31.716-7.048
			c-1.355-1.626-5.964-2.981-12.741-3.795c-6.776-0.813-6.776,0.27-10.301,0.27c-3.523,0-1.896-0.54-2.98-2.167
			c-1.085-1.626-2.17,2.167-5.693,2.711c-3.523,0.542-7.679-0.09-9.667,0.272c-1.99,0.36-2.891,1.445-5.782,1.805
			c-2.892,0.361-9.96-1.985-13.935-3.071c-3.976-1.083-8.875-0.904-8.875-0.904V132.652H402.051z"/>
	</g>
	<g>
		<path style="opacity:0.4;fill:#A4215E;" d="M277.467,180.675l42.392-42.392c6.28-6.28,7-12.761,1.973-17.788
			c-4.854-4.854-10.94-2.764-13.486-0.977l-14.554,14.537l2.362,2.362l14.223-14.224c0.778-0.492,5.302-3.104,9.082,0.675
			c3.671,3.671,3.008,8.067-1.969,13.044l-42.449,42.449l-0.12,0.128c-0.02,0.03-2.167,2.612-5.319,2.773
			c-2.221,0.104-4.517-1.005-6.815-3.303c-6.573-6.573-3.342-12.21,5.402-20.954l24.912-24.913c0.66-0.659,0.655-1.718,0-2.373
			c-0.655-0.656-1.714-0.659-2.373,0l-24.912,24.912c-5.818,5.818-15.551,15.552-5.402,25.7c3.016,3.017,6.181,4.45,9.403,4.277
			C274.141,184.37,276.985,181.247,277.467,180.675z"/>
		<g>
			<path style="fill:#F8E9B2;" d="M276.767,178.639l42.382-42.383c6.289-6.288,7.006-12.774,1.979-17.801
				c-4.854-4.854-10.94-2.764-13.486-0.976l-14.554,14.538l2.365,2.364l14.224-14.223c0.775-0.494,5.303-3.103,9.078,0.672
				c3.675,3.675,3.008,8.067-1.979,13.053l-42.44,42.44l-0.119,0.128c-0.021,0.029-2.168,2.612-5.32,2.773
				c-2.226,0.115-4.515-1.006-6.814-3.305c-6.573-6.573-3.343-12.209,5.401-20.953l24.913-24.912c0.651-0.651,0.655-1.719,0-2.374
				c-0.655-0.655-1.722-0.65-2.373,0l-24.913,24.912c-5.818,5.818-15.55,15.552-5.402,25.701c3.016,3.016,6.173,4.457,9.403,4.277
				C273.437,182.331,276.28,179.207,276.767,178.639z"/>
		</g>
	</g>
</g>
<g id="paper4">
	<g style="opacity:0.8;">
		<defs>
			
				<rect id="SVGID_5_" x="707.633" y="362.437" transform="matrix(0.9445 0.3284 -0.3284 0.9445 199.5948 -215.2668)" style="opacity:0.8;" width="58.791" height="241.538"/>
		</defs>
		<clipPath id="SVGID_6_">
			<use xlink:href="#SVGID_5_"  style="overflow:visible;"/>
		</clipPath>
		
			<radialGradient id="SVGID_7_" cx="581.9873" cy="19770.5137" r="173.8394" gradientTransform="matrix(0.2436 -0.7005 0.273 0.0949 -4827.2441 -998.0566)" gradientUnits="userSpaceOnUse">
			<stop  offset="0" style="stop-color:#666666"/>
			<stop  offset="0.1923" style="stop-color:#7C7C7C;stop-opacity:0.8077"/>
			<stop  offset="0.5918" style="stop-color:#B3B3B3;stop-opacity:0.4082"/>
			<stop  offset="1" style="stop-color:#F2F2F2;stop-opacity:0"/>
		</radialGradient>
		<path style="clip-path:url(#SVGID_6_);fill:url(#SVGID_7_);" d="M753.537,349.205c-26.205-9.113-66.412,38.002-89.793,105.238
			c-23.381,67.235-21.081,129.133,5.123,138.245c26.213,9.115,66.421-38.001,89.801-105.235
			C782.05,420.217,779.75,358.32,753.537,349.205z"/>
	</g>
	<g>
		<g>
			<path style="fill:#F8E9B2;" d="M395.57,236.367c0,0,362.727,125.563,363.571,126.429c0.847,0.869,3.072,1.068,3.44,5.79
				c0.367,4.72,10.53,7.68,5.587,11.988c-4.941,4.307-0.02,1.713-0.287,2.483c-0.268,0.768-0.534,1.537-3.415,5.698
				c-2.886,4.164-4.856,4.054-6.437,6.949c-1.58,2.894-3.015,7.847-2.581,14.026c0.434,6.177-1.113,6.501-1.113,6.501
				c-10.352,11.611-16.461,26.706-16.461,26.706s-1.657,8.895-2.014,9.918c-0.355,1.024-2.962,3.563-2.962,3.563
				s0.278,4.976-0.166,6.254c-0.446,1.282-4.729,14.429-4.729,14.429s-0.245,5.655-4.118,20.095
				c-3.873,14.437-15.091,26.895-17.072,27.641c-1.984,0.745-4.776,4.652-7.771,10.786c-2.993,6.133-1.97,6.489-3.127,9.818
				c-1.158,3.33-1.135,1.613-3.027,2.105c-1.893,0.489,1.335,2.762,0.689,6.266c-0.645,3.506-2.606,7.224-2.919,9.221
				c-0.31,1.997,0.419,3.206-0.192,6.054c-0.608,2.849-5.142,8.737-7.472,12.136c-2.329,3.399-3.761,8.069-3.761,8.069
				L316.686,463.216L395.57,236.367z"/>
			
				<linearGradient id="SVGID_8_" gradientUnits="userSpaceOnUse" x1="475.7446" y1="494.9531" x2="474.6619" y2="61.7301" gradientTransform="matrix(0.3285 -0.9445 0.9445 0.3285 119.6592 770.7588)">
				<stop  offset="0" style="stop-color:#BF2B2B"/>
				<stop  offset="0.1796" style="stop-color:#E13333"/>
				<stop  offset="0.3193" style="stop-color:#FF3939"/>
				<stop  offset="0.966" style="stop-color:#FF3939"/>
			</linearGradient>
			<path style="fill:url(#SVGID_8_);" d="M389.926,234.403c0,0,362.475,125.475,363.322,126.343
				c0.846,0.869,2.947,1.025,3.313,5.745c0.368,4.721,10.47,7.659,5.528,11.968c-4.942,4.307-0.054,1.702-0.321,2.471
				c-0.268,0.768-0.552,1.531-3.433,5.692c-2.884,4.165-4.861,4.052-6.442,6.947c-1.579,2.894-3.02,7.847-2.584,14.025
				c0.434,6.177-1.117,6.5-1.117,6.5c-10.351,11.611-16.461,26.705-16.461,26.705s-1.659,8.894-2.016,9.918
				c-0.356,1.023-2.962,3.563-2.962,3.563s0.28,4.976-0.164,6.254c-0.446,1.282-4.73,14.429-4.73,14.429s-0.246,5.655-4.118,20.095
				c-3.871,14.438-15.091,26.895-17.074,27.641c-1.98,0.746-4.775,4.652-7.77,10.786c-2.994,6.132-1.97,6.488-3.128,9.818
				s-1.133,1.614-3.025,2.105c-1.893,0.489,1.333,2.761,0.689,6.266c-0.645,3.506-2.607,7.224-2.918,9.221
				c-0.312,1.997,0.416,3.205-0.194,6.054c-0.608,2.849-5.172,8.83-7.502,12.226c-2.33,3.399-3.796,8.161-3.796,8.161
				L310.977,461.436L389.926,234.403z"/>
		</g>
		<g>
			<path style="opacity:0.4;fill:#A4215E;" d="M597.75,326.291l-26.117-53.964c-3.868-7.994-9.753-10.804-16.153-7.707
				c-6.178,2.992-6.204,9.425-5.353,12.417l8.952,18.522l3.005-1.456l-8.763-18.105c-0.208-0.896-1.19-6.027,3.621-8.356
				c4.673-2.261,8.608-0.191,11.675,6.145l26.151,54.038l0.08,0.155c0.022,0.028,1.757,2.903,0.873,5.935
				c-0.631,2.132-2.433,3.936-5.359,5.352c-8.367,4.049-12.629-0.854-18.016-11.985l-15.349-31.712
				c-0.406-0.839-1.409-1.183-2.241-0.78c-0.834,0.403-1.185,1.403-0.78,2.242l15.348,31.713
				c3.585,7.406,9.582,19.795,22.501,13.543c3.839-1.858,6.231-4.376,7.127-7.476C600.146,330.646,598.132,326.934,597.75,326.291z"
				/>
			<g>
				<path style="fill:#F8E9B2;" d="M595.597,326.283l-26.112-53.952c-3.873-8.004-9.764-10.813-16.163-7.716
					c-6.179,2.991-6.204,9.427-5.352,12.418l8.951,18.521l3.01-1.457l-8.762-18.107c-0.214-0.894-1.189-6.029,3.616-8.354
					c4.678-2.264,8.606-0.191,11.679,6.156l26.146,54.024l0.082,0.157c0.02,0.028,1.754,2.903,0.872,5.934
					c-0.623,2.141-2.435,3.935-5.36,5.351c-8.365,4.049-12.63-0.852-18.018-11.983l-15.346-31.713
					c-0.401-0.829-1.408-1.184-2.243-0.78c-0.834,0.404-1.18,1.413-0.778,2.242l15.348,31.712c3.585,7.408,9.581,19.797,22.5,13.544
					c3.839-1.858,6.236-4.367,7.128-7.476C597.99,330.641,595.973,326.93,595.597,326.283z"/>
			</g>
		</g>
	</g>
</g>
<g id="paper3">
	<g style="opacity:0.8;">
		<defs>
			<rect id="SVGID_9_" x="1429.569" y="180.948" style="opacity:0.8;" width="58.791" height="241.535"/>
		</defs>
		<clipPath id="SVGID_10_">
			<use xlink:href="#SVGID_9_"  style="overflow:visible;"/>
		</clipPath>
		
			<radialGradient id="SVGID_11_" cx="-130.436" cy="18155.7383" r="173.8386" gradientTransform="matrix(0 -0.7416 0.289 0 -3816.4609 201.8887)" gradientUnits="userSpaceOnUse">
			<stop  offset="0" style="stop-color:#666666"/>
			<stop  offset="0.1923" style="stop-color:#7C7C7C;stop-opacity:0.8077"/>
			<stop  offset="0.5918" style="stop-color:#B3B3B3;stop-opacity:0.4082"/>
			<stop  offset="1" style="stop-color:#F2F2F2;stop-opacity:0"/>
		</radialGradient>
		<path style="clip-path:url(#SVGID_10_);fill:url(#SVGID_11_);" d="M1430.545,169.727c-27.745,0-50.247,57.708-50.247,128.892
			c0,71.185,22.502,128.895,50.247,128.895c27.752,0,50.252-57.71,50.252-128.895
			C1480.797,227.434,1458.297,169.727,1430.545,169.727z"/>
	</g>
	<g>
		<path style="fill:#F8E9B2;" d="M1065.823,181.796c0,0,383.843-0.542,384.926,0c1.085,0.542,3.252,0,5.15,4.338
			c1.898,4.338,12.469,3.795,9.215,9.488c-3.252,5.69,0.544,1.625,0.544,2.438c0,0.814,0,1.628-1.354,6.505
			c-1.356,4.881-3.254,5.424-3.796,8.676c-0.543,3.252-0.271,8.404,2.169,14.096c2.438,5.692,1.083,6.506,1.083,6.506
			c-5.962,14.367-6.775,30.631-6.775,30.631s1.355,8.944,1.355,10.028c0,1.085-1.627,4.338-1.627,4.338s1.897,4.608,1.897,5.962
			c0,1.356,0.271,15.182,0.271,15.182s1.627,5.421,2.712,20.33c1.084,14.91-5.421,30.361-7.048,31.717
			c-1.628,1.354-2.983,5.962-3.796,12.74c-0.813,6.775,0.271,6.775,0.271,10.3c0,3.525-0.542,1.897-2.168,2.983
			c-1.626,1.083,2.168,2.168,2.71,5.691c0.543,3.522-0.09,7.679,0.272,9.667c0.362,1.989,1.447,2.89,1.806,5.782
			c0.36,2.89-1.985,9.942-3.07,13.915c-1.084,3.976-0.903,8.856-0.903,8.856h-383.843V181.796z"/>
		
			<linearGradient id="SVGID_12_" gradientUnits="userSpaceOnUse" x1="-54.0449" y1="38.6025" x2="-55.1302" y2="-395.6263" gradientTransform="matrix(0 -1 1 0 1436.9634 247.7588)">
			<stop  offset="0" style="stop-color:#802B3B"/>
			<stop  offset="0.1597" style="stop-color:#983346"/>
			<stop  offset="0.2634" style="stop-color:#AA394F"/>
			<stop  offset="0.966" style="stop-color:#AA394F"/>
		</linearGradient>
		<path style="fill:url(#SVGID_12_);" d="M1058.776,181.796c0,0,384.111-0.542,385.196,0c1.085,0.542,3.388,0,5.286,4.338
			c1.896,4.338,12.537,3.795,9.284,9.488c-3.252,5.69,0.575,1.625,0.575,2.438c0,0.814,0.017,1.628-1.337,6.505
			c-1.357,4.881-3.244,5.424-3.787,8.676c-0.541,3.252-0.268,8.404,2.173,14.096c2.438,5.692,1.084,6.506,1.084,6.506
			c-5.963,14.367-6.775,30.631-6.775,30.631s1.358,8.944,1.358,10.028c0,1.085-1.628,4.338-1.628,4.338s1.898,4.608,1.898,5.962
			c0,1.356,0.271,15.182,0.271,15.182s1.625,5.421,2.71,20.33c1.086,14.91-5.42,30.361-7.048,31.717
			c-1.626,1.354-2.982,5.962-3.796,12.74c-0.813,6.775,0.271,6.775,0.271,10.3c0,3.525-0.541,1.897-2.167,2.983
			c-1.626,1.083,2.167,2.168,2.709,5.691c0.543,3.522-0.09,7.679,0.272,9.667c0.362,1.989,1.447,2.89,1.806,5.782
			c0.36,2.89-1.985,10.401-3.071,14.376c-1.084,3.977-0.903,9.316-0.903,9.316h-384.383V181.796z"/>
	</g>
	<g>
		<path style="opacity:0.4;fill:#A4215E;" d="M1309.156,198.741l-42.392-42.392c-6.279-6.279-12.762-7-17.788-1.974
			c-4.854,4.855-2.765,10.94-0.978,13.487l14.538,14.554l2.361-2.362l-14.224-14.224c-0.492-0.778-3.103-5.302,0.676-9.081
			c3.672-3.671,8.066-3.008,13.045,1.97l42.449,42.449l0.127,0.12c0.03,0.019,2.612,2.167,2.772,5.318
			c0.104,2.221-1.006,4.517-3.303,6.816c-6.573,6.572-12.21,3.34-20.953-5.402l-24.913-24.913c-0.658-0.659-1.718-0.654-2.372,0
			c-0.656,0.657-0.66,1.714,0,2.373l24.911,24.914c5.818,5.818,15.552,15.55,25.699,5.402c3.017-3.017,4.45-6.182,4.277-9.404
			C1312.852,202.066,1309.728,199.224,1309.156,198.741z"/>
		<g>
			<path style="fill:#F8E9B2;" d="M1307.121,199.44l-42.383-42.381c-6.288-6.289-12.775-7.006-17.802-1.979
				c-4.853,4.854-2.763,10.94-0.976,13.487l14.537,14.553l2.363-2.364l-14.223-14.224c-0.494-0.775-3.103-5.304,0.672-9.078
				c3.676-3.676,8.068-3.008,13.054,1.978l42.439,42.439l0.129,0.12c0.028,0.021,2.611,2.167,2.772,5.321
				c0.115,2.225-1.005,4.514-3.304,6.814c-6.573,6.572-12.209,3.343-20.953-5.402l-24.912-24.911c-0.651-0.652-1.719-0.656-2.374,0
				c-0.654,0.654-0.65,1.721,0.001,2.373l24.911,24.911c5.818,5.819,15.552,15.552,25.7,5.402c3.017-3.015,4.458-6.173,4.276-9.401
				C1310.813,202.77,1307.688,199.928,1307.121,199.44z"/>
		</g>
	</g>
</g>
<g id="paper2">
	<g style="opacity:0.8;">
		<defs>
			<rect id="SVGID_13_" x="685.17" y="79.858" style="opacity:0.8;" width="58.791" height="241.537"/>
		</defs>
		<clipPath id="SVGID_14_">
			<use xlink:href="#SVGID_13_"  style="overflow:visible;"/>
		</clipPath>
		
			<radialGradient id="SVGID_15_" cx="1208.7842" cy="19494.7773" r="173.8403" gradientTransform="matrix(0 -0.7416 0.289 0 -4947.8418 1093.9639)" gradientUnits="userSpaceOnUse">
			<stop  offset="0" style="stop-color:#666666"/>
			<stop  offset="0.1923" style="stop-color:#7C7C7C;stop-opacity:0.8077"/>
			<stop  offset="0.5918" style="stop-color:#B3B3B3;stop-opacity:0.4082"/>
			<stop  offset="1" style="stop-color:#F2F2F2;stop-opacity:0"/>
		</radialGradient>
		<path style="clip-path:url(#SVGID_14_);fill:url(#SVGID_15_);" d="M686.146,68.636c-27.744,0-50.246,57.708-50.246,128.894
			c0,71.184,22.502,128.892,50.246,128.892c27.752,0,50.254-57.708,50.254-128.892C736.399,126.344,713.897,68.636,686.146,68.636z"
			/>
	</g>
	<g>
		<g>
			<path style="fill:#F8E9B2;" d="M310.977,79.633c0,0,383.844-0.542,384.926,0c1.085,0.543,3.253,0,5.151,4.338
				c1.897,4.338,12.469,3.795,9.215,9.488c-3.253,5.691,0.544,1.625,0.544,2.438c0,0.814,0,1.627-1.354,6.505
				c-1.357,4.881-3.255,5.424-3.797,8.677c-0.542,3.252-0.27,8.403,2.169,14.096c2.438,5.692,1.084,6.506,1.084,6.506
				c-5.963,14.367-6.775,30.631-6.775,30.631s1.355,8.946,1.355,10.029c0,1.084-1.628,4.338-1.628,4.338s1.897,4.607,1.897,5.962
				c0,1.357,0.271,15.182,0.271,15.182s1.626,5.422,2.711,20.331c1.084,14.909-5.42,30.36-7.047,31.715
				c-1.629,1.355-2.983,5.964-3.797,12.741c-0.813,6.775,0.271,6.775,0.271,10.3c0,3.524-0.542,1.897-2.168,2.981
				s2.168,2.17,2.71,5.693c0.543,3.523-0.09,7.679,0.271,9.667c0.363,1.989,1.448,2.89,1.807,5.781
				c0.36,2.891-1.987,9.942-3.071,13.917c-1.084,3.976-0.902,8.856-0.902,8.856H310.977V79.633z"/>
			
				<linearGradient id="SVGID_16_" gradientUnits="userSpaceOnUse" x1="940.5508" y1="415.2393" x2="939.468" y2="-17.9827" gradientTransform="matrix(0 -1 1 0 305.5825 1139.834)">
				<stop  offset="0" style="stop-color:#BF2B2B"/>
				<stop  offset="0.1796" style="stop-color:#E13333"/>
				<stop  offset="0.3193" style="stop-color:#FF3939"/>
				<stop  offset="0.966" style="stop-color:#FF3939"/>
			</linearGradient>
			<path style="fill:url(#SVGID_16_);" d="M305,79.633c0,0,383.577-0.542,384.663,0c1.084,0.543,3.12,0,5.017,4.338
				c1.898,4.338,12.404,3.795,9.152,9.488c-3.254,5.691,0.508,1.625,0.508,2.438c0,0.814-0.019,1.627-1.372,6.505
				c-1.356,4.881-3.261,5.424-3.804,8.677c-0.541,3.252-0.274,8.403,2.166,14.096c2.438,5.692,1.08,6.506,1.08,6.506
				c-5.963,14.367-6.776,30.631-6.776,30.631s1.354,8.946,1.354,10.029c0,1.084-1.627,4.338-1.627,4.338s1.898,4.607,1.898,5.962
				c0,1.357,0.271,15.182,0.271,15.182s1.625,5.422,2.71,20.331c1.086,14.909-5.42,30.36-7.048,31.715
				c-1.626,1.355-2.982,5.964-3.796,12.741c-0.813,6.775,0.271,6.775,0.271,10.3c0,3.524-0.54,1.897-2.166,2.981
				c-1.627,1.084,2.166,2.17,2.709,5.693s-0.09,7.679,0.272,9.667c0.361,1.989,1.446,2.89,1.805,5.781
				c0.361,2.891-1.984,10.039-3.07,14.013c-1.084,3.977-0.904,8.954-0.904,8.954H305V79.633z"/>
		</g>
		<g>
			<path style="opacity:0.4;fill:#A4215E;" d="M531.475,98.162l-42.392-42.392c-6.279-6.28-12.761-7.001-17.789-1.974
				c-4.853,4.855-2.764,10.94-0.977,13.486l14.538,14.554l2.361-2.362l-14.224-14.223c-0.491-0.778-3.104-5.301,0.676-9.081
				c3.67-3.67,8.067-3.008,13.044,1.969l42.45,42.45l0.127,0.121c0.03,0.019,2.612,2.166,2.773,5.318
				c0.104,2.221-1.005,4.516-3.304,6.815c-6.573,6.573-12.209,3.342-20.953-5.402l-24.913-24.912c-0.66-0.659-1.719-0.654-2.374,0
				c-0.655,0.655-0.658,1.714,0,2.373l24.912,24.914c5.818,5.817,15.552,15.55,25.701,5.401c3.016-3.016,4.448-6.181,4.275-9.403
				C535.169,101.488,532.047,98.645,531.475,98.162z"/>
			<g>
				<path style="fill:#F8E9B2;" d="M529.438,98.862L487.055,56.48c-6.287-6.288-12.774-7.006-17.8-1.979
					c-4.854,4.854-2.764,10.941-0.977,13.487l14.538,14.554l2.364-2.365l-14.223-14.225c-0.495-0.774-3.103-5.303,0.672-9.078
					c3.675-3.675,8.067-3.008,13.053,1.979l42.44,42.439l0.129,0.121c0.027,0.02,2.61,2.167,2.772,5.319
					c0.115,2.226-1.007,4.515-3.306,6.814c-6.571,6.573-12.209,3.344-20.953-5.401l-24.911-24.913c-0.651-0.651-1.719-0.655-2.375,0
					c-0.654,0.655-0.65,1.722,0.001,2.373l24.913,24.912c5.818,5.819,15.552,15.552,25.7,5.402c3.016-3.016,4.456-6.173,4.276-9.402
					C533.131,102.192,530.006,99.349,529.438,98.862z"/>
			</g>
		</g>
	</g>
</g>
<g id="paper1">
	<g style="opacity:0.8;">
		<defs>
			<rect id="SVGID_17_" x="784.521" y="939.244" style="opacity:0.8;" width="219.881" height="53.521"/>
		</defs>
		<clipPath id="SVGID_18_">
			<use xlink:href="#SVGID_17_"  style="overflow:visible;"/>
		</clipPath>
		
			<radialGradient id="SVGID_19_" cx="1148.0742" cy="21431" r="158.2539" gradientTransform="matrix(0.7416 0 0 0.289 45.8696 -5253.4243)" gradientUnits="userSpaceOnUse">
			<stop  offset="0" style="stop-color:#666666"/>
			<stop  offset="0.1923" style="stop-color:#7C7C7C;stop-opacity:0.8077"/>
			<stop  offset="0.5918" style="stop-color:#B3B3B3;stop-opacity:0.4082"/>
			<stop  offset="1" style="stop-color:#F2F2F2;stop-opacity:0"/>
		</radialGradient>
		<path style="clip-path:url(#SVGID_18_);fill:url(#SVGID_19_);" d="M1014.618,940.133c0-25.258-52.534-45.742-117.337-45.742
			s-117.337,20.484-117.337,45.742c0,25.264,52.534,45.747,117.337,45.747S1014.618,965.396,1014.618,940.133z"/>
	</g>
	<g>
		<path style="fill:#F8E9B2;" d="M984.135,569.373c0,0,0.542,383.841,0,384.925c-0.543,1.085,0,3.253-4.338,5.149
			c-4.339,1.898-3.796,12.47-9.489,9.217c-5.689-3.253-1.624,0.542-2.438,0.542s-1.628,0-6.505-1.354
			c-4.881-1.355-5.425-3.254-8.677-3.795c-3.253-0.544-8.403-0.271-14.097,2.169c-5.69,2.438-6.506,1.084-6.506,1.084
			c-14.367-5.964-30.631-6.777-30.631-6.777s-8.945,1.356-10.028,1.356c-1.085,0-4.339-1.627-4.339-1.627s-4.607,1.896-5.961,1.896
			c-1.357,0-15.182,0.272-15.182,0.272s-5.422,1.626-20.331,2.71c-14.909,1.085-30.36-5.421-31.716-7.048
			c-1.354-1.627-5.963-2.981-12.74-3.795c-6.775-0.813-6.775,0.27-10.301,0.27c-3.524,0-1.896-0.541-2.981-2.168
			c-1.085-1.626-2.17,2.168-5.692,2.712c-3.523,0.541-7.68-0.09-9.668,0.271s-2.89,1.446-5.781,1.806
			c-2.891,0.361-9.941-1.986-13.916-3.071c-3.976-1.083-8.857-0.903-8.857-0.903V569.373H984.135z"/>
		<linearGradient id="SVGID_20_" gradientUnits="userSpaceOnUse" x1="864.6182" y1="979.1191" x2="863.5325" y2="544.718">
			<stop  offset="0" style="stop-color:#BA6B0E"/>
			<stop  offset="0.131" style="stop-color:#D67B10"/>
			<stop  offset="0.2764" style="stop-color:#EF8911"/>
			<stop  offset="0.3649" style="stop-color:#F88E12"/>
			<stop  offset="1" style="stop-color:#F88E12"/>
		</linearGradient>
		<path style="fill:url(#SVGID_20_);" d="M984.135,562.141c0,0,0.542,384.204,0,385.29c-0.543,1.084,0,3.433-4.338,5.331
			c-4.339,1.896-3.796,12.56-9.489,9.307c-5.689-3.252-1.624,0.587-2.438,0.587s-1.628,0.022-6.505-1.331
			c-4.881-1.356-5.425-3.241-8.677-3.783c-3.253-0.543-8.403-0.268-14.097,2.173c-5.69,2.438-6.506,1.086-6.506,1.086
			c-14.367-5.964-30.631-6.774-30.631-6.774s-8.945,1.357-10.028,1.357c-1.085,0-4.339-1.627-4.339-1.627s-4.607,1.896-5.961,1.896
			c-1.357,0-15.182,0.272-15.182,0.272s-5.422,1.626-20.331,2.709c-14.909,1.086-30.36-5.42-31.716-7.047
			c-1.354-1.627-5.963-2.982-12.74-3.795c-6.775-0.813-6.775,0.271-10.301,0.271c-3.524,0-1.896-0.542-2.981-2.168
			s-2.17,2.168-5.692,2.71c-3.523,0.543-7.68-0.09-9.668,0.273c-1.988,0.36-2.89,1.445-5.781,1.805
			c-2.891,0.36-9.933-1.986-13.908-3.071c-3.975-1.083-8.848-0.904-8.848-0.904V562.141H984.135z"/>
	</g>
	<g>
		<path style="opacity:0.4;fill:#A4215E;" d="M853.693,610.589l42.391-42.39c6.28-6.28,7.002-12.762,1.975-17.789
			c-4.855-4.854-10.939-2.765-13.486-0.978l-14.555,14.538l2.362,2.361l14.224-14.225c0.777-0.49,5.302-3.102,9.081,0.676
			c3.671,3.672,3.008,8.067-1.97,13.045l-42.449,42.449l-0.121,0.128c-0.019,0.029-2.165,2.611-5.318,2.773
			c-2.221,0.104-4.516-1.006-6.814-3.304c-6.572-6.573-3.342-12.209,5.402-20.954l24.912-24.911c0.658-0.66,0.654-1.719,0-2.375
			c-0.656-0.654-1.715-0.658-2.373,0.002l-24.913,24.91c-5.817,5.818-15.55,15.553-5.402,25.701c3.017,3.017,6.181,4.45,9.403,4.276
			C850.367,614.286,853.21,611.162,853.693,610.589z"/>
		<g>
			<path style="fill:#F8E9B2;" d="M852.992,608.554l42.383-42.382c6.287-6.289,7.006-12.774,1.979-17.801
				c-4.854-4.855-10.941-2.766-13.486-0.977l-14.555,14.536l2.365,2.366l14.225-14.225c0.774-0.494,5.303-3.104,9.077,0.672
				c3.675,3.676,3.009,8.067-1.978,13.053l-42.439,42.441l-0.121,0.128c-0.021,0.028-2.166,2.611-5.319,2.772
				c-2.226,0.116-4.515-1.006-6.814-3.304c-6.572-6.574-3.343-12.21,5.401-20.952l24.912-24.914c0.651-0.65,0.656-1.719,0-2.373
				c-0.655-0.655-1.721-0.65-2.373,0l-24.912,24.912c-5.818,5.818-15.551,15.552-5.402,25.7c3.016,3.016,6.173,4.458,9.402,4.277
				C849.662,612.245,852.506,609.122,852.992,608.554z"/>
		</g>
	</g>
</g>
</svg>
