<?xml version="1.0" encoding="utf-8"?>
<!-- Generator: Adobe Illustrator 18.1.1, SVG Export Plug-In . SVG Version: 6.00 Build 0)  -->
<svg version="1.1" xmlns="http://www.w3.org/2000/svg" xmlns:xlink="http://www.w3.org/1999/xlink" x="0px" y="0px"
	 viewBox="0 0 720 720" enable-background="new 0 0 720 720" xml:space="preserve">
<g id="cloth4">
	<path fill="#605C5E" d="M153.5,247.5c0,0,176.7-42.4,138.2,68.8c-11.8,33.3-50.3,35.6-50.3,35.6s-91.6,28.4-87.8-28.4V247.5z"/>
	<path fill="#6BBD45" d="M287.6,293.5c0,0,143.8-62.9,131,47.9c-11.8,33.3-50.3,35.6-50.3,35.6s-109.6,11.7-105.8-45L287.6,293.5z"
		/>
	<path fill="#B4519E" d="M464.9,267.8c0,0,150-69.1,136.6,52.6C589.2,357,549,359.5,549,359.5S434.7,372.4,438.6,310L464.9,267.8z"
		/>
	<path fill="#EEE92B" d="M283.7,255.6c0,0,212.1-62.9,193.2,47.9c-17.4,33.3-74.2,35.6-74.2,35.6s-161.6,11.7-156-45L283.7,255.6z"
		/>
</g>
<g id="cloth3">
	<ellipse fill="#F05123" cx="228.4" cy="364.4" rx="68.8" ry="65"/>
	<path fill="#4C88C7" d="M474.6,335.9c0.7,65.8-148.4,56-148.4,56c-73,8.2,1.4-51.4,1.4-51.4c-9.3-22,32.4-53.2,32.4-53.2
		S473.7,250.3,474.6,335.9z"/>
	<path fill="#F05123" d="M357.4,364.4c0,0,16-18.6,55-8.3c39,10.4,69.2-15.6,69.2-15.6s26.4-17.5,45.6-5.1
		c19.2,12.3,33.6-7.2,33.6-7.2s17.5-18.5,29.8-6.2c0,0,30.3,46.7-53.4,53.4c0,0-183.9,41.6-171,8.7
		C366.2,384.2,344.6,385.7,357.4,364.4z"/>
</g>
<g id="cloth2">
	<path fill="#65BC46" d="M159.5,378c0,0,230.7,21.7,281.6,5.7c46.6-1.1-56,96-56,96s-119.7,13.6-181.3-9L159.5,378z"/>
	<path fill="#ECE70D" d="M349.5,397.3c0,0,188.8-45.5,238.6-40.9c36.5,8.2-50.3,80.7-50.3,80.7s-112.5,8.2-174.1-14.4L349.5,397.3z"
		/>
</g>
<g id="cloth1">
	<path fill="#605C5E" d="M168.4,403.7c0,0,176.7-28.8,138.2,46.7c-11.8,22.6-50.3,24.1-50.3,24.1s-75.2,15.9-71.4-22.6L168.4,403.7z
		"/>
	<path fill="#C64A71" d="M306.4,476.6c0,0,210.1-68.7,261-84.7c46.6-1.1-19.4,75-19.4,75s-118.2,34.9-179.9,12.3L306.4,476.6z"/>
	<path fill="#156D9E" d="M409.8,406.2c0,0,98.1,47.3,136.5,59.6c29.5,17-43,24.7-43,24.7s-98.8-12-85.1-52.9L409.8,406.2z"/>
</g>
<g id="basket">
	<path fill="#A97C50" stroke="#8B5E3C" stroke-miterlimit="10" d="M608.2,249.9c0,0-12.7-27.2-27.2,0
		c-101.2,21.4-196,23.3-269.3,19.1l-0.8-0.5l-0.3,0.5c-87.3-5.1-143.9-19-143.9-19c-14.5-27.2-27.2,0-27.2,0
		c-23.6,83.4,43.5,246.5,43.5,246.5h184.7H380h184.6C564.7,496.4,631.7,333.3,608.2,249.9z M466.8,468.4l-20.2-0.2l-18.3-12.7
		l25.7-18l28.6,19.9L466.8,468.4z M494.8,465.8l4.2,3l-8.4-0.1L494.8,465.8z M380,467.5v-0.1l-6.2,0.1l-2.3,0l-16.7-11.7l24.4-17.1
		l24.4,17.1l-17,11.9L380,467.5z M276.3,457.7l28.2-19.7l25.7,18l-17.3,12.1l-22.1,0.2l0.2-0.3L276.3,457.7z M267.6,468.6l-6.9,0.1
		l3.5-2.4L267.6,468.6z M576.7,391.7l-3.9,2.7l-28.5-19.9l27.4-19.2l10.6,7.7C580.9,372.3,579.1,381.9,576.7,391.7z M532.2,366
		L507.8,349l28.1-19.7l24,17.4L532.2,366z M303.9,368.7l-28.6-20l25.5-17.8l28.7,19.9L303.9,368.7z M341.5,359.3l25.8,18l-25.6,17.9
		l-25.8-18L341.5,359.3z M263.1,340.3L230,317.1l25.4-17.7l33.2,23.1L263.1,340.3z M250.6,349l-24.2,16.9l-33.1-23.2l24.1-16.8
		L250.6,349z M262.8,357.4l28.6,20l-24.3,16.9l-28.6-20L262.8,357.4z M303.5,385.8l25.8,18l-24.3,17l-25.7-18L303.5,385.8z
		 M341.4,412.3l25.7,17.9l-24.4,17l-25.7-18L341.4,412.3z M353.9,403.6l25.6-17.9l25.8,17.9l-25.7,17.9L353.9,403.6z M442.8,377.4
		l-24.9,17.4l-25.8-17.9l25-17.5L442.8,377.4z M429.2,351l28.6-20l25.7,18l-28.6,20L429.2,351z M417.4,412l24.5,17l-25.7,18
		l-24.4-17L417.4,412z M430,403.2l24.9-17.4l24.4,17.1l-24.9,17.4L430,403.2z M467,377.4l28.6-20l24.4,17.1l-28.6,20L467,377.4z
		 M495.6,340.5l-25.7-18l28.9-20.2l25.2,18.3L495.6,340.5z M509.4,295l0.8-0.6c28.5-2.8,50-6,63.2-8.2l-38.7,27.1L509.4,295z
		 M457.8,314.1l-20.9-14.6c16.4-0.7,31.6-1.6,45.7-2.6L457.8,314.1z M445.7,322.6l-28.6,20l-25.8-18l28.6-20L445.7,322.6z M405,351
		l-25,17.5l-25.8-18l25.1-17.5L405,351z M342,342.1l-28.7-19.9l25.2-17.6l28.6,20L342,342.1z M301.2,313.7l-24.1-16.8
		c15.3,1.1,30.1,1.9,44.5,2.5L301.2,313.7z M217.9,308.7l-29.8-20.8c17.4,2.3,34.5,4.3,51.1,5.9L217.9,308.7z M205.4,317.4
		l-24.1,16.8l-19.6-13.7c-0.3-12.3,0-23.5,0.6-33.2L205.4,317.4z M162.7,338.7l6.1,4.3l-5.4,3.7C163.1,344,162.9,341.3,162.7,338.7z
		 M169,382.8c-1.5-7-2.7-13.8-3.7-20.6l15.5-10.8l33.1,23.2l-28.4,19.8L169,382.8z M226,383.1l28.6,20l-28.3,19.8l-28.6-20
		L226,383.1z M266.7,411.5l25.7,18l-28.2,19.7l-25.8-18L266.7,411.5z M342.3,464.5l4.6,3.3l-9.4,0.1L342.3,464.5z M415.8,464.2
		l5.4,3.8l-10.6-0.1L415.8,464.2z M466.6,428.7l24.8-17.3l28.5,19.9l-24.8,17.3L466.6,428.7z M503.6,402.9l28.6-20l28.5,19.9
		l-28.6,20L503.6,402.9z M584.1,349.2l-1.8-1.3l2-1.4C584.3,347.4,584.2,348.3,584.1,349.2z M585.7,328.7l-15.3,10.7l-24-17.4
		l39.3-27.5C586.3,304.6,586.3,316.2,585.7,328.7z M401.6,300.5l-22.4,15.6l-22.4-15.6C372.4,300.7,387.3,300.7,401.6,300.5z
		 M178.3,416.4l7.3-5.1l28.6,20L191,447.4C186,437.2,181.8,426.8,178.3,416.4z M197.5,459.8l28.8-20.1l25.8,18l-16,11.1l-33.1,0.3
		C201.1,466.1,199.3,463,197.5,459.8z M524.6,469l-17.3-12l24.7-17.3l21.1,14.7c-2.6,5-5.4,9.9-8.4,14.8L524.6,469z M559.4,441.9
		l-15.1-10.6l26.5-18.5C567.5,422.5,563.8,432.2,559.4,441.9z"/>
</g>
</svg>
