<?xml version="1.0" encoding="utf-8"?>
<!-- Generator: Adobe Illustrator 18.1.1, SVG Export Plug-In . SVG Version: 6.00 Build 0)  -->
<svg id="laundary" version="1.1" xmlns="http://www.w3.org/2000/svg" xmlns:xlink="http://www.w3.org/1999/xlink" x="0px" y="0px"
	 viewBox="0 0 720 720" enable-background="new 0 0 720 720" xml:space="preserve">
<g id="Layer_1">
	<path fill="#FFFFFF" stroke="#000000" stroke-miterlimit="10" d="M193,462.3l-39.1-263.3c157.5-43.7,288.6,0,288.6,0l-33.3,263.3
		C409.2,462.3,301.1,491,193,462.3z"/>
	<path fill="#FFFFFF" stroke="#000000" stroke-miterlimit="10" d="M190.6,490.7l-40-269.4c161.2-44.7,295.3,0,295.3,0l-34.1,269.4
		C411.8,490.7,301.2,520.1,190.6,490.7z"/>
	<circle fill="#FFFFFF" stroke="#000000" stroke-miterlimit="10" cx="298.2" cy="375.1" r="100"/>
	<circle fill="#FFFFFF" stroke="#000000" stroke-miterlimit="10" cx="298.6" cy="375.1" r="89.7"/>
	<circle fill="#FFFFFF" stroke="#000000" stroke-miterlimit="10" cx="428.3" cy="205.4" r="8"/>
	<circle fill="#FFFFFF" stroke="#000000" stroke-miterlimit="10" cx="406.2" cy="201.4" r="8"/>
	<path fill="#FFFFFF" stroke="#000000" stroke-miterlimit="10" d="M201.6,349.3"/>
	<path fill="#FFFFFF" stroke="#000000" stroke-miterlimit="10" d="M205.8,343.1v64c0,0-25.5-12-25.5-32S205.8,343.1,205.8,343.1z"/>
</g>
<g id="Layer_2">
	<path fill="#FFFFFF" stroke="#000000" stroke-miterlimit="10" d="M193,462.3l-39.1-263.3c157.5-43.7,288.6,0,288.6,0l-33.3,263.3
		C409.2,462.3,301.1,491,193,462.3z"/>
	<path fill="#FFFFFF" stroke="#000000" stroke-miterlimit="10" d="M190.6,490.7l-40-269.4c161.2-44.7,295.3,0,295.3,0l-34.1,269.4
		C411.8,490.7,301.2,520.1,190.6,490.7z"/>
	<path d="M395.5,349.3c0,0,2-6.5,5.3,0l0.8,43.5c0,0-1.3,6-5.2,0.8C390,384.8,395.5,349.3,395.5,349.3z"/>
	<circle fill="#FFFFFF" stroke="#000000" stroke-miterlimit="10" cx="498.2" cy="369.1" r="100"/>
	<path fill="#FFFFFF" stroke="#000000" stroke-miterlimit="10" d="M590.6,337.1v64c0,0,25.5-12,25.5-32S590.6,337.1,590.6,337.1z"/>
	<circle fill="#6D6D6D" stroke="#000000" stroke-miterlimit="10" cx="497.9" cy="369.1" r="89.7"/>
	<circle fill="#FFFFFF" stroke="#000000" stroke-miterlimit="10" cx="497.9" cy="366.1" r="56.7"/>
	<circle fill="#FFFFFF" stroke="#000000" stroke-miterlimit="10" cx="298.2" cy="375.1" r="100"/>
	<circle fill="#6D6D6D" stroke="#000000" stroke-miterlimit="10" cx="298.6" cy="375.1" r="89.7"/>
	<circle fill="#FFFFFF" stroke="#000000" stroke-miterlimit="10" cx="298.6" cy="375.1" r="51.7"/>
	<circle fill="#FFFFFF" stroke="#000000" stroke-miterlimit="10" cx="428.3" cy="205.4" r="8"/>
	<circle fill="#FFFFFF" stroke="#000000" stroke-miterlimit="10" cx="406.2" cy="201.4" r="8"/>
	<path fill="#FFFFFF" stroke="#000000" stroke-miterlimit="10" d="M201.6,349.3"/>
</g>
<g id="waterCloths">
	<circle fill="none" cx="298.6" cy="375.1" r="89.7"/>
	<g id="water">
		<path fill="#3FC3D8" stroke="#000000" stroke-miterlimit="10" d="M209.9,384.2c0,0,38.5,18.8,48.5,7.8s54.5,3.4,54.5,3.4
			s27.2,7.7,41.3-5.6c14.2-13.3,32.9,1.1,32.9,1.1s-12,67.9-84.8,73C302.4,464,224.4,466.9,209.9,384.2z"/>
	</g>
	<g id="inCloths">
		<path id="inCloth3_2_" fill="#D0DD27" d="M279.7,410.6c-6,6.1-18.4,2.9-18.4,2.9s-21.3-6.1-20.1-18.7c0,0,2.3-9.1,11.6-6.1
			C267.1,393.1,291.7,394.9,279.7,410.6z"/>
		<path id="inCloth2_2_" fill="#D94799" d="M319,422.6c-0.5,8.5-12,14.3-12,14.3s-20,9.5-27.4-0.8c0,0-4.3-8.3,4.7-12.3
			C298,417.8,317.7,402.9,319,422.6z"/>
		<path id="inCloth1_2_" fill="#4BB749" d="M320.9,387.9c7-4.8,18.6,0.8,18.6,0.8s19.7,10.1,16.1,22.3c0,0-4,8.5-12.6,3.7
			C329.8,407.5,306.1,400.8,320.9,387.9z"/>
	</g>
</g>
</svg>
