<?xml version="1.0" encoding="UTF-8"?>
<!-- Generator: Adobe Illustrator 18.0.0, SVG Export Plug-In . SVG Version: 6.00 Build 0)  -->
<!DOCTYPE svg PUBLIC "-//W3C//DTD SVG 1.1//EN" "http://www.w3.org/Graphics/SVG/1.1/DTD/svg11.dtd">
<svg xmlns="http://www.w3.org/2000/svg" xmlns:xlink="http://www.w3.org/1999/xlink" xmlns:dc="http://purl.org/dc/elements/1.1/" xmlns:cc="http://creativecommons.org/ns#" xmlns:rdf="http://www.w3.org/1999/02/22-rdf-syntax-ns#" version="1.1" x="0px" y="0px" viewBox="0 0 32 32" enable-background="new 0 0 32 32" xml:space="preserve">
<title property="dc:title">to rewind</title><desc property="dc:description">An icon for "rewind" from the Pictogram series on to [icon]. Downloaded from http://www.toicon.com/icons/pictogram_rewind by 64.233.172.211 on 2015-03-31. Licensed CC-BY, see http://toicon.com/license/ for details.</desc><g id="LABELS">
</g>
<g id="DESIGNS">
	<g>
		<g>
			<path fill="#F8AD89" d="M16,28C9.373,28,4,22.627,4,16S9.373,4,16,4V28z"/>
		</g>
		<g>
			<path fill="#F4D6B0" d="M16,28c6.627,0,12-5.373,12-12S22.627,4,16,4V28z"/>
		</g>
		<path fill="#0C6667" d="M4,16C4,9.373,9.373,4,16,4V0C7.163,0,0,7.163,0,16s7.163,16,16,16v-4C9.373,28,4,22.627,4,16z"/>
		<path fill="#01A59C" d="M28,16c0-6.627-5.373-12-12-12V0c8.837,0,16,7.163,16,16s-7.163,16-16,16v-4C22.627,28,28,22.627,28,16z"/>
		<g>
			<g>
				<path fill="#0C6667" d="M12.596,20.597L8,16l4.596-4.597c0.585-0.586,1.535-0.586,2.121,0s0.586,1.535,0,2.121L12.242,16      l2.475,2.476c0.586,0.586,0.586,1.535,0,2.121C14.131,21.183,13.182,21.183,12.596,20.597z"/>
			</g>
		</g>
		<g>
			<g>
				<path fill="#0C6667" d="M20.596,20.597L16,16l4.596-4.597c0.585-0.586,1.535-0.586,2.121,0s0.586,1.535,0,2.121L20.242,16      l2.475,2.476c0.586,0.586,0.586,1.535,0,2.121C22.131,21.183,21.182,21.183,20.596,20.597z"/>
			</g>
		</g>
	</g>
</g>
<metadata><work rdf:about=""><format>image/svg+xml</format><type rdf:resource="http://purl.org/dc/dcmitype/StillImage"/><license rdf:resource="http://creativecommons.org/licenses/by/4.0/"/><attributionname>Jo Szczepanska</attributionname><attributionurl>http://www.toicon.com/icons/pictogram_rewind</attributionurl></work></metadata></svg>
